  0
SECTION
  2
HEADER
  9
$ACADVER
  1
AC1027
  9
$ACADMAINTVER
 70
105
  9
$DWGCODEPAGE
  3
ANSI_1252
  9
$LASTSAVEDBY
  1
ezdxf
  9
$REQUIREDVERSIONS
160
0
  9
$INSBASE
 10
0.0
 20
0.0
 30
0.0
  9
$EXTMIN
 10
1e+20
 20
1e+20
 30
1e+20
  9
$EXTMAX
 10
-1e+20
 20
-1e+20
 30
-1e+20
  9
$LIMMIN
 10
0.0
 20
0.0
  9
$LIMMAX
 10
420.0
 20
297.0
  9
$ORTHOMODE
 70
0
  9
$REGENMODE
 70
1
  9
$FILLMODE
 70
1
  9
$QTEXTMODE
 70
0
  9
$MIRRTEXT
 70
1
  9
$LTSCALE
 40
1.0
  9
$ATTMODE
 70
1
  9
$TEXTSIZE
 40
2.5
  9
$TRACEWID
 40
1.0
  9
$TEXTSTYLE
  7
Standard
  9
$CLAYER
  8
0
  9
$CELTYPE
  6
ByLayer
  9
$CECOLOR
 62
256
  9
$CELTSCALE
 40
1.0
  9
$DISPSILH
 70
0
  9
$DIMSCALE
 40
1.0
  9
$DIMASZ
 40
2.5
  9
$DIMEXO
 40
0.625
  9
$DIMDLI
 40
3.75
  9
$DIMRND
 40
0.0
  9
$DIMDLE
 40
0.0
  9
$DIMEXE
 40
1.25
  9
$DIMTP
 40
0.0
  9
$DIMTM
 40
0.0
  9
$DIMTXT
 40
2.5
  9
$DIMCEN
 40
2.5
  9
$DIMTSZ
 40
0.0
  9
$DIMTOL
 70
0
  9
$DIMLIM
 70
0
  9
$DIMTIH
 70
0
  9
$DIMTOH
 70
0
  9
$DIMSE1
 70
0
  9
$DIMSE2
 70
0
  9
$DIMTAD
 70
1
  9
$DIMZIN
 70
8
  9
$DIMBLK
  1

  9
$DIMASO
 70
1
  9
$DIMSHO
 70
1
  9
$DIMPOST
  1

  9
$DIMAPOST
  1

  9
$DIMALT
 70
0
  9
$DIMALTD
 70
3
  9
$DIMALTF
 40
0.03937007874
  9
$DIMLFAC
 40
1.0
  9
$DIMTOFL
 70
1
  9
$DIMTVP
 40
0.0
  9
$DIMTIX
 70
0
  9
$DIMSOXD
 70
0
  9
$DIMSAH
 70
0
  9
$DIMBLK1
  1

  9
$DIMBLK2
  1

  9
$DIMSTYLE
  2
ISO-25
  9
$DIMCLRD
 70
0
  9
$DIMCLRE
 70
0
  9
$DIMCLRT
 70
0
  9
$DIMTFAC
 40
1.0
  9
$DIMGAP
 40
0.625
  9
$DIMJUST
 70
0
  9
$DIMSD1
 70
0
  9
$DIMSD2
 70
0
  9
$DIMTOLJ
 70
0
  9
$DIMTZIN
 70
8
  9
$DIMALTZ
 70
0
  9
$DIMALTTZ
 70
0
  9
$DIMUPT
 70
0
  9
$DIMDEC
 70
2
  9
$DIMTDEC
 70
2
  9
$DIMALTU
 70
2
  9
$DIMALTTD
 70
3
  9
$DIMTXSTY
  7
Standard
  9
$DIMAUNIT
 70
0
  9
$DIMADEC
 70
0
  9
$DIMALTRND
 40
0.0
  9
$DIMAZIN
 70
0
  9
$DIMDSEP
 70
44
  9
$DIMATFIT
 70
3
  9
$DIMFRAC
 70
0
  9
$DIMLDRBLK
  1

  9
$DIMLUNIT
 70
2
  9
$DIMLWD
 70
-2
  9
$DIMLWE
 70
-2
  9
$DIMTMOVE
 70
0
  9
$DIMFXL
 40
1.0
  9
$DIMFXLON
 70
0
  9
$DIMJOGANG
 40
0.785398163397
  9
$DIMTFILL
 70
0
  9
$DIMTFILLCLR
 70
0
  9
$DIMARCSYM
 70
0
  9
$DIMLTYPE
  6

  9
$DIMLTEX1
  6

  9
$DIMLTEX2
  6

  9
$DIMTXTDIRECTION
 70
0
  9
$LUNITS
 70
2
  9
$LUPREC
 70
4
  9
$SKETCHINC
 40
1.0
  9
$FILLETRAD
 40
10.0
  9
$AUNITS
 70
0
  9
$AUPREC
 70
2
  9
$MENU
  1
.
  9
$ELEVATION
 40
0.0
  9
$PELEVATION
 40
0.0
  9
$THICKNESS
 40
0.0
  9
$LIMCHECK
 70
0
  9
$CHAMFERA
 40
0.0
  9
$CHAMFERB
 40
0.0
  9
$CHAMFERC
 40
0.0
  9
$CHAMFERD
 40
0.0
  9
$SKPOLY
 70
0
  9
$TDCREATE
 40
2460739.6227893517
  9
$TDUCREATE
 40
2458532.153996898
  9
$TDUPDATE
 40
2460739.6227893517
  9
$TDUUPDATE
 40
2458532.1544311
  9
$TDINDWG
 40
0.0
  9
$TDUSRTIMER
 40
0.0
  9
$USRTIMER
 70
1
  9
$ANGBASE
 50
0.0
  9
$ANGDIR
 70
0
  9
$PDMODE
 70
0
  9
$PDSIZE
 40
0.0
  9
$PLINEWID
 40
0.0
  9
$SPLFRAME
 70
0
  9
$SPLINETYPE
 70
6
  9
$SPLINESEGS
 70
8
  9
$HANDSEED
  5
51A
  9
$SURFTAB1
 70
6
  9
$SURFTAB2
 70
6
  9
$SURFTYPE
 70
6
  9
$SURFU
 70
6
  9
$SURFV
 70
6
  9
$UCSBASE
  2

  9
$UCSNAME
  2

  9
$UCSORG
 10
0.0
 20
0.0
 30
0.0
  9
$UCSXDIR
 10
1.0
 20
0.0
 30
0.0
  9
$UCSYDIR
 10
0.0
 20
1.0
 30
0.0
  9
$UCSORTHOREF
  2

  9
$UCSORTHOVIEW
 70
0
  9
$UCSORGTOP
 10
0.0
 20
0.0
 30
0.0
  9
$UCSORGBOTTOM
 10
0.0
 20
0.0
 30
0.0
  9
$UCSORGLEFT
 10
0.0
 20
0.0
 30
0.0
  9
$UCSORGRIGHT
 10
0.0
 20
0.0
 30
0.0
  9
$UCSORGFRONT
 10
0.0
 20
0.0
 30
0.0
  9
$UCSORGBACK
 10
0.0
 20
0.0
 30
0.0
  9
$PUCSBASE
  2

  9
$PUCSNAME
  2

  9
$PUCSORG
 10
0.0
 20
0.0
 30
0.0
  9
$PUCSXDIR
 10
1.0
 20
0.0
 30
0.0
  9
$PUCSYDIR
 10
0.0
 20
1.0
 30
0.0
  9
$PUCSORTHOREF
  2

  9
$PUCSORTHOVIEW
 70
0
  9
$PUCSORGTOP
 10
0.0
 20
0.0
 30
0.0
  9
$PUCSORGBOTTOM
 10
0.0
 20
0.0
 30
0.0
  9
$PUCSORGLEFT
 10
0.0
 20
0.0
 30
0.0
  9
$PUCSORGRIGHT
 10
0.0
 20
0.0
 30
0.0
  9
$PUCSORGFRONT
 10
0.0
 20
0.0
 30
0.0
  9
$PUCSORGBACK
 10
0.0
 20
0.0
 30
0.0
  9
$USERI1
 70
0
  9
$USERI2
 70
0
  9
$USERI3
 70
0
  9
$USERI4
 70
0
  9
$USERI5
 70
0
  9
$USERR1
 40
0.0
  9
$USERR2
 40
0.0
  9
$USERR3
 40
0.0
  9
$USERR4
 40
0.0
  9
$USERR5
 40
0.0
  9
$WORLDVIEW
 70
1
  9
$SHADEDGE
 70
3
  9
$SHADEDIF
 70
70
  9
$TILEMODE
 70
1
  9
$MAXACTVP
 70
64
  9
$PINSBASE
 10
0.0
 20
0.0
 30
0.0
  9
$PLIMCHECK
 70
0
  9
$PEXTMIN
 10
1e+20
 20
1e+20
 30
1e+20
  9
$PEXTMAX
 10
-1e+20
 20
-1e+20
 30
-1e+20
  9
$PLIMMIN
 10
0.0
 20
0.0
  9
$PLIMMAX
 10
420.0
 20
297.0
  9
$UNITMODE
 70
0
  9
$VISRETAIN
 70
1
  9
$PLINEGEN
 70
0
  9
$PSLTSCALE
 70
1
  9
$TREEDEPTH
 70
3020
  9
$CMLSTYLE
  2
Standard
  9
$CMLJUST
 70
0
  9
$CMLSCALE
 40
20.0
  9
$PROXYGRAPHICS
 70
1
  9
$MEASUREMENT
 70
1
  9
$CELWEIGHT
370
-1
  9
$ENDCAPS
280
0
  9
$JOINSTYLE
280
0
  9
$LWDISPLAY
290
0
  9
$INSUNITS
 70
6
  9
$HYPERLINKBASE
  1

  9
$STYLESHEET
  1

  9
$XEDIT
290
1
  9
$CEPSNTYPE
380
0
  9
$PSTYLEMODE
290
1
  9
$FINGERPRINTGUID
  2
{0724DFD8-DB34-4356-9FED-C703F4349D85}
  9
$VERSIONGUID
  2
{054C24D8-AD36-445C-BDE9-158B01BE535C}
  9
$EXTNAMES
290
1
  9
$PSVPSCALE
 40
0.0
  9
$OLESTARTUP
290
0
  9
$SORTENTS
280
127
  9
$INDEXCTL
280
0
  9
$HIDETEXT
280
1
  9
$XCLIPFRAME
280
1
  9
$HALOGAP
280
0
  9
$OBSCOLOR
 70
257
  9
$OBSLTYPE
280
0
  9
$INTERSECTIONDISPLAY
280
0
  9
$INTERSECTIONCOLOR
 70
257
  9
$DIMASSOC
280
2
  9
$PROJECTNAME
  1

  9
$CAMERADISPLAY
290
0
  9
$LENSLENGTH
 40
50.0
  9
$CAMERAHEIGHT
 40
0.0
  9
$STEPSPERSEC
 40
24.0
  9
$STEPSIZE
 40
100.0
  9
$3DDWFPREC
 40
2.0
  9
$PSOLWIDTH
 40
0.005
  9
$PSOLHEIGHT
 40
0.08
  9
$LOFTANG1
 40
1.570796326795
  9
$LOFTANG2
 40
1.570796326795
  9
$LOFTMAG1
 40
0.0
  9
$LOFTMAG2
 40
0.0
  9
$LOFTPARAM
 70
7
  9
$LOFTNORMALS
280
1
  9
$LATITUDE
 40
37.795
  9
$LONGITUDE
 40
-122.394
  9
$NORTHDIRECTION
 40
0.0
  9
$TIMEZONE
 70
-8000
  9
$LIGHTGLYPHDISPLAY
280
1
  9
$TILEMODELIGHTSYNCH
280
1
  9
$CMATERIAL
347
20
  9
$SOLIDHIST
280
0
  9
$SHOWHIST
280
1
  9
$DWFFRAME
280
2
  9
$DGNFRAME
280
2
  9
$REALWORLDSCALE
290
1
  9
$INTERFERECOLOR
 62
256
  9
$CSHADOW
280
0
  9
$SHADOWPLANELOCATION
 40
0.0
  0
ENDSEC
  0
SECTION
  2
CLASSES
  0
CLASS
  1
ACDBDICTIONARYWDFLT
  2
AcDbDictionaryWithDefault
  3
ObjectDBX Classes
 90
0
 91
0
280
0
281
0
  0
CLASS
  1
SUN
  2
AcDbSun
  3
SCENEOE
 90
1153
 91
0
280
0
281
0
  0
CLASS
  1
VISUALSTYLE
  2
AcDbVisualStyle
  3
ObjectDBX Classes
 90
4095
 91
0
280
0
281
0
  0
CLASS
  1
MATERIAL
  2
AcDbMaterial
  3
ObjectDBX Classes
 90
1153
 91
0
280
0
281
0
  0
CLASS
  1
SCALE
  2
AcDbScale
  3
ObjectDBX Classes
 90
1153
 91
0
280
0
281
0
  0
CLASS
  1
TABLESTYLE
  2
AcDbTableStyle
  3
ObjectDBX Classes
 90
4095
 91
0
280
0
281
0
  0
CLASS
  1
MLEADERSTYLE
  2
AcDbMLeaderStyle
  3
ACDB_MLEADERSTYLE_CLASS
 90
4095
 91
0
280
0
281
0
  0
CLASS
  1
DICTIONARYVAR
  2
AcDbDictionaryVar
  3
ObjectDBX Classes
 90
0
 91
0
280
0
281
0
  0
CLASS
  1
CELLSTYLEMAP
  2
AcDbCellStyleMap
  3
ObjectDBX Classes
 90
1152
 91
0
280
0
281
0
  0
CLASS
  1
MENTALRAYRENDERSETTINGS
  2
AcDbMentalRayRenderSettings
  3
SCENEOE
 90
1024
 91
0
280
0
281
0
  0
CLASS
  1
ACDBDETAILVIEWSTYLE
  2
AcDbDetailViewStyle
  3
ObjectDBX Classes
 90
1025
 91
0
280
0
281
0
  0
CLASS
  1
ACDBSECTIONVIEWSTYLE
  2
AcDbSectionViewStyle
  3
ObjectDBX Classes
 90
1025
 91
0
280
0
281
0
  0
CLASS
  1
RASTERVARIABLES
  2
AcDbRasterVariables
  3
ISM
 90
0
 91
0
280
0
281
0
  0
CLASS
  1
LAYOUT
  2
AcDbLayout
  3
ObjectDBX Classes
 90
0
 91
0
280
0
281
0
  0
CLASS
  1
ACDBPLACEHOLDER
  2
AcDbPlaceHolder
  3
ObjectDBX Classes
 90
0
 91
0
280
0
281
0
  0
ENDSEC
  0
SECTION
  2
TABLES
  0
TABLE
  2
VPORT
  5
8
330
0
100
AcDbSymbolTable
 70
1
  0
VPORT
  5
23
330
8
100
AcDbSymbolTableRecord
100
AcDbViewportTableRecord
  2
*Active
 70
0
 10
0.0
 20
0.0
 11
1.0
 21
1.0
 12
0.0
 22
0.0
 13
0.0
 23
0.0
 14
0.5
 24
0.5
 15
0.5
 25
0.5
 16
0.0
 26
0.0
 36
1.0
 17
0.0
 27
0.0
 37
0.0
 40
1000.0
 41
1.34
 42
50.0
 43
0.0
 44
0.0
 50
0.0
 51
0.0
 71
0
 72
1000
 73
1
 74
3
 75
0
 76
0
 77
0
 78
0
281
0
 65
0
146
0.0
  0
ENDTAB
  0
TABLE
  2
LTYPE
  5
2
330
0
100
AcDbSymbolTable
 70
3
  0
LTYPE
  5
24
330
2
100
AcDbSymbolTableRecord
100
AcDbLinetypeTableRecord
  2
ByBlock
 70
0
  3

 72
65
 73
0
 40
0.0
  0
LTYPE
  5
25
330
2
100
AcDbSymbolTableRecord
100
AcDbLinetypeTableRecord
  2
ByLayer
 70
0
  3

 72
65
 73
0
 40
0.0
  0
LTYPE
  5
26
330
2
100
AcDbSymbolTableRecord
100
AcDbLinetypeTableRecord
  2
Continuous
 70
0
  3

 72
65
 73
0
 40
0.0
  0
ENDTAB
  0
TABLE
  2
LAYER
  5
1
330
0
100
AcDbSymbolTable
 70
2
  0
LAYER
  5
27
330
1
100
AcDbSymbolTableRecord
100
AcDbLayerTableRecord
  2
0
 70
0
 62
7
  6
Continuous
370
-3
390
13
347
21
  0
LAYER
  5
28
330
1
100
AcDbSymbolTableRecord
100
AcDbLayerTableRecord
  2
Defpoints
 70
0
 62
7
  6
Continuous
290
0
370
-3
390
13
347
21
  0
ENDTAB
  0
TABLE
  2
STYLE
  5
5
330
0
100
AcDbSymbolTable
 70
1
  0
STYLE
  5
29
330
5
100
AcDbSymbolTableRecord
100
AcDbTextStyleTableRecord
  2
Standard
 70
0
 40
0.0
 41
1.0
 50
0.0
 71
0
 42
2.5
  3
txt
  4

  0
ENDTAB
  0
TABLE
  2
VIEW
  5
7
330
0
100
AcDbSymbolTable
 70
0
  0
ENDTAB
  0
TABLE
  2
UCS
  5
6
330
0
100
AcDbSymbolTable
 70
0
  0
ENDTAB
  0
TABLE
  2
APPID
  5
3
330
0
100
AcDbSymbolTable
 70
3
  0
APPID
  5
2A
330
3
100
AcDbSymbolTableRecord
100
AcDbRegAppTableRecord
  2
ACAD
 70
0
  0
APPID
  5
517
330
3
100
AcDbSymbolTableRecord
100
AcDbRegAppTableRecord
  2
HATCHBACKGROUNDCOLOR
 70
0
  0
APPID
  5
518
330
3
100
AcDbSymbolTableRecord
100
AcDbRegAppTableRecord
  2
EZDXF
 70
0
  0
ENDTAB
  0
TABLE
  2
DIMSTYLE
  5
4
330
0
100
AcDbSymbolTable
 70
1
100
AcDbDimStyleTable
  0
DIMSTYLE
105
2B
330
4
100
AcDbSymbolTableRecord
100
AcDbDimStyleTableRecord
  2
Standard
 70
0
 40
1.0
 41
2.5
 42
0.625
 43
3.75
 44
1.25
 45
0.0
 46
0.0
 47
0.0
 48
0.0
 49
2.5
140
2.5
141
2.5
142
0.0
143
0.03937007874
144
1.0
145
0.0
146
1.0
147
0.625
148
0.0
 69
0
 70
0
 71
0
 72
0
 73
0
 74
0
 75
0
 76
0
 77
1
 78
8
 79
3
170
0
171
3
172
1
173
0
174
0
175
0
176
0
177
0
178
0
179
2
271
2
272
2
273
2
274
3
275
0
276
0
277
2
278
44
279
0
280
0
281
0
282
0
283
0
284
8
285
0
286
0
288
0
289
3
290
0
371
-2
372
-2
  0
ENDTAB
  0
TABLE
  2
BLOCK_RECORD
  5
9
330
0
100
AcDbSymbolTable
 70
2
  0
BLOCK_RECORD
  5
17
330
9
100
AcDbSymbolTableRecord
100
AcDbBlockTableRecord
  2
*Model_Space
340
1A
 70
0
280
1
281
0
  0
BLOCK_RECORD
  5
1B
330
9
100
AcDbSymbolTableRecord
100
AcDbBlockTableRecord
  2
*Paper_Space
340
1E
 70
0
280
1
281
0
  0
ENDTAB
  0
ENDSEC
  0
SECTION
  2
BLOCKS
  0
BLOCK
  5
18
330
17
100
AcDbEntity
  8
0
100
AcDbBlockBegin
  2
*Model_Space
 70
0
 10
0.0
 20
0.0
 30
0.0
  3
*Model_Space
  1

  0
ENDBLK
  5
19
330
17
100
AcDbEntity
  8
0
100
AcDbBlockEnd
  0
BLOCK
  5
1C
330
1B
100
AcDbEntity
  8
0
100
AcDbBlockBegin
  2
*Paper_Space
 70
0
 10
0.0
 20
0.0
 30
0.0
  3
*Paper_Space
  1

  0
ENDBLK
  5
1D
330
1B
100
AcDbEntity
  8
0
100
AcDbBlockEnd
  0
ENDSEC
  0
SECTION
  2
ENTITIES
  0
LWPOLYLINE
  5
2F
330
17
100
AcDbEntity
  8
0
100
AcDbPolyline
 90
167
 70
1
 10
92.71428571428571
 20
-92.71428571428571
 10
91.0
 20
-89.85714285714286
 10
89.28571428571429
 20
-87.0
 10
87.78571428571429
 20
-84.28571428571428
 10
86.28571428571429
 20
-81.57142857142857
 10
84.64285714285714
 20
-78.73015873015873
 10
83.0
 20
-75.88888888888889
 10
81.625
 20
-73.56944444444444
 10
80.25
 20
-71.25
 10
77.95833333333334
 20
-67.70833333333334
 10
75.66666666666667
 20
-64.16666666666667
 10
73.95833333333334
 20
-61.458333333333336
 10
72.25
 20
-58.75
 10
70.8125
 20
-56.4375
 10
69.375
 20
-54.125
 10
67.75892857142857
 20
-51.49107142857143
 10
66.14285714285714
 20
-48.857142857142854
 10
64.64285714285714
 20
-46.357142857142854
 10
63.142857142857146
 20
-43.857142857142854
 10
61.5
 20
-41.5
 10
59.857142857142854
 20
-39.142857142857146
 10
57.595238095238095
 20
-40.23809523809524
 10
55.333333333333336
 20
-41.333333333333336
 10
54.66666666666667
 20
-44.41666666666667
 10
54.0
 20
-47.5
 10
53.33333333333333
 20
-50.58333333333333
 10
52.666666666666664
 20
-53.666666666666664
 10
51.93333333333334
 20
-57.43333333333334
 10
51.2
 20
-61.2
 10
50.43333333333334
 20
-64.43333333333334
 10
49.666666666666664
 20
-67.66666666666667
 10
48.93333333333334
 20
-71.03333333333333
 10
48.2
 20
-74.4
 10
47.43333333333334
 20
-77.2
 10
46.666666666666664
 20
-80.0
 10
45.83333333333333
 20
-85.5
 10
45.0
 20
-91.0
 10
44.7
 20
-94.1
 10
44.4
 20
-97.2
 10
44.03333333333333
 20
-99.1
 10
43.666666666666664
 20
-101.0
 10
42.75
 20
-103.83333333333334
 10
41.833333333333336
 20
-106.66666666666667
 10
41.70238095238095
 20
-109.11904761904762
 10
41.57142857142857
 20
-111.57142857142857
 10
40.535714285714285
 20
-115.84821428571428
 10
39.5
 20
-120.125
 10
38.875
 20
-125.9375
 10
38.25
 20
-131.75
 10
37.69642857142857
 20
-133.23214285714286
 10
37.142857142857146
 20
-134.71428571428572
 10
36.57142857142857
 20
-137.21428571428572
 10
36.0
 20
-139.71428571428572
 10
35.9375
 20
-142.79464285714286
 10
35.875
 20
-145.875
 10
35.4375
 20
-148.02083333333331
 10
35.0
 20
-150.16666666666666
 10
34.3
 20
-153.98333333333335
 10
33.6
 20
-157.8
 10
43.05
 20
-157.4
 10
52.5
 20
-157.0
 10
54.0
 20
-156.5
 10
55.5
 20
-156.0
 10
60.583333333333336
 20
-155.16666666666669
 10
65.66666666666667
 20
-154.33333333333334
 10
66.5
 20
-154.0
 10
67.33333333333333
 20
-153.66666666666666
 10
72.54166666666666
 20
-153.20833333333331
 10
77.75
 20
-152.75
 10
78.575
 20
-152.075
 10
79.4
 20
-151.4
 10
80.45
 20
-148.95
 10
81.5
 20
-146.5
 10
82.5
 20
-139.25
 10
83.5
 20
-132.0
 10
90.0
 20
-131.25
 10
96.5
 20
-130.5
 10
100.0
 20
-130.0
 10
103.5
 20
-129.5
 10
109.5
 20
-129.5
 10
115.5
 20
-129.5
 10
121.75
 20
-129.55
 10
128.0
 20
-129.6
 10
128.85714285714286
 20
-130.37142857142857
 10
129.71428571428572
 20
-131.14285714285714
 10
131.1904761904762
 20
-136.57142857142856
 10
132.66666666666666
 20
-142.0
 10
134.66666666666666
 20
-142.33333333333331
 10
136.66666666666666
 20
-142.66666666666666
 10
139.66666666666666
 20
-142.16666666666666
 10
142.66666666666666
 20
-141.66666666666666
 10
154.08333333333331
 20
-141.58333333333331
 10
165.5
 20
-141.5
 10
169.91666666666669
 20
-141.25
 10
174.33333333333334
 20
-141.0
 10
173.76666666666665
 20
-138.1
 10
173.2
 20
-135.2
 10
172.35
 20
-130.35
 10
171.5
 20
-125.5
 10
170.85
 20
-122.45
 10
170.2
 20
-119.4
 10
169.35
 20
-115.2
 10
168.5
 20
-111.0
 10
167.75
 20
-108.33333333333334
 10
167.0
 20
-105.66666666666667
 10
166.25
 20
-103.41666666666667
 10
165.5
 20
-101.16666666666667
 10
164.75
 20
-98.83333333333334
 10
164.0
 20
-96.5
 10
163.33333333333331
 20
-94.25
 10
162.66666666666666
 20
-92.0
 10
161.93333333333334
 20
-88.2
 10
161.2
 20
-84.4
 10
160.5
 20
-81.5
 10
159.8
 20
-78.6
 10
158.7
 20
-75.69999999999999
 10
157.6
 20
-72.8
 10
156.5
 20
-69.8
 10
155.4
 20
-66.8
 10
154.05714285714288
 20
-63.971428571428575
 10
152.71428571428572
 20
-61.142857142857146
 10
152.0
 20
-59.5
 10
151.28571428571428
 20
-57.857142857142854
 10
149.8095238095238
 20
-54.845238095238095
 10
148.33333333333334
 20
-51.833333333333336
 10
147.3095238095238
 20
-49.48809523809524
 10
146.28571428571428
 20
-47.142857142857146
 10
145.3095238095238
 20
-44.73809523809524
 10
144.33333333333334
 20
-42.333333333333336
 10
143.16666666666669
 20
-39.36666666666667
 10
142.0
 20
-36.4
 10
140.8
 20
-34.0
 10
139.6
 20
-31.6
 10
138.3
 20
-27.8
 10
137.0
 20
-24.0
 10
131.75
 20
-19.583333333333332
 10
130.5
 20
-20.833333333333332
 10
129.25
 20
-23.416666666666664
 10
128.0
 20
-26.0
 10
126.66666666666666
 20
-28.75
 10
125.33333333333333
 20
-31.5
 10
124.16666666666666
 20
-33.91666666666667
 10
123.0
 20
-36.333333333333336
 10
121.75
 20
-39.25
 10
120.5
 20
-42.166666666666664
 10
119.75
 20
-44.166666666666664
 10
119.0
 20
-46.166666666666664
 10
117.66666666666666
 20
-49.33333333333333
 10
116.33333333333333
 20
-52.5
 10
115.16666666666666
 20
-54.91666666666667
 10
114.0
 20
-57.333333333333336
 10
112.5
 20
-60.5
 10
111.0
 20
-63.666666666666664
 10
109.85714285714286
 20
-66.11904761904762
 10
108.71428571428571
 20
-68.57142857142857
 10
107.85714285714286
 20
-70.86904761904762
 10
107.0
 20
-73.16666666666667
 10
105.8
 20
-76.18333333333334
 10
104.6
 20
-79.2
 10
103.55
 20
-82.51666666666667
 10
102.5
 20
-85.83333333333333
 10
101.16666666666666
 20
-89.83333333333333
 10
99.83333333333333
 20
-93.83333333333333
 10
98.54166666666666
 20
-94.66666666666666
 10
97.25
 20
-95.5
 10
94.98214285714286
 20
-94.10714285714286
 10
92.71428571428571
 20
-92.71428571428571
  0
POINT
  5
30
330
17
100
AcDbEntity
  8
0
 62
3
100
AcDbPoint
 10
247.5209523809524
 20
-92.71428571428571
 30
0.0
  0
CIRCLE
  5
31
330
17
100
AcDbEntity
  8
0
 62
3
100
AcDbCircle
 10
247.5209523809524
 20
-92.71428571428571
 30
0.0
 40
0.5
  0
POINT
  5
32
330
17
100
AcDbEntity
  8
0
 62
3
100
AcDbPoint
 10
245.8066666666667
 20
-89.85714285714286
 30
0.0
  0
CIRCLE
  5
33
330
17
100
AcDbEntity
  8
0
 62
3
100
AcDbCircle
 10
245.8066666666667
 20
-89.85714285714286
 30
0.0
 40
0.5
  0
POINT
  5
34
330
17
100
AcDbEntity
  8
0
 62
3
100
AcDbPoint
 10
244.092380952381
 20
-87.0
 30
0.0
  0
CIRCLE
  5
35
330
17
100
AcDbEntity
  8
0
 62
3
100
AcDbCircle
 10
244.092380952381
 20
-87.0
 30
0.0
 40
0.5
  0
POINT
  5
36
330
17
100
AcDbEntity
  8
0
 62
3
100
AcDbPoint
 10
242.592380952381
 20
-84.28571428571428
 30
0.0
  0
CIRCLE
  5
37
330
17
100
AcDbEntity
  8
0
 62
3
100
AcDbCircle
 10
242.592380952381
 20
-84.28571428571428
 30
0.0
 40
0.5
  0
POINT
  5
38
330
17
100
AcDbEntity
  8
0
 62
3
100
AcDbPoint
 10
241.092380952381
 20
-81.57142857142857
 30
0.0
  0
CIRCLE
  5
39
330
17
100
AcDbEntity
  8
0
 62
3
100
AcDbCircle
 10
241.092380952381
 20
-81.57142857142857
 30
0.0
 40
0.5
  0
POINT
  5
3A
330
17
100
AcDbEntity
  8
0
 62
3
100
AcDbPoint
 10
239.44952380952384
 20
-78.73015873015873
 30
0.0
  0
CIRCLE
  5
3B
330
17
100
AcDbEntity
  8
0
 62
3
100
AcDbCircle
 10
239.44952380952384
 20
-78.73015873015873
 30
0.0
 40
0.5
  0
POINT
  5
3C
330
17
100
AcDbEntity
  8
0
 62
3
100
AcDbPoint
 10
237.8066666666667
 20
-75.88888888888889
 30
0.0
  0
CIRCLE
  5
3D
330
17
100
AcDbEntity
  8
0
 62
3
100
AcDbCircle
 10
237.8066666666667
 20
-75.88888888888889
 30
0.0
 40
0.5
  0
POINT
  5
3E
330
17
100
AcDbEntity
  8
0
 62
3
100
AcDbPoint
 10
236.4316666666667
 20
-73.56944444444444
 30
0.0
  0
CIRCLE
  5
3F
330
17
100
AcDbEntity
  8
0
 62
3
100
AcDbCircle
 10
236.4316666666667
 20
-73.56944444444444
 30
0.0
 40
0.5
  0
POINT
  5
40
330
17
100
AcDbEntity
  8
0
 62
3
100
AcDbPoint
 10
235.0566666666667
 20
-71.25
 30
0.0
  0
CIRCLE
  5
41
330
17
100
AcDbEntity
  8
0
 62
3
100
AcDbCircle
 10
235.0566666666667
 20
-71.25
 30
0.0
 40
0.5
  0
POINT
  5
42
330
17
100
AcDbEntity
  8
0
 62
3
100
AcDbPoint
 10
232.76500000000004
 20
-67.70833333333334
 30
0.0
  0
CIRCLE
  5
43
330
17
100
AcDbEntity
  8
0
 62
3
100
AcDbCircle
 10
232.76500000000004
 20
-67.70833333333334
 30
0.0
 40
0.5
  0
POINT
  5
44
330
17
100
AcDbEntity
  8
0
 62
3
100
AcDbPoint
 10
230.47333333333336
 20
-64.16666666666667
 30
0.0
  0
CIRCLE
  5
45
330
17
100
AcDbEntity
  8
0
 62
3
100
AcDbCircle
 10
230.47333333333336
 20
-64.16666666666667
 30
0.0
 40
0.5
  0
POINT
  5
46
330
17
100
AcDbEntity
  8
0
 62
3
100
AcDbPoint
 10
228.76500000000004
 20
-61.458333333333336
 30
0.0
  0
CIRCLE
  5
47
330
17
100
AcDbEntity
  8
0
 62
3
100
AcDbCircle
 10
228.76500000000004
 20
-61.458333333333336
 30
0.0
 40
0.5
  0
POINT
  5
48
330
17
100
AcDbEntity
  8
0
 62
3
100
AcDbPoint
 10
227.0566666666667
 20
-58.75
 30
0.0
  0
CIRCLE
  5
49
330
17
100
AcDbEntity
  8
0
 62
3
100
AcDbCircle
 10
227.0566666666667
 20
-58.75
 30
0.0
 40
0.5
  0
POINT
  5
4A
330
17
100
AcDbEntity
  8
0
 62
3
100
AcDbPoint
 10
225.6191666666667
 20
-56.4375
 30
0.0
  0
CIRCLE
  5
4B
330
17
100
AcDbEntity
  8
0
 62
3
100
AcDbCircle
 10
225.6191666666667
 20
-56.4375
 30
0.0
 40
0.5
  0
POINT
  5
4C
330
17
100
AcDbEntity
  8
0
 62
3
100
AcDbPoint
 10
224.1816666666667
 20
-54.125
 30
0.0
  0
CIRCLE
  5
4D
330
17
100
AcDbEntity
  8
0
 62
3
100
AcDbCircle
 10
224.1816666666667
 20
-54.125
 30
0.0
 40
0.5
  0
POINT
  5
4E
330
17
100
AcDbEntity
  8
0
 62
3
100
AcDbPoint
 10
222.56559523809528
 20
-51.49107142857143
 30
0.0
  0
CIRCLE
  5
4F
330
17
100
AcDbEntity
  8
0
 62
3
100
AcDbCircle
 10
222.56559523809528
 20
-51.49107142857143
 30
0.0
 40
0.5
  0
POINT
  5
50
330
17
100
AcDbEntity
  8
0
 62
3
100
AcDbPoint
 10
220.94952380952384
 20
-48.857142857142854
 30
0.0
  0
CIRCLE
  5
51
330
17
100
AcDbEntity
  8
0
 62
3
100
AcDbCircle
 10
220.94952380952384
 20
-48.857142857142854
 30
0.0
 40
0.5
  0
POINT
  5
52
330
17
100
AcDbEntity
  8
0
 62
3
100
AcDbPoint
 10
219.44952380952384
 20
-46.357142857142854
 30
0.0
  0
CIRCLE
  5
53
330
17
100
AcDbEntity
  8
0
 62
3
100
AcDbCircle
 10
219.44952380952384
 20
-46.357142857142854
 30
0.0
 40
0.5
  0
POINT
  5
54
330
17
100
AcDbEntity
  8
0
 62
3
100
AcDbPoint
 10
217.94952380952384
 20
-43.857142857142854
 30
0.0
  0
CIRCLE
  5
55
330
17
100
AcDbEntity
  8
0
 62
3
100
AcDbCircle
 10
217.94952380952384
 20
-43.857142857142854
 30
0.0
 40
0.5
  0
POINT
  5
56
330
17
100
AcDbEntity
  8
0
 62
3
100
AcDbPoint
 10
216.3066666666667
 20
-41.5
 30
0.0
  0
CIRCLE
  5
57
330
17
100
AcDbEntity
  8
0
 62
3
100
AcDbCircle
 10
216.3066666666667
 20
-41.5
 30
0.0
 40
0.5
  0
POINT
  5
58
330
17
100
AcDbEntity
  8
0
 62
3
100
AcDbPoint
 10
214.66380952380956
 20
-39.142857142857146
 30
0.0
  0
CIRCLE
  5
59
330
17
100
AcDbEntity
  8
0
 62
3
100
AcDbCircle
 10
214.66380952380956
 20
-39.142857142857146
 30
0.0
 40
0.5
  0
POINT
  5
5A
330
17
100
AcDbEntity
  8
0
 62
3
100
AcDbPoint
 10
212.4019047619048
 20
-40.23809523809524
 30
0.0
  0
CIRCLE
  5
5B
330
17
100
AcDbEntity
  8
0
 62
3
100
AcDbCircle
 10
212.4019047619048
 20
-40.23809523809524
 30
0.0
 40
0.5
  0
POINT
  5
5C
330
17
100
AcDbEntity
  8
0
 62
3
100
AcDbPoint
 10
210.14000000000004
 20
-41.333333333333336
 30
0.0
  0
CIRCLE
  5
5D
330
17
100
AcDbEntity
  8
0
 62
3
100
AcDbCircle
 10
210.14000000000004
 20
-41.333333333333336
 30
0.0
 40
0.5
  0
POINT
  5
5E
330
17
100
AcDbEntity
  8
0
 62
3
100
AcDbPoint
 10
209.47333333333336
 20
-44.41666666666667
 30
0.0
  0
CIRCLE
  5
5F
330
17
100
AcDbEntity
  8
0
 62
3
100
AcDbCircle
 10
209.47333333333336
 20
-44.41666666666667
 30
0.0
 40
0.5
  0
POINT
  5
60
330
17
100
AcDbEntity
  8
0
 62
3
100
AcDbPoint
 10
208.8066666666667
 20
-47.5
 30
0.0
  0
CIRCLE
  5
61
330
17
100
AcDbEntity
  8
0
 62
3
100
AcDbCircle
 10
208.8066666666667
 20
-47.5
 30
0.0
 40
0.5
  0
POINT
  5
62
330
17
100
AcDbEntity
  8
0
 62
3
100
AcDbPoint
 10
208.14000000000004
 20
-50.58333333333333
 30
0.0
  0
CIRCLE
  5
63
330
17
100
AcDbEntity
  8
0
 62
3
100
AcDbCircle
 10
208.14000000000004
 20
-50.58333333333333
 30
0.0
 40
0.5
  0
POINT
  5
64
330
17
100
AcDbEntity
  8
0
 62
3
100
AcDbPoint
 10
207.47333333333336
 20
-53.666666666666664
 30
0.0
  0
CIRCLE
  5
65
330
17
100
AcDbEntity
  8
0
 62
3
100
AcDbCircle
 10
207.47333333333336
 20
-53.666666666666664
 30
0.0
 40
0.5
  0
POINT
  5
66
330
17
100
AcDbEntity
  8
0
 62
3
100
AcDbPoint
 10
206.74000000000004
 20
-57.43333333333334
 30
0.0
  0
CIRCLE
  5
67
330
17
100
AcDbEntity
  8
0
 62
3
100
AcDbCircle
 10
206.74000000000004
 20
-57.43333333333334
 30
0.0
 40
0.5
  0
POINT
  5
68
330
17
100
AcDbEntity
  8
0
 62
3
100
AcDbPoint
 10
206.00666666666672
 20
-61.2
 30
0.0
  0
CIRCLE
  5
69
330
17
100
AcDbEntity
  8
0
 62
3
100
AcDbCircle
 10
206.00666666666672
 20
-61.2
 30
0.0
 40
0.5
  0
POINT
  5
6A
330
17
100
AcDbEntity
  8
0
 62
3
100
AcDbPoint
 10
205.24000000000004
 20
-64.43333333333334
 30
0.0
  0
CIRCLE
  5
6B
330
17
100
AcDbEntity
  8
0
 62
3
100
AcDbCircle
 10
205.24000000000004
 20
-64.43333333333334
 30
0.0
 40
0.5
  0
POINT
  5
6C
330
17
100
AcDbEntity
  8
0
 62
3
100
AcDbPoint
 10
204.47333333333336
 20
-67.66666666666667
 30
0.0
  0
CIRCLE
  5
6D
330
17
100
AcDbEntity
  8
0
 62
3
100
AcDbCircle
 10
204.47333333333336
 20
-67.66666666666667
 30
0.0
 40
0.5
  0
POINT
  5
6E
330
17
100
AcDbEntity
  8
0
 62
3
100
AcDbPoint
 10
203.74000000000004
 20
-71.03333333333333
 30
0.0
  0
CIRCLE
  5
6F
330
17
100
AcDbEntity
  8
0
 62
3
100
AcDbCircle
 10
203.74000000000004
 20
-71.03333333333333
 30
0.0
 40
0.5
  0
POINT
  5
70
330
17
100
AcDbEntity
  8
0
 62
3
100
AcDbPoint
 10
203.00666666666672
 20
-74.4
 30
0.0
  0
CIRCLE
  5
71
330
17
100
AcDbEntity
  8
0
 62
3
100
AcDbCircle
 10
203.00666666666672
 20
-74.4
 30
0.0
 40
0.5
  0
POINT
  5
72
330
17
100
AcDbEntity
  8
0
 62
3
100
AcDbPoint
 10
202.24000000000004
 20
-77.2
 30
0.0
  0
CIRCLE
  5
73
330
17
100
AcDbEntity
  8
0
 62
3
100
AcDbCircle
 10
202.24000000000004
 20
-77.2
 30
0.0
 40
0.5
  0
POINT
  5
74
330
17
100
AcDbEntity
  8
0
 62
3
100
AcDbPoint
 10
201.47333333333336
 20
-80.0
 30
0.0
  0
CIRCLE
  5
75
330
17
100
AcDbEntity
  8
0
 62
3
100
AcDbCircle
 10
201.47333333333336
 20
-80.0
 30
0.0
 40
0.5
  0
POINT
  5
76
330
17
100
AcDbEntity
  8
0
 62
3
100
AcDbPoint
 10
200.64000000000004
 20
-85.5
 30
0.0
  0
CIRCLE
  5
77
330
17
100
AcDbEntity
  8
0
 62
3
100
AcDbCircle
 10
200.64000000000004
 20
-85.5
 30
0.0
 40
0.5
  0
POINT
  5
78
330
17
100
AcDbEntity
  8
0
 62
3
100
AcDbPoint
 10
199.8066666666667
 20
-91.0
 30
0.0
  0
CIRCLE
  5
79
330
17
100
AcDbEntity
  8
0
 62
3
100
AcDbCircle
 10
199.8066666666667
 20
-91.0
 30
0.0
 40
0.5
  0
POINT
  5
7A
330
17
100
AcDbEntity
  8
0
 62
3
100
AcDbPoint
 10
199.50666666666672
 20
-94.1
 30
0.0
  0
CIRCLE
  5
7B
330
17
100
AcDbEntity
  8
0
 62
3
100
AcDbCircle
 10
199.50666666666672
 20
-94.1
 30
0.0
 40
0.5
  0
POINT
  5
7C
330
17
100
AcDbEntity
  8
0
 62
3
100
AcDbPoint
 10
199.2066666666667
 20
-97.2
 30
0.0
  0
CIRCLE
  5
7D
330
17
100
AcDbEntity
  8
0
 62
3
100
AcDbCircle
 10
199.2066666666667
 20
-97.2
 30
0.0
 40
0.5
  0
POINT
  5
7E
330
17
100
AcDbEntity
  8
0
 62
3
100
AcDbPoint
 10
198.84000000000003
 20
-99.1
 30
0.0
  0
CIRCLE
  5
7F
330
17
100
AcDbEntity
  8
0
 62
3
100
AcDbCircle
 10
198.84000000000003
 20
-99.1
 30
0.0
 40
0.5
  0
POINT
  5
80
330
17
100
AcDbEntity
  8
0
 62
3
100
AcDbPoint
 10
198.47333333333336
 20
-101.0
 30
0.0
  0
CIRCLE
  5
81
330
17
100
AcDbEntity
  8
0
 62
3
100
AcDbCircle
 10
198.47333333333336
 20
-101.0
 30
0.0
 40
0.5
  0
POINT
  5
82
330
17
100
AcDbEntity
  8
0
 62
3
100
AcDbPoint
 10
197.5566666666667
 20
-103.83333333333334
 30
0.0
  0
CIRCLE
  5
83
330
17
100
AcDbEntity
  8
0
 62
3
100
AcDbCircle
 10
197.5566666666667
 20
-103.83333333333334
 30
0.0
 40
0.5
  0
POINT
  5
84
330
17
100
AcDbEntity
  8
0
 62
3
100
AcDbPoint
 10
196.64000000000004
 20
-106.66666666666667
 30
0.0
  0
CIRCLE
  5
85
330
17
100
AcDbEntity
  8
0
 62
3
100
AcDbCircle
 10
196.64000000000004
 20
-106.66666666666667
 30
0.0
 40
0.5
  0
POINT
  5
86
330
17
100
AcDbEntity
  8
0
 62
3
100
AcDbPoint
 10
196.50904761904764
 20
-109.11904761904762
 30
0.0
  0
CIRCLE
  5
87
330
17
100
AcDbEntity
  8
0
 62
3
100
AcDbCircle
 10
196.50904761904764
 20
-109.11904761904762
 30
0.0
 40
0.5
  0
POINT
  5
88
330
17
100
AcDbEntity
  8
0
 62
3
100
AcDbPoint
 10
196.37809523809528
 20
-111.57142857142857
 30
0.0
  0
CIRCLE
  5
89
330
17
100
AcDbEntity
  8
0
 62
3
100
AcDbCircle
 10
196.37809523809528
 20
-111.57142857142857
 30
0.0
 40
0.5
  0
POINT
  5
8A
330
17
100
AcDbEntity
  8
0
 62
3
100
AcDbPoint
 10
195.34238095238098
 20
-115.84821428571428
 30
0.0
  0
CIRCLE
  5
8B
330
17
100
AcDbEntity
  8
0
 62
3
100
AcDbCircle
 10
195.34238095238098
 20
-115.84821428571428
 30
0.0
 40
0.5
  0
POINT
  5
8C
330
17
100
AcDbEntity
  8
0
 62
3
100
AcDbPoint
 10
194.3066666666667
 20
-120.125
 30
0.0
  0
CIRCLE
  5
8D
330
17
100
AcDbEntity
  8
0
 62
3
100
AcDbCircle
 10
194.3066666666667
 20
-120.125
 30
0.0
 40
0.5
  0
POINT
  5
8E
330
17
100
AcDbEntity
  8
0
 62
3
100
AcDbPoint
 10
193.6816666666667
 20
-125.9375
 30
0.0
  0
CIRCLE
  5
8F
330
17
100
AcDbEntity
  8
0
 62
3
100
AcDbCircle
 10
193.6816666666667
 20
-125.9375
 30
0.0
 40
0.5
  0
POINT
  5
90
330
17
100
AcDbEntity
  8
0
 62
3
100
AcDbPoint
 10
193.0566666666667
 20
-131.75
 30
0.0
  0
CIRCLE
  5
91
330
17
100
AcDbEntity
  8
0
 62
3
100
AcDbCircle
 10
193.0566666666667
 20
-131.75
 30
0.0
 40
0.5
  0
POINT
  5
92
330
17
100
AcDbEntity
  8
0
 62
3
100
AcDbPoint
 10
192.50309523809528
 20
-133.23214285714286
 30
0.0
  0
CIRCLE
  5
93
330
17
100
AcDbEntity
  8
0
 62
3
100
AcDbCircle
 10
192.50309523809528
 20
-133.23214285714286
 30
0.0
 40
0.5
  0
POINT
  5
94
330
17
100
AcDbEntity
  8
0
 62
3
100
AcDbPoint
 10
191.94952380952384
 20
-134.71428571428572
 30
0.0
  0
CIRCLE
  5
95
330
17
100
AcDbEntity
  8
0
 62
3
100
AcDbCircle
 10
191.94952380952384
 20
-134.71428571428572
 30
0.0
 40
0.5
  0
POINT
  5
96
330
17
100
AcDbEntity
  8
0
 62
3
100
AcDbPoint
 10
191.37809523809528
 20
-137.21428571428572
 30
0.0
  0
CIRCLE
  5
97
330
17
100
AcDbEntity
  8
0
 62
3
100
AcDbCircle
 10
191.37809523809528
 20
-137.21428571428572
 30
0.0
 40
0.5
  0
POINT
  5
98
330
17
100
AcDbEntity
  8
0
 62
3
100
AcDbPoint
 10
190.8066666666667
 20
-139.71428571428572
 30
0.0
  0
CIRCLE
  5
99
330
17
100
AcDbEntity
  8
0
 62
3
100
AcDbCircle
 10
190.8066666666667
 20
-139.71428571428572
 30
0.0
 40
0.5
  0
POINT
  5
9A
330
17
100
AcDbEntity
  8
0
 62
3
100
AcDbPoint
 10
190.7441666666667
 20
-142.79464285714286
 30
0.0
  0
CIRCLE
  5
9B
330
17
100
AcDbEntity
  8
0
 62
3
100
AcDbCircle
 10
190.7441666666667
 20
-142.79464285714286
 30
0.0
 40
0.5
  0
POINT
  5
9C
330
17
100
AcDbEntity
  8
0
 62
3
100
AcDbPoint
 10
190.6816666666667
 20
-145.875
 30
0.0
  0
CIRCLE
  5
9D
330
17
100
AcDbEntity
  8
0
 62
3
100
AcDbCircle
 10
190.6816666666667
 20
-145.875
 30
0.0
 40
0.5
  0
POINT
  5
9E
330
17
100
AcDbEntity
  8
0
 62
3
100
AcDbPoint
 10
190.2441666666667
 20
-148.02083333333331
 30
0.0
  0
CIRCLE
  5
9F
330
17
100
AcDbEntity
  8
0
 62
3
100
AcDbCircle
 10
190.2441666666667
 20
-148.02083333333331
 30
0.0
 40
0.5
  0
POINT
  5
A0
330
17
100
AcDbEntity
  8
0
 62
3
100
AcDbPoint
 10
189.8066666666667
 20
-150.16666666666666
 30
0.0
  0
CIRCLE
  5
A1
330
17
100
AcDbEntity
  8
0
 62
3
100
AcDbCircle
 10
189.8066666666667
 20
-150.16666666666666
 30
0.0
 40
0.5
  0
POINT
  5
A2
330
17
100
AcDbEntity
  8
0
 62
3
100
AcDbPoint
 10
189.10666666666668
 20
-153.98333333333335
 30
0.0
  0
CIRCLE
  5
A3
330
17
100
AcDbEntity
  8
0
 62
3
100
AcDbCircle
 10
189.10666666666668
 20
-153.98333333333335
 30
0.0
 40
0.5
  0
POINT
  5
A4
330
17
100
AcDbEntity
  8
0
 62
3
100
AcDbPoint
 10
188.4066666666667
 20
-157.8
 30
0.0
  0
CIRCLE
  5
A5
330
17
100
AcDbEntity
  8
0
 62
3
100
AcDbCircle
 10
188.4066666666667
 20
-157.8
 30
0.0
 40
0.5
  0
POINT
  5
A6
330
17
100
AcDbEntity
  8
0
 62
3
100
AcDbPoint
 10
197.85666666666668
 20
-157.4
 30
0.0
  0
CIRCLE
  5
A7
330
17
100
AcDbEntity
  8
0
 62
3
100
AcDbCircle
 10
197.85666666666668
 20
-157.4
 30
0.0
 40
0.5
  0
POINT
  5
A8
330
17
100
AcDbEntity
  8
0
 62
3
100
AcDbPoint
 10
207.3066666666667
 20
-157.0
 30
0.0
  0
CIRCLE
  5
A9
330
17
100
AcDbEntity
  8
0
 62
3
100
AcDbCircle
 10
207.3066666666667
 20
-157.0
 30
0.0
 40
0.5
  0
POINT
  5
AA
330
17
100
AcDbEntity
  8
0
 62
3
100
AcDbPoint
 10
208.8066666666667
 20
-156.5
 30
0.0
  0
CIRCLE
  5
AB
330
17
100
AcDbEntity
  8
0
 62
3
100
AcDbCircle
 10
208.8066666666667
 20
-156.5
 30
0.0
 40
0.5
  0
POINT
  5
AC
330
17
100
AcDbEntity
  8
0
 62
3
100
AcDbPoint
 10
210.3066666666667
 20
-156.0
 30
0.0
  0
CIRCLE
  5
AD
330
17
100
AcDbEntity
  8
0
 62
3
100
AcDbCircle
 10
210.3066666666667
 20
-156.0
 30
0.0
 40
0.5
  0
POINT
  5
AE
330
17
100
AcDbEntity
  8
0
 62
3
100
AcDbPoint
 10
215.39000000000004
 20
-155.16666666666669
 30
0.0
  0
CIRCLE
  5
AF
330
17
100
AcDbEntity
  8
0
 62
3
100
AcDbCircle
 10
215.39000000000004
 20
-155.16666666666669
 30
0.0
 40
0.5
  0
POINT
  5
B0
330
17
100
AcDbEntity
  8
0
 62
3
100
AcDbPoint
 10
220.47333333333336
 20
-154.33333333333334
 30
0.0
  0
CIRCLE
  5
B1
330
17
100
AcDbEntity
  8
0
 62
3
100
AcDbCircle
 10
220.47333333333336
 20
-154.33333333333334
 30
0.0
 40
0.5
  0
POINT
  5
B2
330
17
100
AcDbEntity
  8
0
 62
3
100
AcDbPoint
 10
221.3066666666667
 20
-154.0
 30
0.0
  0
CIRCLE
  5
B3
330
17
100
AcDbEntity
  8
0
 62
3
100
AcDbCircle
 10
221.3066666666667
 20
-154.0
 30
0.0
 40
0.5
  0
POINT
  5
B4
330
17
100
AcDbEntity
  8
0
 62
3
100
AcDbPoint
 10
222.14000000000004
 20
-153.66666666666666
 30
0.0
  0
CIRCLE
  5
B5
330
17
100
AcDbEntity
  8
0
 62
3
100
AcDbCircle
 10
222.14000000000004
 20
-153.66666666666666
 30
0.0
 40
0.5
  0
POINT
  5
B6
330
17
100
AcDbEntity
  8
0
 62
3
100
AcDbPoint
 10
227.34833333333336
 20
-153.20833333333331
 30
0.0
  0
CIRCLE
  5
B7
330
17
100
AcDbEntity
  8
0
 62
3
100
AcDbCircle
 10
227.34833333333336
 20
-153.20833333333331
 30
0.0
 40
0.5
  0
POINT
  5
B8
330
17
100
AcDbEntity
  8
0
 62
3
100
AcDbPoint
 10
232.5566666666667
 20
-152.75
 30
0.0
  0
CIRCLE
  5
B9
330
17
100
AcDbEntity
  8
0
 62
3
100
AcDbCircle
 10
232.5566666666667
 20
-152.75
 30
0.0
 40
0.5
  0
POINT
  5
BA
330
17
100
AcDbEntity
  8
0
 62
3
100
AcDbPoint
 10
233.38166666666672
 20
-152.075
 30
0.0
  0
CIRCLE
  5
BB
330
17
100
AcDbEntity
  8
0
 62
3
100
AcDbCircle
 10
233.38166666666672
 20
-152.075
 30
0.0
 40
0.5
  0
POINT
  5
BC
330
17
100
AcDbEntity
  8
0
 62
3
100
AcDbPoint
 10
234.2066666666667
 20
-151.4
 30
0.0
  0
CIRCLE
  5
BD
330
17
100
AcDbEntity
  8
0
 62
3
100
AcDbCircle
 10
234.2066666666667
 20
-151.4
 30
0.0
 40
0.5
  0
POINT
  5
BE
330
17
100
AcDbEntity
  8
0
 62
3
100
AcDbPoint
 10
235.25666666666672
 20
-148.95
 30
0.0
  0
CIRCLE
  5
BF
330
17
100
AcDbEntity
  8
0
 62
3
100
AcDbCircle
 10
235.25666666666672
 20
-148.95
 30
0.0
 40
0.5
  0
POINT
  5
C0
330
17
100
AcDbEntity
  8
0
 62
3
100
AcDbPoint
 10
236.3066666666667
 20
-146.5
 30
0.0
  0
CIRCLE
  5
C1
330
17
100
AcDbEntity
  8
0
 62
3
100
AcDbCircle
 10
236.3066666666667
 20
-146.5
 30
0.0
 40
0.5
  0
POINT
  5
C2
330
17
100
AcDbEntity
  8
0
 62
3
100
AcDbPoint
 10
237.3066666666667
 20
-139.25
 30
0.0
  0
CIRCLE
  5
C3
330
17
100
AcDbEntity
  8
0
 62
3
100
AcDbCircle
 10
237.3066666666667
 20
-139.25
 30
0.0
 40
0.5
  0
POINT
  5
C4
330
17
100
AcDbEntity
  8
0
 62
3
100
AcDbPoint
 10
238.3066666666667
 20
-132.0
 30
0.0
  0
CIRCLE
  5
C5
330
17
100
AcDbEntity
  8
0
 62
3
100
AcDbCircle
 10
238.3066666666667
 20
-132.0
 30
0.0
 40
0.5
  0
POINT
  5
C6
330
17
100
AcDbEntity
  8
0
 62
3
100
AcDbPoint
 10
244.8066666666667
 20
-131.25
 30
0.0
  0
CIRCLE
  5
C7
330
17
100
AcDbEntity
  8
0
 62
3
100
AcDbCircle
 10
244.8066666666667
 20
-131.25
 30
0.0
 40
0.5
  0
POINT
  5
C8
330
17
100
AcDbEntity
  8
0
 62
3
100
AcDbPoint
 10
251.3066666666667
 20
-130.5
 30
0.0
  0
CIRCLE
  5
C9
330
17
100
AcDbEntity
  8
0
 62
3
100
AcDbCircle
 10
251.3066666666667
 20
-130.5
 30
0.0
 40
0.5
  0
POINT
  5
CA
330
17
100
AcDbEntity
  8
0
 62
3
100
AcDbPoint
 10
254.8066666666667
 20
-130.0
 30
0.0
  0
CIRCLE
  5
CB
330
17
100
AcDbEntity
  8
0
 62
3
100
AcDbCircle
 10
254.8066666666667
 20
-130.0
 30
0.0
 40
0.5
  0
POINT
  5
CC
330
17
100
AcDbEntity
  8
0
 62
3
100
AcDbPoint
 10
258.30666666666673
 20
-129.5
 30
0.0
  0
CIRCLE
  5
CD
330
17
100
AcDbEntity
  8
0
 62
3
100
AcDbCircle
 10
258.30666666666673
 20
-129.5
 30
0.0
 40
0.5
  0
POINT
  5
CE
330
17
100
AcDbEntity
  8
0
 62
3
100
AcDbPoint
 10
264.30666666666673
 20
-129.5
 30
0.0
  0
CIRCLE
  5
CF
330
17
100
AcDbEntity
  8
0
 62
3
100
AcDbCircle
 10
264.30666666666673
 20
-129.5
 30
0.0
 40
0.5
  0
POINT
  5
D0
330
17
100
AcDbEntity
  8
0
 62
3
100
AcDbPoint
 10
270.30666666666673
 20
-129.5
 30
0.0
  0
CIRCLE
  5
D1
330
17
100
AcDbEntity
  8
0
 62
3
100
AcDbCircle
 10
270.30666666666673
 20
-129.5
 30
0.0
 40
0.5
  0
POINT
  5
D2
330
17
100
AcDbEntity
  8
0
 62
3
100
AcDbPoint
 10
276.55666666666673
 20
-129.55
 30
0.0
  0
CIRCLE
  5
D3
330
17
100
AcDbEntity
  8
0
 62
3
100
AcDbCircle
 10
276.55666666666673
 20
-129.55
 30
0.0
 40
0.5
  0
POINT
  5
D4
330
17
100
AcDbEntity
  8
0
 62
3
100
AcDbPoint
 10
282.80666666666673
 20
-129.6
 30
0.0
  0
CIRCLE
  5
D5
330
17
100
AcDbEntity
  8
0
 62
3
100
AcDbCircle
 10
282.80666666666673
 20
-129.6
 30
0.0
 40
0.5
  0
POINT
  5
D6
330
17
100
AcDbEntity
  8
0
 62
3
100
AcDbPoint
 10
283.66380952380956
 20
-130.37142857142857
 30
0.0
  0
CIRCLE
  5
D7
330
17
100
AcDbEntity
  8
0
 62
3
100
AcDbCircle
 10
283.66380952380956
 20
-130.37142857142857
 30
0.0
 40
0.5
  0
POINT
  5
D8
330
17
100
AcDbEntity
  8
0
 62
3
100
AcDbPoint
 10
284.5209523809524
 20
-131.14285714285714
 30
0.0
  0
CIRCLE
  5
D9
330
17
100
AcDbEntity
  8
0
 62
3
100
AcDbCircle
 10
284.5209523809524
 20
-131.14285714285714
 30
0.0
 40
0.5
  0
POINT
  5
DA
330
17
100
AcDbEntity
  8
0
 62
3
100
AcDbPoint
 10
285.9971428571429
 20
-136.57142857142856
 30
0.0
  0
CIRCLE
  5
DB
330
17
100
AcDbEntity
  8
0
 62
3
100
AcDbCircle
 10
285.9971428571429
 20
-136.57142857142856
 30
0.0
 40
0.5
  0
POINT
  5
DC
330
17
100
AcDbEntity
  8
0
 62
3
100
AcDbPoint
 10
287.47333333333336
 20
-142.0
 30
0.0
  0
CIRCLE
  5
DD
330
17
100
AcDbEntity
  8
0
 62
3
100
AcDbCircle
 10
287.47333333333336
 20
-142.0
 30
0.0
 40
0.5
  0
POINT
  5
DE
330
17
100
AcDbEntity
  8
0
 62
3
100
AcDbPoint
 10
289.47333333333336
 20
-142.33333333333331
 30
0.0
  0
CIRCLE
  5
DF
330
17
100
AcDbEntity
  8
0
 62
3
100
AcDbCircle
 10
289.47333333333336
 20
-142.33333333333331
 30
0.0
 40
0.5
  0
POINT
  5
E0
330
17
100
AcDbEntity
  8
0
 62
3
100
AcDbPoint
 10
291.47333333333336
 20
-142.66666666666666
 30
0.0
  0
CIRCLE
  5
E1
330
17
100
AcDbEntity
  8
0
 62
3
100
AcDbCircle
 10
291.47333333333336
 20
-142.66666666666666
 30
0.0
 40
0.5
  0
POINT
  5
E2
330
17
100
AcDbEntity
  8
0
 62
3
100
AcDbPoint
 10
294.47333333333336
 20
-142.16666666666666
 30
0.0
  0
CIRCLE
  5
E3
330
17
100
AcDbEntity
  8
0
 62
3
100
AcDbCircle
 10
294.47333333333336
 20
-142.16666666666666
 30
0.0
 40
0.5
  0
POINT
  5
E4
330
17
100
AcDbEntity
  8
0
 62
3
100
AcDbPoint
 10
297.47333333333336
 20
-141.66666666666666
 30
0.0
  0
CIRCLE
  5
E5
330
17
100
AcDbEntity
  8
0
 62
3
100
AcDbCircle
 10
297.47333333333336
 20
-141.66666666666666
 30
0.0
 40
0.5
  0
POINT
  5
E6
330
17
100
AcDbEntity
  8
0
 62
3
100
AcDbPoint
 10
308.89
 20
-141.58333333333331
 30
0.0
  0
CIRCLE
  5
E7
330
17
100
AcDbEntity
  8
0
 62
3
100
AcDbCircle
 10
308.89
 20
-141.58333333333331
 30
0.0
 40
0.5
  0
POINT
  5
E8
330
17
100
AcDbEntity
  8
0
 62
3
100
AcDbPoint
 10
320.30666666666673
 20
-141.5
 30
0.0
  0
CIRCLE
  5
E9
330
17
100
AcDbEntity
  8
0
 62
3
100
AcDbCircle
 10
320.30666666666673
 20
-141.5
 30
0.0
 40
0.5
  0
POINT
  5
EA
330
17
100
AcDbEntity
  8
0
 62
3
100
AcDbPoint
 10
324.72333333333336
 20
-141.25
 30
0.0
  0
CIRCLE
  5
EB
330
17
100
AcDbEntity
  8
0
 62
3
100
AcDbCircle
 10
324.72333333333336
 20
-141.25
 30
0.0
 40
0.5
  0
POINT
  5
EC
330
17
100
AcDbEntity
  8
0
 62
3
100
AcDbPoint
 10
329.14000000000004
 20
-141.0
 30
0.0
  0
CIRCLE
  5
ED
330
17
100
AcDbEntity
  8
0
 62
3
100
AcDbCircle
 10
329.14000000000004
 20
-141.0
 30
0.0
 40
0.5
  0
POINT
  5
EE
330
17
100
AcDbEntity
  8
0
 62
3
100
AcDbPoint
 10
328.5733333333334
 20
-138.1
 30
0.0
  0
CIRCLE
  5
EF
330
17
100
AcDbEntity
  8
0
 62
3
100
AcDbCircle
 10
328.5733333333334
 20
-138.1
 30
0.0
 40
0.5
  0
POINT
  5
F0
330
17
100
AcDbEntity
  8
0
 62
3
100
AcDbPoint
 10
328.00666666666666
 20
-135.2
 30
0.0
  0
CIRCLE
  5
F1
330
17
100
AcDbEntity
  8
0
 62
3
100
AcDbCircle
 10
328.00666666666666
 20
-135.2
 30
0.0
 40
0.5
  0
POINT
  5
F2
330
17
100
AcDbEntity
  8
0
 62
3
100
AcDbPoint
 10
327.1566666666667
 20
-130.35
 30
0.0
  0
CIRCLE
  5
F3
330
17
100
AcDbEntity
  8
0
 62
3
100
AcDbCircle
 10
327.1566666666667
 20
-130.35
 30
0.0
 40
0.5
  0
POINT
  5
F4
330
17
100
AcDbEntity
  8
0
 62
3
100
AcDbPoint
 10
326.30666666666673
 20
-125.5
 30
0.0
  0
CIRCLE
  5
F5
330
17
100
AcDbEntity
  8
0
 62
3
100
AcDbCircle
 10
326.30666666666673
 20
-125.5
 30
0.0
 40
0.5
  0
POINT
  5
F6
330
17
100
AcDbEntity
  8
0
 62
3
100
AcDbPoint
 10
325.6566666666667
 20
-122.45
 30
0.0
  0
CIRCLE
  5
F7
330
17
100
AcDbEntity
  8
0
 62
3
100
AcDbCircle
 10
325.6566666666667
 20
-122.45
 30
0.0
 40
0.5
  0
POINT
  5
F8
330
17
100
AcDbEntity
  8
0
 62
3
100
AcDbPoint
 10
325.00666666666666
 20
-119.4
 30
0.0
  0
CIRCLE
  5
F9
330
17
100
AcDbEntity
  8
0
 62
3
100
AcDbCircle
 10
325.00666666666666
 20
-119.4
 30
0.0
 40
0.5
  0
POINT
  5
FA
330
17
100
AcDbEntity
  8
0
 62
3
100
AcDbPoint
 10
324.1566666666667
 20
-115.2
 30
0.0
  0
CIRCLE
  5
FB
330
17
100
AcDbEntity
  8
0
 62
3
100
AcDbCircle
 10
324.1566666666667
 20
-115.2
 30
0.0
 40
0.5
  0
POINT
  5
FC
330
17
100
AcDbEntity
  8
0
 62
3
100
AcDbPoint
 10
323.30666666666673
 20
-111.0
 30
0.0
  0
CIRCLE
  5
FD
330
17
100
AcDbEntity
  8
0
 62
3
100
AcDbCircle
 10
323.30666666666673
 20
-111.0
 30
0.0
 40
0.5
  0
POINT
  5
FE
330
17
100
AcDbEntity
  8
0
 62
3
100
AcDbPoint
 10
322.55666666666673
 20
-108.33333333333334
 30
0.0
  0
CIRCLE
  5
FF
330
17
100
AcDbEntity
  8
0
 62
3
100
AcDbCircle
 10
322.55666666666673
 20
-108.33333333333334
 30
0.0
 40
0.5
  0
POINT
  5
100
330
17
100
AcDbEntity
  8
0
 62
3
100
AcDbPoint
 10
321.80666666666673
 20
-105.66666666666667
 30
0.0
  0
CIRCLE
  5
101
330
17
100
AcDbEntity
  8
0
 62
3
100
AcDbCircle
 10
321.80666666666673
 20
-105.66666666666667
 30
0.0
 40
0.5
  0
POINT
  5
102
330
17
100
AcDbEntity
  8
0
 62
3
100
AcDbPoint
 10
321.05666666666673
 20
-103.41666666666667
 30
0.0
  0
CIRCLE
  5
103
330
17
100
AcDbEntity
  8
0
 62
3
100
AcDbCircle
 10
321.05666666666673
 20
-103.41666666666667
 30
0.0
 40
0.5
  0
POINT
  5
104
330
17
100
AcDbEntity
  8
0
 62
3
100
AcDbPoint
 10
320.30666666666673
 20
-101.16666666666667
 30
0.0
  0
CIRCLE
  5
105
330
17
100
AcDbEntity
  8
0
 62
3
100
AcDbCircle
 10
320.30666666666673
 20
-101.16666666666667
 30
0.0
 40
0.5
  0
POINT
  5
106
330
17
100
AcDbEntity
  8
0
 62
3
100
AcDbPoint
 10
319.55666666666673
 20
-98.83333333333334
 30
0.0
  0
CIRCLE
  5
107
330
17
100
AcDbEntity
  8
0
 62
3
100
AcDbCircle
 10
319.55666666666673
 20
-98.83333333333334
 30
0.0
 40
0.5
  0
POINT
  5
108
330
17
100
AcDbEntity
  8
0
 62
3
100
AcDbPoint
 10
318.80666666666673
 20
-96.5
 30
0.0
  0
CIRCLE
  5
109
330
17
100
AcDbEntity
  8
0
 62
3
100
AcDbCircle
 10
318.80666666666673
 20
-96.5
 30
0.0
 40
0.5
  0
POINT
  5
10A
330
17
100
AcDbEntity
  8
0
 62
3
100
AcDbPoint
 10
318.14
 20
-94.25
 30
0.0
  0
CIRCLE
  5
10B
330
17
100
AcDbEntity
  8
0
 62
3
100
AcDbCircle
 10
318.14
 20
-94.25
 30
0.0
 40
0.5
  0
POINT
  5
10C
330
17
100
AcDbEntity
  8
0
 62
3
100
AcDbPoint
 10
317.47333333333336
 20
-92.0
 30
0.0
  0
CIRCLE
  5
10D
330
17
100
AcDbEntity
  8
0
 62
3
100
AcDbCircle
 10
317.47333333333336
 20
-92.0
 30
0.0
 40
0.5
  0
POINT
  5
10E
330
17
100
AcDbEntity
  8
0
 62
3
100
AcDbPoint
 10
316.74
 20
-88.2
 30
0.0
  0
CIRCLE
  5
10F
330
17
100
AcDbEntity
  8
0
 62
3
100
AcDbCircle
 10
316.74
 20
-88.2
 30
0.0
 40
0.5
  0
POINT
  5
110
330
17
100
AcDbEntity
  8
0
 62
3
100
AcDbPoint
 10
316.00666666666666
 20
-84.4
 30
0.0
  0
CIRCLE
  5
111
330
17
100
AcDbEntity
  8
0
 62
3
100
AcDbCircle
 10
316.00666666666666
 20
-84.4
 30
0.0
 40
0.5
  0
POINT
  5
112
330
17
100
AcDbEntity
  8
0
 62
3
100
AcDbPoint
 10
315.30666666666673
 20
-81.5
 30
0.0
  0
CIRCLE
  5
113
330
17
100
AcDbEntity
  8
0
 62
3
100
AcDbCircle
 10
315.30666666666673
 20
-81.5
 30
0.0
 40
0.5
  0
POINT
  5
114
330
17
100
AcDbEntity
  8
0
 62
3
100
AcDbPoint
 10
314.6066666666667
 20
-78.6
 30
0.0
  0
CIRCLE
  5
115
330
17
100
AcDbEntity
  8
0
 62
3
100
AcDbCircle
 10
314.6066666666667
 20
-78.6
 30
0.0
 40
0.5
  0
POINT
  5
116
330
17
100
AcDbEntity
  8
0
 62
3
100
AcDbPoint
 10
313.50666666666666
 20
-75.69999999999999
 30
0.0
  0
CIRCLE
  5
117
330
17
100
AcDbEntity
  8
0
 62
3
100
AcDbCircle
 10
313.50666666666666
 20
-75.69999999999999
 30
0.0
 40
0.5
  0
POINT
  5
118
330
17
100
AcDbEntity
  8
0
 62
3
100
AcDbPoint
 10
312.4066666666667
 20
-72.8
 30
0.0
  0
CIRCLE
  5
119
330
17
100
AcDbEntity
  8
0
 62
3
100
AcDbCircle
 10
312.4066666666667
 20
-72.8
 30
0.0
 40
0.5
  0
POINT
  5
11A
330
17
100
AcDbEntity
  8
0
 62
3
100
AcDbPoint
 10
311.30666666666673
 20
-69.8
 30
0.0
  0
CIRCLE
  5
11B
330
17
100
AcDbEntity
  8
0
 62
3
100
AcDbCircle
 10
311.30666666666673
 20
-69.8
 30
0.0
 40
0.5
  0
POINT
  5
11C
330
17
100
AcDbEntity
  8
0
 62
3
100
AcDbPoint
 10
310.2066666666667
 20
-66.8
 30
0.0
  0
CIRCLE
  5
11D
330
17
100
AcDbEntity
  8
0
 62
3
100
AcDbCircle
 10
310.2066666666667
 20
-66.8
 30
0.0
 40
0.5
  0
POINT
  5
11E
330
17
100
AcDbEntity
  8
0
 62
3
100
AcDbPoint
 10
308.86380952380955
 20
-63.971428571428575
 30
0.0
  0
CIRCLE
  5
11F
330
17
100
AcDbEntity
  8
0
 62
3
100
AcDbCircle
 10
308.86380952380955
 20
-63.971428571428575
 30
0.0
 40
0.5
  0
POINT
  5
120
330
17
100
AcDbEntity
  8
0
 62
3
100
AcDbPoint
 10
307.5209523809524
 20
-61.142857142857146
 30
0.0
  0
CIRCLE
  5
121
330
17
100
AcDbEntity
  8
0
 62
3
100
AcDbCircle
 10
307.5209523809524
 20
-61.142857142857146
 30
0.0
 40
0.5
  0
POINT
  5
122
330
17
100
AcDbEntity
  8
0
 62
3
100
AcDbPoint
 10
306.80666666666673
 20
-59.5
 30
0.0
  0
CIRCLE
  5
123
330
17
100
AcDbEntity
  8
0
 62
3
100
AcDbCircle
 10
306.80666666666673
 20
-59.5
 30
0.0
 40
0.5
  0
POINT
  5
124
330
17
100
AcDbEntity
  8
0
 62
3
100
AcDbPoint
 10
306.09238095238095
 20
-57.857142857142854
 30
0.0
  0
CIRCLE
  5
125
330
17
100
AcDbEntity
  8
0
 62
3
100
AcDbCircle
 10
306.09238095238095
 20
-57.857142857142854
 30
0.0
 40
0.5
  0
POINT
  5
126
330
17
100
AcDbEntity
  8
0
 62
3
100
AcDbPoint
 10
304.61619047619047
 20
-54.845238095238095
 30
0.0
  0
CIRCLE
  5
127
330
17
100
AcDbEntity
  8
0
 62
3
100
AcDbCircle
 10
304.61619047619047
 20
-54.845238095238095
 30
0.0
 40
0.5
  0
POINT
  5
128
330
17
100
AcDbEntity
  8
0
 62
3
100
AcDbPoint
 10
303.14000000000004
 20
-51.833333333333336
 30
0.0
  0
CIRCLE
  5
129
330
17
100
AcDbEntity
  8
0
 62
3
100
AcDbCircle
 10
303.14000000000004
 20
-51.833333333333336
 30
0.0
 40
0.5
  0
POINT
  5
12A
330
17
100
AcDbEntity
  8
0
 62
3
100
AcDbPoint
 10
302.11619047619047
 20
-49.48809523809524
 30
0.0
  0
CIRCLE
  5
12B
330
17
100
AcDbEntity
  8
0
 62
3
100
AcDbCircle
 10
302.11619047619047
 20
-49.48809523809524
 30
0.0
 40
0.5
  0
POINT
  5
12C
330
17
100
AcDbEntity
  8
0
 62
3
100
AcDbPoint
 10
301.09238095238095
 20
-47.142857142857146
 30
0.0
  0
CIRCLE
  5
12D
330
17
100
AcDbEntity
  8
0
 62
3
100
AcDbCircle
 10
301.09238095238095
 20
-47.142857142857146
 30
0.0
 40
0.5
  0
POINT
  5
12E
330
17
100
AcDbEntity
  8
0
 62
3
100
AcDbPoint
 10
300.11619047619047
 20
-44.73809523809524
 30
0.0
  0
CIRCLE
  5
12F
330
17
100
AcDbEntity
  8
0
 62
3
100
AcDbCircle
 10
300.11619047619047
 20
-44.73809523809524
 30
0.0
 40
0.5
  0
POINT
  5
130
330
17
100
AcDbEntity
  8
0
 62
3
100
AcDbPoint
 10
299.14000000000004
 20
-42.333333333333336
 30
0.0
  0
CIRCLE
  5
131
330
17
100
AcDbEntity
  8
0
 62
3
100
AcDbCircle
 10
299.14000000000004
 20
-42.333333333333336
 30
0.0
 40
0.5
  0
POINT
  5
132
330
17
100
AcDbEntity
  8
0
 62
3
100
AcDbPoint
 10
297.97333333333336
 20
-39.36666666666667
 30
0.0
  0
CIRCLE
  5
133
330
17
100
AcDbEntity
  8
0
 62
3
100
AcDbCircle
 10
297.97333333333336
 20
-39.36666666666667
 30
0.0
 40
0.5
  0
POINT
  5
134
330
17
100
AcDbEntity
  8
0
 62
3
100
AcDbPoint
 10
296.80666666666673
 20
-36.4
 30
0.0
  0
CIRCLE
  5
135
330
17
100
AcDbEntity
  8
0
 62
3
100
AcDbCircle
 10
296.80666666666673
 20
-36.4
 30
0.0
 40
0.5
  0
POINT
  5
136
330
17
100
AcDbEntity
  8
0
 62
3
100
AcDbPoint
 10
295.6066666666667
 20
-34.0
 30
0.0
  0
CIRCLE
  5
137
330
17
100
AcDbEntity
  8
0
 62
3
100
AcDbCircle
 10
295.6066666666667
 20
-34.0
 30
0.0
 40
0.5
  0
POINT
  5
138
330
17
100
AcDbEntity
  8
0
 62
3
100
AcDbPoint
 10
294.4066666666667
 20
-31.6
 30
0.0
  0
CIRCLE
  5
139
330
17
100
AcDbEntity
  8
0
 62
3
100
AcDbCircle
 10
294.4066666666667
 20
-31.6
 30
0.0
 40
0.5
  0
POINT
  5
13A
330
17
100
AcDbEntity
  8
0
 62
3
100
AcDbPoint
 10
293.1066666666667
 20
-27.8
 30
0.0
  0
CIRCLE
  5
13B
330
17
100
AcDbEntity
  8
0
 62
3
100
AcDbCircle
 10
293.1066666666667
 20
-27.8
 30
0.0
 40
0.5
  0
POINT
  5
13C
330
17
100
AcDbEntity
  8
0
 62
3
100
AcDbPoint
 10
291.80666666666673
 20
-24.0
 30
0.0
  0
CIRCLE
  5
13D
330
17
100
AcDbEntity
  8
0
 62
3
100
AcDbCircle
 10
291.80666666666673
 20
-24.0
 30
0.0
 40
0.5
  0
POINT
  5
13E
330
17
100
AcDbEntity
  8
0
 62
3
100
AcDbPoint
 10
286.55666666666673
 20
-19.583333333333332
 30
0.0
  0
CIRCLE
  5
13F
330
17
100
AcDbEntity
  8
0
 62
3
100
AcDbCircle
 10
286.55666666666673
 20
-19.583333333333332
 30
0.0
 40
0.5
  0
POINT
  5
140
330
17
100
AcDbEntity
  8
0
 62
3
100
AcDbPoint
 10
285.30666666666673
 20
-20.833333333333332
 30
0.0
  0
CIRCLE
  5
141
330
17
100
AcDbEntity
  8
0
 62
3
100
AcDbCircle
 10
285.30666666666673
 20
-20.833333333333332
 30
0.0
 40
0.5
  0
POINT
  5
142
330
17
100
AcDbEntity
  8
0
 62
3
100
AcDbPoint
 10
284.05666666666673
 20
-23.416666666666664
 30
0.0
  0
CIRCLE
  5
143
330
17
100
AcDbEntity
  8
0
 62
3
100
AcDbCircle
 10
284.05666666666673
 20
-23.416666666666664
 30
0.0
 40
0.5
  0
POINT
  5
144
330
17
100
AcDbEntity
  8
0
 62
3
100
AcDbPoint
 10
282.80666666666673
 20
-26.0
 30
0.0
  0
CIRCLE
  5
145
330
17
100
AcDbEntity
  8
0
 62
3
100
AcDbCircle
 10
282.80666666666673
 20
-26.0
 30
0.0
 40
0.5
  0
POINT
  5
146
330
17
100
AcDbEntity
  8
0
 62
3
100
AcDbPoint
 10
281.47333333333336
 20
-28.75
 30
0.0
  0
CIRCLE
  5
147
330
17
100
AcDbEntity
  8
0
 62
3
100
AcDbCircle
 10
281.47333333333336
 20
-28.75
 30
0.0
 40
0.5
  0
POINT
  5
148
330
17
100
AcDbEntity
  8
0
 62
3
100
AcDbPoint
 10
280.14000000000004
 20
-31.5
 30
0.0
  0
CIRCLE
  5
149
330
17
100
AcDbEntity
  8
0
 62
3
100
AcDbCircle
 10
280.14000000000004
 20
-31.5
 30
0.0
 40
0.5
  0
POINT
  5
14A
330
17
100
AcDbEntity
  8
0
 62
3
100
AcDbPoint
 10
278.97333333333336
 20
-33.91666666666667
 30
0.0
  0
CIRCLE
  5
14B
330
17
100
AcDbEntity
  8
0
 62
3
100
AcDbCircle
 10
278.97333333333336
 20
-33.91666666666667
 30
0.0
 40
0.5
  0
POINT
  5
14C
330
17
100
AcDbEntity
  8
0
 62
3
100
AcDbPoint
 10
277.80666666666673
 20
-36.333333333333336
 30
0.0
  0
CIRCLE
  5
14D
330
17
100
AcDbEntity
  8
0
 62
3
100
AcDbCircle
 10
277.80666666666673
 20
-36.333333333333336
 30
0.0
 40
0.5
  0
POINT
  5
14E
330
17
100
AcDbEntity
  8
0
 62
3
100
AcDbPoint
 10
276.55666666666673
 20
-39.25
 30
0.0
  0
CIRCLE
  5
14F
330
17
100
AcDbEntity
  8
0
 62
3
100
AcDbCircle
 10
276.55666666666673
 20
-39.25
 30
0.0
 40
0.5
  0
POINT
  5
150
330
17
100
AcDbEntity
  8
0
 62
3
100
AcDbPoint
 10
275.30666666666673
 20
-42.166666666666664
 30
0.0
  0
CIRCLE
  5
151
330
17
100
AcDbEntity
  8
0
 62
3
100
AcDbCircle
 10
275.30666666666673
 20
-42.166666666666664
 30
0.0
 40
0.5
  0
POINT
  5
152
330
17
100
AcDbEntity
  8
0
 62
3
100
AcDbPoint
 10
274.55666666666673
 20
-44.166666666666664
 30
0.0
  0
CIRCLE
  5
153
330
17
100
AcDbEntity
  8
0
 62
3
100
AcDbCircle
 10
274.55666666666673
 20
-44.166666666666664
 30
0.0
 40
0.5
  0
POINT
  5
154
330
17
100
AcDbEntity
  8
0
 62
3
100
AcDbPoint
 10
273.80666666666673
 20
-46.166666666666664
 30
0.0
  0
CIRCLE
  5
155
330
17
100
AcDbEntity
  8
0
 62
3
100
AcDbCircle
 10
273.80666666666673
 20
-46.166666666666664
 30
0.0
 40
0.5
  0
POINT
  5
156
330
17
100
AcDbEntity
  8
0
 62
3
100
AcDbPoint
 10
272.47333333333336
 20
-49.33333333333333
 30
0.0
  0
CIRCLE
  5
157
330
17
100
AcDbEntity
  8
0
 62
3
100
AcDbCircle
 10
272.47333333333336
 20
-49.33333333333333
 30
0.0
 40
0.5
  0
POINT
  5
158
330
17
100
AcDbEntity
  8
0
 62
3
100
AcDbPoint
 10
271.14000000000004
 20
-52.5
 30
0.0
  0
CIRCLE
  5
159
330
17
100
AcDbEntity
  8
0
 62
3
100
AcDbCircle
 10
271.14000000000004
 20
-52.5
 30
0.0
 40
0.5
  0
POINT
  5
15A
330
17
100
AcDbEntity
  8
0
 62
3
100
AcDbPoint
 10
269.97333333333336
 20
-54.91666666666667
 30
0.0
  0
CIRCLE
  5
15B
330
17
100
AcDbEntity
  8
0
 62
3
100
AcDbCircle
 10
269.97333333333336
 20
-54.91666666666667
 30
0.0
 40
0.5
  0
POINT
  5
15C
330
17
100
AcDbEntity
  8
0
 62
3
100
AcDbPoint
 10
268.80666666666673
 20
-57.333333333333336
 30
0.0
  0
CIRCLE
  5
15D
330
17
100
AcDbEntity
  8
0
 62
3
100
AcDbCircle
 10
268.80666666666673
 20
-57.333333333333336
 30
0.0
 40
0.5
  0
POINT
  5
15E
330
17
100
AcDbEntity
  8
0
 62
3
100
AcDbPoint
 10
267.30666666666673
 20
-60.5
 30
0.0
  0
CIRCLE
  5
15F
330
17
100
AcDbEntity
  8
0
 62
3
100
AcDbCircle
 10
267.30666666666673
 20
-60.5
 30
0.0
 40
0.5
  0
POINT
  5
160
330
17
100
AcDbEntity
  8
0
 62
3
100
AcDbPoint
 10
265.80666666666673
 20
-63.666666666666664
 30
0.0
  0
CIRCLE
  5
161
330
17
100
AcDbEntity
  8
0
 62
3
100
AcDbCircle
 10
265.80666666666673
 20
-63.666666666666664
 30
0.0
 40
0.5
  0
POINT
  5
162
330
17
100
AcDbEntity
  8
0
 62
3
100
AcDbPoint
 10
264.66380952380956
 20
-66.11904761904762
 30
0.0
  0
CIRCLE
  5
163
330
17
100
AcDbEntity
  8
0
 62
3
100
AcDbCircle
 10
264.66380952380956
 20
-66.11904761904762
 30
0.0
 40
0.5
  0
POINT
  5
164
330
17
100
AcDbEntity
  8
0
 62
3
100
AcDbPoint
 10
263.5209523809524
 20
-68.57142857142857
 30
0.0
  0
CIRCLE
  5
165
330
17
100
AcDbEntity
  8
0
 62
3
100
AcDbCircle
 10
263.5209523809524
 20
-68.57142857142857
 30
0.0
 40
0.5
  0
POINT
  5
166
330
17
100
AcDbEntity
  8
0
 62
3
100
AcDbPoint
 10
262.66380952380956
 20
-70.86904761904762
 30
0.0
  0
CIRCLE
  5
167
330
17
100
AcDbEntity
  8
0
 62
3
100
AcDbCircle
 10
262.66380952380956
 20
-70.86904761904762
 30
0.0
 40
0.5
  0
POINT
  5
168
330
17
100
AcDbEntity
  8
0
 62
3
100
AcDbPoint
 10
261.80666666666673
 20
-73.16666666666667
 30
0.0
  0
CIRCLE
  5
169
330
17
100
AcDbEntity
  8
0
 62
3
100
AcDbCircle
 10
261.80666666666673
 20
-73.16666666666667
 30
0.0
 40
0.5
  0
POINT
  5
16A
330
17
100
AcDbEntity
  8
0
 62
3
100
AcDbPoint
 10
260.6066666666667
 20
-76.18333333333334
 30
0.0
  0
CIRCLE
  5
16B
330
17
100
AcDbEntity
  8
0
 62
3
100
AcDbCircle
 10
260.6066666666667
 20
-76.18333333333334
 30
0.0
 40
0.5
  0
POINT
  5
16C
330
17
100
AcDbEntity
  8
0
 62
3
100
AcDbPoint
 10
259.4066666666667
 20
-79.2
 30
0.0
  0
CIRCLE
  5
16D
330
17
100
AcDbEntity
  8
0
 62
3
100
AcDbCircle
 10
259.4066666666667
 20
-79.2
 30
0.0
 40
0.5
  0
POINT
  5
16E
330
17
100
AcDbEntity
  8
0
 62
3
100
AcDbPoint
 10
258.3566666666667
 20
-82.51666666666667
 30
0.0
  0
CIRCLE
  5
16F
330
17
100
AcDbEntity
  8
0
 62
3
100
AcDbCircle
 10
258.3566666666667
 20
-82.51666666666667
 30
0.0
 40
0.5
  0
POINT
  5
170
330
17
100
AcDbEntity
  8
0
 62
3
100
AcDbPoint
 10
257.30666666666673
 20
-85.83333333333333
 30
0.0
  0
CIRCLE
  5
171
330
17
100
AcDbEntity
  8
0
 62
3
100
AcDbCircle
 10
257.30666666666673
 20
-85.83333333333333
 30
0.0
 40
0.5
  0
POINT
  5
172
330
17
100
AcDbEntity
  8
0
 62
3
100
AcDbPoint
 10
255.97333333333336
 20
-89.83333333333333
 30
0.0
  0
CIRCLE
  5
173
330
17
100
AcDbEntity
  8
0
 62
3
100
AcDbCircle
 10
255.97333333333336
 20
-89.83333333333333
 30
0.0
 40
0.5
  0
POINT
  5
174
330
17
100
AcDbEntity
  8
0
 62
3
100
AcDbPoint
 10
254.64000000000004
 20
-93.83333333333333
 30
0.0
  0
CIRCLE
  5
175
330
17
100
AcDbEntity
  8
0
 62
3
100
AcDbCircle
 10
254.64000000000004
 20
-93.83333333333333
 30
0.0
 40
0.5
  0
POINT
  5
176
330
17
100
AcDbEntity
  8
0
 62
3
100
AcDbPoint
 10
253.34833333333336
 20
-94.66666666666666
 30
0.0
  0
CIRCLE
  5
177
330
17
100
AcDbEntity
  8
0
 62
3
100
AcDbCircle
 10
253.34833333333336
 20
-94.66666666666666
 30
0.0
 40
0.5
  0
POINT
  5
178
330
17
100
AcDbEntity
  8
0
 62
3
100
AcDbPoint
 10
252.0566666666667
 20
-95.5
 30
0.0
  0
CIRCLE
  5
179
330
17
100
AcDbEntity
  8
0
 62
3
100
AcDbCircle
 10
252.0566666666667
 20
-95.5
 30
0.0
 40
0.5
  0
POINT
  5
17A
330
17
100
AcDbEntity
  8
0
 62
3
100
AcDbPoint
 10
249.78880952380956
 20
-94.10714285714286
 30
0.0
  0
CIRCLE
  5
17B
330
17
100
AcDbEntity
  8
0
 62
3
100
AcDbCircle
 10
249.78880952380956
 20
-94.10714285714286
 30
0.0
 40
0.5
  0
POINT
  5
17C
330
17
100
AcDbEntity
  8
0
 62
3
100
AcDbPoint
 10
247.5209523809524
 20
-92.71428571428571
 30
0.0
  0
CIRCLE
  5
17D
330
17
100
AcDbEntity
  8
0
 62
3
100
AcDbCircle
 10
247.5209523809524
 20
-92.71428571428571
 30
0.0
 40
0.5
  0
CIRCLE
  5
17E
330
17
100
AcDbEntity
  8
0
 62
1
100
AcDbCircle
 10
92.71428571428571
 20
-92.71428571428571
 30
0.0
 40
2.0
  0
CIRCLE
  5
17F
330
17
100
AcDbEntity
  8
0
 62
3
100
AcDbCircle
 10
91.0
 20
-89.85714285714286
 30
0.0
 40
2.0
  0
CIRCLE
  5
180
330
17
100
AcDbEntity
  8
0
 62
3
100
AcDbCircle
 10
89.28571428571429
 20
-87.0
 30
0.0
 40
2.0
  0
POINT
  5
181
330
17
100
AcDbEntity
  8
0
 62
2
100
AcDbPoint
 10
-176.6133333333334
 20
-16.0
 30
0.0
  0
CIRCLE
  5
182
330
17
100
AcDbEntity
  8
0
 62
5
100
AcDbCircle
 10
-176.6133333333334
 20
-16.0
 30
0.0
 40
0.5
  0
POINT
  5
183
330
17
100
AcDbEntity
  8
0
 62
2
100
AcDbPoint
 10
-176.6133333333334
 20
-17.0
 30
0.0
  0
CIRCLE
  5
184
330
17
100
AcDbEntity
  8
0
 62
5
100
AcDbCircle
 10
-176.6133333333334
 20
-17.0
 30
0.0
 40
0.5
  0
POINT
  5
185
330
17
100
AcDbEntity
  8
0
 62
2
100
AcDbPoint
 10
-178.6133333333334
 20
-19.0
 30
0.0
  0
CIRCLE
  5
186
330
17
100
AcDbEntity
  8
0
 62
5
100
AcDbCircle
 10
-178.6133333333334
 20
-19.0
 30
0.0
 40
0.5
  0
POINT
  5
187
330
17
100
AcDbEntity
  8
0
 62
2
100
AcDbPoint
 10
-178.6133333333334
 20
-20.0
 30
0.0
  0
CIRCLE
  5
188
330
17
100
AcDbEntity
  8
0
 62
5
100
AcDbCircle
 10
-178.6133333333334
 20
-20.0
 30
0.0
 40
0.5
  0
POINT
  5
189
330
17
100
AcDbEntity
  8
0
 62
2
100
AcDbPoint
 10
-179.6133333333334
 20
-21.0
 30
0.0
  0
CIRCLE
  5
18A
330
17
100
AcDbEntity
  8
0
 62
5
100
AcDbCircle
 10
-179.6133333333334
 20
-21.0
 30
0.0
 40
0.5
  0
POINT
  5
18B
330
17
100
AcDbEntity
  8
0
 62
2
100
AcDbPoint
 10
-179.6133333333334
 20
-23.0
 30
0.0
  0
CIRCLE
  5
18C
330
17
100
AcDbEntity
  8
0
 62
5
100
AcDbCircle
 10
-179.6133333333334
 20
-23.0
 30
0.0
 40
0.5
  0
POINT
  5
18D
330
17
100
AcDbEntity
  8
0
 62
2
100
AcDbPoint
 10
-181.6133333333334
 20
-25.0
 30
0.0
  0
CIRCLE
  5
18E
330
17
100
AcDbEntity
  8
0
 62
5
100
AcDbCircle
 10
-181.6133333333334
 20
-25.0
 30
0.0
 40
0.5
  0
POINT
  5
18F
330
17
100
AcDbEntity
  8
0
 62
2
100
AcDbPoint
 10
-181.6133333333334
 20
-26.0
 30
0.0
  0
CIRCLE
  5
190
330
17
100
AcDbEntity
  8
0
 62
5
100
AcDbCircle
 10
-181.6133333333334
 20
-26.0
 30
0.0
 40
0.5
  0
POINT
  5
191
330
17
100
AcDbEntity
  8
0
 62
2
100
AcDbPoint
 10
-182.6133333333334
 20
-27.0
 30
0.0
  0
CIRCLE
  5
192
330
17
100
AcDbEntity
  8
0
 62
5
100
AcDbCircle
 10
-182.6133333333334
 20
-27.0
 30
0.0
 40
0.5
  0
POINT
  5
193
330
17
100
AcDbEntity
  8
0
 62
2
100
AcDbPoint
 10
-182.6133333333334
 20
-29.0
 30
0.0
  0
CIRCLE
  5
194
330
17
100
AcDbEntity
  8
0
 62
5
100
AcDbCircle
 10
-182.6133333333334
 20
-29.0
 30
0.0
 40
0.5
  0
POINT
  5
195
330
17
100
AcDbEntity
  8
0
 62
2
100
AcDbPoint
 10
-184.6133333333334
 20
-31.0
 30
0.0
  0
CIRCLE
  5
196
330
17
100
AcDbEntity
  8
0
 62
5
100
AcDbCircle
 10
-184.6133333333334
 20
-31.0
 30
0.0
 40
0.5
  0
POINT
  5
197
330
17
100
AcDbEntity
  8
0
 62
2
100
AcDbPoint
 10
-184.6133333333334
 20
-33.0
 30
0.0
  0
CIRCLE
  5
198
330
17
100
AcDbEntity
  8
0
 62
5
100
AcDbCircle
 10
-184.6133333333334
 20
-33.0
 30
0.0
 40
0.5
  0
POINT
  5
199
330
17
100
AcDbEntity
  8
0
 62
2
100
AcDbPoint
 10
-185.6133333333334
 20
-34.0
 30
0.0
  0
CIRCLE
  5
19A
330
17
100
AcDbEntity
  8
0
 62
5
100
AcDbCircle
 10
-185.6133333333334
 20
-34.0
 30
0.0
 40
0.5
  0
POINT
  5
19B
330
17
100
AcDbEntity
  8
0
 62
2
100
AcDbPoint
 10
-185.6133333333334
 20
-35.0
 30
0.0
  0
CIRCLE
  5
19C
330
17
100
AcDbEntity
  8
0
 62
5
100
AcDbCircle
 10
-185.6133333333334
 20
-35.0
 30
0.0
 40
0.5
  0
POINT
  5
19D
330
17
100
AcDbEntity
  8
0
 62
2
100
AcDbPoint
 10
-187.6133333333334
 20
-37.0
 30
0.0
  0
CIRCLE
  5
19E
330
17
100
AcDbEntity
  8
0
 62
5
100
AcDbCircle
 10
-187.6133333333334
 20
-37.0
 30
0.0
 40
0.5
  0
POINT
  5
19F
330
17
100
AcDbEntity
  8
0
 62
2
100
AcDbPoint
 10
-187.6133333333334
 20
-39.0
 30
0.0
  0
CIRCLE
  5
1A0
330
17
100
AcDbEntity
  8
0
 62
5
100
AcDbCircle
 10
-187.6133333333334
 20
-39.0
 30
0.0
 40
0.5
  0
POINT
  5
1A1
330
17
100
AcDbEntity
  8
0
 62
2
100
AcDbPoint
 10
-188.6133333333334
 20
-40.0
 30
0.0
  0
CIRCLE
  5
1A2
330
17
100
AcDbEntity
  8
0
 62
5
100
AcDbCircle
 10
-188.6133333333334
 20
-40.0
 30
0.0
 40
0.5
  0
POINT
  5
1A3
330
17
100
AcDbEntity
  8
0
 62
2
100
AcDbPoint
 10
-188.6133333333334
 20
-42.0
 30
0.0
  0
CIRCLE
  5
1A4
330
17
100
AcDbEntity
  8
0
 62
5
100
AcDbCircle
 10
-188.6133333333334
 20
-42.0
 30
0.0
 40
0.5
  0
POINT
  5
1A5
330
17
100
AcDbEntity
  8
0
 62
2
100
AcDbPoint
 10
-189.6133333333334
 20
-43.0
 30
0.0
  0
CIRCLE
  5
1A6
330
17
100
AcDbEntity
  8
0
 62
5
100
AcDbCircle
 10
-189.6133333333334
 20
-43.0
 30
0.0
 40
0.5
  0
POINT
  5
1A7
330
17
100
AcDbEntity
  8
0
 62
2
100
AcDbPoint
 10
-189.6133333333334
 20
-44.0
 30
0.0
  0
CIRCLE
  5
1A8
330
17
100
AcDbEntity
  8
0
 62
5
100
AcDbCircle
 10
-189.6133333333334
 20
-44.0
 30
0.0
 40
0.5
  0
POINT
  5
1A9
330
17
100
AcDbEntity
  8
0
 62
2
100
AcDbPoint
 10
-190.6133333333334
 20
-45.0
 30
0.0
  0
CIRCLE
  5
1AA
330
17
100
AcDbEntity
  8
0
 62
5
100
AcDbCircle
 10
-190.6133333333334
 20
-45.0
 30
0.0
 40
0.5
  0
POINT
  5
1AB
330
17
100
AcDbEntity
  8
0
 62
2
100
AcDbPoint
 10
-190.6133333333334
 20
-47.0
 30
0.0
  0
CIRCLE
  5
1AC
330
17
100
AcDbEntity
  8
0
 62
5
100
AcDbCircle
 10
-190.6133333333334
 20
-47.0
 30
0.0
 40
0.5
  0
POINT
  5
1AD
330
17
100
AcDbEntity
  8
0
 62
2
100
AcDbPoint
 10
-191.6133333333334
 20
-48.0
 30
0.0
  0
CIRCLE
  5
1AE
330
17
100
AcDbEntity
  8
0
 62
5
100
AcDbCircle
 10
-191.6133333333334
 20
-48.0
 30
0.0
 40
0.5
  0
POINT
  5
1AF
330
17
100
AcDbEntity
  8
0
 62
2
100
AcDbPoint
 10
-191.6133333333334
 20
-50.0
 30
0.0
  0
CIRCLE
  5
1B0
330
17
100
AcDbEntity
  8
0
 62
5
100
AcDbCircle
 10
-191.6133333333334
 20
-50.0
 30
0.0
 40
0.5
  0
POINT
  5
1B1
330
17
100
AcDbEntity
  8
0
 62
2
100
AcDbPoint
 10
-193.6133333333334
 20
-52.0
 30
0.0
  0
CIRCLE
  5
1B2
330
17
100
AcDbEntity
  8
0
 62
5
100
AcDbCircle
 10
-193.6133333333334
 20
-52.0
 30
0.0
 40
0.5
  0
POINT
  5
1B3
330
17
100
AcDbEntity
  8
0
 62
2
100
AcDbPoint
 10
-193.6133333333334
 20
-54.0
 30
0.0
  0
CIRCLE
  5
1B4
330
17
100
AcDbEntity
  8
0
 62
5
100
AcDbCircle
 10
-193.6133333333334
 20
-54.0
 30
0.0
 40
0.5
  0
POINT
  5
1B5
330
17
100
AcDbEntity
  8
0
 62
2
100
AcDbPoint
 10
-194.6133333333334
 20
-55.0
 30
0.0
  0
CIRCLE
  5
1B6
330
17
100
AcDbEntity
  8
0
 62
5
100
AcDbCircle
 10
-194.6133333333334
 20
-55.0
 30
0.0
 40
0.5
  0
POINT
  5
1B7
330
17
100
AcDbEntity
  8
0
 62
2
100
AcDbPoint
 10
-194.6133333333334
 20
-56.0
 30
0.0
  0
CIRCLE
  5
1B8
330
17
100
AcDbEntity
  8
0
 62
5
100
AcDbCircle
 10
-194.6133333333334
 20
-56.0
 30
0.0
 40
0.5
  0
POINT
  5
1B9
330
17
100
AcDbEntity
  8
0
 62
2
100
AcDbPoint
 10
-196.6133333333334
 20
-58.0
 30
0.0
  0
CIRCLE
  5
1BA
330
17
100
AcDbEntity
  8
0
 62
5
100
AcDbCircle
 10
-196.6133333333334
 20
-58.0
 30
0.0
 40
0.5
  0
POINT
  5
1BB
330
17
100
AcDbEntity
  8
0
 62
2
100
AcDbPoint
 10
-196.6133333333334
 20
-60.0
 30
0.0
  0
CIRCLE
  5
1BC
330
17
100
AcDbEntity
  8
0
 62
5
100
AcDbCircle
 10
-196.6133333333334
 20
-60.0
 30
0.0
 40
0.5
  0
POINT
  5
1BD
330
17
100
AcDbEntity
  8
0
 62
2
100
AcDbPoint
 10
-197.6133333333334
 20
-61.0
 30
0.0
  0
CIRCLE
  5
1BE
330
17
100
AcDbEntity
  8
0
 62
5
100
AcDbCircle
 10
-197.6133333333334
 20
-61.0
 30
0.0
 40
0.5
  0
POINT
  5
1BF
330
17
100
AcDbEntity
  8
0
 62
2
100
AcDbPoint
 10
-197.6133333333334
 20
-63.0
 30
0.0
  0
CIRCLE
  5
1C0
330
17
100
AcDbEntity
  8
0
 62
5
100
AcDbCircle
 10
-197.6133333333334
 20
-63.0
 30
0.0
 40
0.5
  0
POINT
  5
1C1
330
17
100
AcDbEntity
  8
0
 62
2
100
AcDbPoint
 10
-199.6133333333334
 20
-65.0
 30
0.0
  0
CIRCLE
  5
1C2
330
17
100
AcDbEntity
  8
0
 62
5
100
AcDbCircle
 10
-199.6133333333334
 20
-65.0
 30
0.0
 40
0.5
  0
POINT
  5
1C3
330
17
100
AcDbEntity
  8
0
 62
2
100
AcDbPoint
 10
-199.6133333333334
 20
-66.0
 30
0.0
  0
CIRCLE
  5
1C4
330
17
100
AcDbEntity
  8
0
 62
5
100
AcDbCircle
 10
-199.6133333333334
 20
-66.0
 30
0.0
 40
0.5
  0
POINT
  5
1C5
330
17
100
AcDbEntity
  8
0
 62
2
100
AcDbPoint
 10
-200.6133333333334
 20
-67.0
 30
0.0
  0
CIRCLE
  5
1C6
330
17
100
AcDbEntity
  8
0
 62
5
100
AcDbCircle
 10
-200.6133333333334
 20
-67.0
 30
0.0
 40
0.5
  0
POINT
  5
1C7
330
17
100
AcDbEntity
  8
0
 62
2
100
AcDbPoint
 10
-200.6133333333334
 20
-69.0
 30
0.0
  0
CIRCLE
  5
1C8
330
17
100
AcDbEntity
  8
0
 62
5
100
AcDbCircle
 10
-200.6133333333334
 20
-69.0
 30
0.0
 40
0.5
  0
POINT
  5
1C9
330
17
100
AcDbEntity
  8
0
 62
2
100
AcDbPoint
 10
-201.6133333333334
 20
-70.0
 30
0.0
  0
CIRCLE
  5
1CA
330
17
100
AcDbEntity
  8
0
 62
5
100
AcDbCircle
 10
-201.6133333333334
 20
-70.0
 30
0.0
 40
0.5
  0
POINT
  5
1CB
330
17
100
AcDbEntity
  8
0
 62
2
100
AcDbPoint
 10
-201.6133333333334
 20
-71.0
 30
0.0
  0
CIRCLE
  5
1CC
330
17
100
AcDbEntity
  8
0
 62
5
100
AcDbCircle
 10
-201.6133333333334
 20
-71.0
 30
0.0
 40
0.5
  0
POINT
  5
1CD
330
17
100
AcDbEntity
  8
0
 62
2
100
AcDbPoint
 10
-202.6133333333334
 20
-72.0
 30
0.0
  0
CIRCLE
  5
1CE
330
17
100
AcDbEntity
  8
0
 62
5
100
AcDbCircle
 10
-202.6133333333334
 20
-72.0
 30
0.0
 40
0.5
  0
POINT
  5
1CF
330
17
100
AcDbEntity
  8
0
 62
2
100
AcDbPoint
 10
-202.6133333333334
 20
-74.0
 30
0.0
  0
CIRCLE
  5
1D0
330
17
100
AcDbEntity
  8
0
 62
5
100
AcDbCircle
 10
-202.6133333333334
 20
-74.0
 30
0.0
 40
0.5
  0
POINT
  5
1D1
330
17
100
AcDbEntity
  8
0
 62
2
100
AcDbPoint
 10
-203.6133333333334
 20
-75.0
 30
0.0
  0
CIRCLE
  5
1D2
330
17
100
AcDbEntity
  8
0
 62
5
100
AcDbCircle
 10
-203.6133333333334
 20
-75.0
 30
0.0
 40
0.5
  0
POINT
  5
1D3
330
17
100
AcDbEntity
  8
0
 62
2
100
AcDbPoint
 10
-203.6133333333334
 20
-77.0
 30
0.0
  0
CIRCLE
  5
1D4
330
17
100
AcDbEntity
  8
0
 62
5
100
AcDbCircle
 10
-203.6133333333334
 20
-77.0
 30
0.0
 40
0.5
  0
POINT
  5
1D5
330
17
100
AcDbEntity
  8
0
 62
2
100
AcDbPoint
 10
-205.6133333333334
 20
-79.0
 30
0.0
  0
CIRCLE
  5
1D6
330
17
100
AcDbEntity
  8
0
 62
5
100
AcDbCircle
 10
-205.6133333333334
 20
-79.0
 30
0.0
 40
0.5
  0
POINT
  5
1D7
330
17
100
AcDbEntity
  8
0
 62
2
100
AcDbPoint
 10
-205.6133333333334
 20
-82.0
 30
0.0
  0
CIRCLE
  5
1D8
330
17
100
AcDbEntity
  8
0
 62
5
100
AcDbCircle
 10
-205.6133333333334
 20
-82.0
 30
0.0
 40
0.5
  0
POINT
  5
1D9
330
17
100
AcDbEntity
  8
0
 62
2
100
AcDbPoint
 10
-206.6133333333334
 20
-83.0
 30
0.0
  0
CIRCLE
  5
1DA
330
17
100
AcDbEntity
  8
0
 62
5
100
AcDbCircle
 10
-206.6133333333334
 20
-83.0
 30
0.0
 40
0.5
  0
POINT
  5
1DB
330
17
100
AcDbEntity
  8
0
 62
2
100
AcDbPoint
 10
-206.6133333333334
 20
-86.0
 30
0.0
  0
CIRCLE
  5
1DC
330
17
100
AcDbEntity
  8
0
 62
5
100
AcDbCircle
 10
-206.6133333333334
 20
-86.0
 30
0.0
 40
0.5
  0
POINT
  5
1DD
330
17
100
AcDbEntity
  8
0
 62
2
100
AcDbPoint
 10
-207.6133333333334
 20
-87.0
 30
0.0
  0
CIRCLE
  5
1DE
330
17
100
AcDbEntity
  8
0
 62
5
100
AcDbCircle
 10
-207.6133333333334
 20
-87.0
 30
0.0
 40
0.5
  0
POINT
  5
1DF
330
17
100
AcDbEntity
  8
0
 62
2
100
AcDbPoint
 10
-207.6133333333334
 20
-88.0
 30
0.0
  0
CIRCLE
  5
1E0
330
17
100
AcDbEntity
  8
0
 62
5
100
AcDbCircle
 10
-207.6133333333334
 20
-88.0
 30
0.0
 40
0.5
  0
POINT
  5
1E1
330
17
100
AcDbEntity
  8
0
 62
2
100
AcDbPoint
 10
-208.6133333333334
 20
-89.0
 30
0.0
  0
CIRCLE
  5
1E2
330
17
100
AcDbEntity
  8
0
 62
5
100
AcDbCircle
 10
-208.6133333333334
 20
-89.0
 30
0.0
 40
0.5
  0
POINT
  5
1E3
330
17
100
AcDbEntity
  8
0
 62
2
100
AcDbPoint
 10
-208.6133333333334
 20
-93.0
 30
0.0
  0
CIRCLE
  5
1E4
330
17
100
AcDbEntity
  8
0
 62
5
100
AcDbCircle
 10
-208.6133333333334
 20
-93.0
 30
0.0
 40
0.5
  0
POINT
  5
1E5
330
17
100
AcDbEntity
  8
0
 62
2
100
AcDbPoint
 10
-209.6133333333334
 20
-94.0
 30
0.0
  0
CIRCLE
  5
1E6
330
17
100
AcDbEntity
  8
0
 62
5
100
AcDbCircle
 10
-209.6133333333334
 20
-94.0
 30
0.0
 40
0.5
  0
POINT
  5
1E7
330
17
100
AcDbEntity
  8
0
 62
2
100
AcDbPoint
 10
-209.6133333333334
 20
-95.0
 30
0.0
  0
CIRCLE
  5
1E8
330
17
100
AcDbEntity
  8
0
 62
5
100
AcDbCircle
 10
-209.6133333333334
 20
-95.0
 30
0.0
 40
0.5
  0
POINT
  5
1E9
330
17
100
AcDbEntity
  8
0
 62
2
100
AcDbPoint
 10
-210.6133333333334
 20
-96.0
 30
0.0
  0
CIRCLE
  5
1EA
330
17
100
AcDbEntity
  8
0
 62
5
100
AcDbCircle
 10
-210.6133333333334
 20
-96.0
 30
0.0
 40
0.5
  0
POINT
  5
1EB
330
17
100
AcDbEntity
  8
0
 62
2
100
AcDbPoint
 10
-211.6133333333334
 20
-96.0
 30
0.0
  0
CIRCLE
  5
1EC
330
17
100
AcDbEntity
  8
0
 62
5
100
AcDbCircle
 10
-211.6133333333334
 20
-96.0
 30
0.0
 40
0.5
  0
POINT
  5
1ED
330
17
100
AcDbEntity
  8
0
 62
2
100
AcDbPoint
 10
-212.6133333333334
 20
-97.0
 30
0.0
  0
CIRCLE
  5
1EE
330
17
100
AcDbEntity
  8
0
 62
5
100
AcDbCircle
 10
-212.6133333333334
 20
-97.0
 30
0.0
 40
0.5
  0
POINT
  5
1EF
330
17
100
AcDbEntity
  8
0
 62
2
100
AcDbPoint
 10
-213.6133333333334
 20
-96.0
 30
0.0
  0
CIRCLE
  5
1F0
330
17
100
AcDbEntity
  8
0
 62
5
100
AcDbCircle
 10
-213.6133333333334
 20
-96.0
 30
0.0
 40
0.5
  0
POINT
  5
1F1
330
17
100
AcDbEntity
  8
0
 62
2
100
AcDbPoint
 10
-214.6133333333334
 20
-96.0
 30
0.0
  0
CIRCLE
  5
1F2
330
17
100
AcDbEntity
  8
0
 62
5
100
AcDbCircle
 10
-214.6133333333334
 20
-96.0
 30
0.0
 40
0.5
  0
POINT
  5
1F3
330
17
100
AcDbEntity
  8
0
 62
2
100
AcDbPoint
 10
-216.6133333333334
 20
-94.0
 30
0.0
  0
CIRCLE
  5
1F4
330
17
100
AcDbEntity
  8
0
 62
5
100
AcDbCircle
 10
-216.6133333333334
 20
-94.0
 30
0.0
 40
0.5
  0
POINT
  5
1F5
330
17
100
AcDbEntity
  8
0
 62
2
100
AcDbPoint
 10
-216.6133333333334
 20
-93.0
 30
0.0
  0
CIRCLE
  5
1F6
330
17
100
AcDbEntity
  8
0
 62
5
100
AcDbCircle
 10
-216.6133333333334
 20
-93.0
 30
0.0
 40
0.5
  0
POINT
  5
1F7
330
17
100
AcDbEntity
  8
0
 62
2
100
AcDbPoint
 10
-218.6133333333334
 20
-91.0
 30
0.0
  0
CIRCLE
  5
1F8
330
17
100
AcDbEntity
  8
0
 62
5
100
AcDbCircle
 10
-218.6133333333334
 20
-91.0
 30
0.0
 40
0.5
  0
POINT
  5
1F9
330
17
100
AcDbEntity
  8
0
 62
2
100
AcDbPoint
 10
-218.6133333333334
 20
-90.0
 30
0.0
  0
CIRCLE
  5
1FA
330
17
100
AcDbEntity
  8
0
 62
5
100
AcDbCircle
 10
-218.6133333333334
 20
-90.0
 30
0.0
 40
0.5
  0
POINT
  5
1FB
330
17
100
AcDbEntity
  8
0
 62
2
100
AcDbPoint
 10
-219.6133333333334
 20
-89.0
 30
0.0
  0
CIRCLE
  5
1FC
330
17
100
AcDbEntity
  8
0
 62
5
100
AcDbCircle
 10
-219.6133333333334
 20
-89.0
 30
0.0
 40
0.5
  0
POINT
  5
1FD
330
17
100
AcDbEntity
  8
0
 62
2
100
AcDbPoint
 10
-219.6133333333334
 20
-87.0
 30
0.0
  0
CIRCLE
  5
1FE
330
17
100
AcDbEntity
  8
0
 62
5
100
AcDbCircle
 10
-219.6133333333334
 20
-87.0
 30
0.0
 40
0.5
  0
POINT
  5
1FF
330
17
100
AcDbEntity
  8
0
 62
2
100
AcDbPoint
 10
-221.6133333333334
 20
-85.0
 30
0.0
  0
CIRCLE
  5
200
330
17
100
AcDbEntity
  8
0
 62
5
100
AcDbCircle
 10
-221.6133333333334
 20
-85.0
 30
0.0
 40
0.5
  0
POINT
  5
201
330
17
100
AcDbEntity
  8
0
 62
2
100
AcDbPoint
 10
-221.6133333333334
 20
-84.0
 30
0.0
  0
CIRCLE
  5
202
330
17
100
AcDbEntity
  8
0
 62
5
100
AcDbCircle
 10
-221.6133333333334
 20
-84.0
 30
0.0
 40
0.5
  0
POINT
  5
203
330
17
100
AcDbEntity
  8
0
 62
2
100
AcDbPoint
 10
-222.6133333333334
 20
-83.0
 30
0.0
  0
CIRCLE
  5
204
330
17
100
AcDbEntity
  8
0
 62
5
100
AcDbCircle
 10
-222.6133333333334
 20
-83.0
 30
0.0
 40
0.5
  0
POINT
  5
205
330
17
100
AcDbEntity
  8
0
 62
2
100
AcDbPoint
 10
-222.6133333333334
 20
-82.0
 30
0.0
  0
CIRCLE
  5
206
330
17
100
AcDbEntity
  8
0
 62
5
100
AcDbCircle
 10
-222.6133333333334
 20
-82.0
 30
0.0
 40
0.5
  0
POINT
  5
207
330
17
100
AcDbEntity
  8
0
 62
2
100
AcDbPoint
 10
-224.6133333333334
 20
-80.0
 30
0.0
  0
CIRCLE
  5
208
330
17
100
AcDbEntity
  8
0
 62
5
100
AcDbCircle
 10
-224.6133333333334
 20
-80.0
 30
0.0
 40
0.5
  0
POINT
  5
209
330
17
100
AcDbEntity
  8
0
 62
2
100
AcDbPoint
 10
-224.6133333333334
 20
-79.0
 30
0.0
  0
CIRCLE
  5
20A
330
17
100
AcDbEntity
  8
0
 62
5
100
AcDbCircle
 10
-224.6133333333334
 20
-79.0
 30
0.0
 40
0.5
  0
POINT
  5
20B
330
17
100
AcDbEntity
  8
0
 62
2
100
AcDbPoint
 10
-225.6133333333334
 20
-78.0
 30
0.0
  0
CIRCLE
  5
20C
330
17
100
AcDbEntity
  8
0
 62
5
100
AcDbCircle
 10
-225.6133333333334
 20
-78.0
 30
0.0
 40
0.5
  0
POINT
  5
20D
330
17
100
AcDbEntity
  8
0
 62
2
100
AcDbPoint
 10
-225.6133333333334
 20
-76.0
 30
0.0
  0
CIRCLE
  5
20E
330
17
100
AcDbEntity
  8
0
 62
5
100
AcDbCircle
 10
-225.6133333333334
 20
-76.0
 30
0.0
 40
0.5
  0
POINT
  5
20F
330
17
100
AcDbEntity
  8
0
 62
2
100
AcDbPoint
 10
-226.6133333333334
 20
-76.0
 30
0.0
  0
CIRCLE
  5
210
330
17
100
AcDbEntity
  8
0
 62
5
100
AcDbCircle
 10
-226.6133333333334
 20
-76.0
 30
0.0
 40
0.5
  0
POINT
  5
211
330
17
100
AcDbEntity
  8
0
 62
2
100
AcDbPoint
 10
-227.6133333333334
 20
-75.0
 30
0.0
  0
CIRCLE
  5
212
330
17
100
AcDbEntity
  8
0
 62
5
100
AcDbCircle
 10
-227.6133333333334
 20
-75.0
 30
0.0
 40
0.5
  0
POINT
  5
213
330
17
100
AcDbEntity
  8
0
 62
2
100
AcDbPoint
 10
-227.6133333333334
 20
-74.0
 30
0.0
  0
CIRCLE
  5
214
330
17
100
AcDbEntity
  8
0
 62
5
100
AcDbCircle
 10
-227.6133333333334
 20
-74.0
 30
0.0
 40
0.5
  0
POINT
  5
215
330
17
100
AcDbEntity
  8
0
 62
2
100
AcDbPoint
 10
-228.6133333333334
 20
-73.0
 30
0.0
  0
CIRCLE
  5
216
330
17
100
AcDbEntity
  8
0
 62
5
100
AcDbCircle
 10
-228.6133333333334
 20
-73.0
 30
0.0
 40
0.5
  0
POINT
  5
217
330
17
100
AcDbEntity
  8
0
 62
2
100
AcDbPoint
 10
-228.6133333333334
 20
-72.0
 30
0.0
  0
CIRCLE
  5
218
330
17
100
AcDbEntity
  8
0
 62
5
100
AcDbCircle
 10
-228.6133333333334
 20
-72.0
 30
0.0
 40
0.5
  0
POINT
  5
219
330
17
100
AcDbEntity
  8
0
 62
2
100
AcDbPoint
 10
-229.6133333333334
 20
-71.0
 30
0.0
  0
CIRCLE
  5
21A
330
17
100
AcDbEntity
  8
0
 62
5
100
AcDbCircle
 10
-229.6133333333334
 20
-71.0
 30
0.0
 40
0.5
  0
POINT
  5
21B
330
17
100
AcDbEntity
  8
0
 62
2
100
AcDbPoint
 10
-229.6133333333334
 20
-70.0
 30
0.0
  0
CIRCLE
  5
21C
330
17
100
AcDbEntity
  8
0
 62
5
100
AcDbCircle
 10
-229.6133333333334
 20
-70.0
 30
0.0
 40
0.5
  0
POINT
  5
21D
330
17
100
AcDbEntity
  8
0
 62
2
100
AcDbPoint
 10
-231.6133333333334
 20
-68.0
 30
0.0
  0
CIRCLE
  5
21E
330
17
100
AcDbEntity
  8
0
 62
5
100
AcDbCircle
 10
-231.6133333333334
 20
-68.0
 30
0.0
 40
0.5
  0
POINT
  5
21F
330
17
100
AcDbEntity
  8
0
 62
2
100
AcDbPoint
 10
-231.6133333333334
 20
-67.0
 30
0.0
  0
CIRCLE
  5
220
330
17
100
AcDbEntity
  8
0
 62
5
100
AcDbCircle
 10
-231.6133333333334
 20
-67.0
 30
0.0
 40
0.5
  0
POINT
  5
221
330
17
100
AcDbEntity
  8
0
 62
2
100
AcDbPoint
 10
-234.6133333333334
 20
-64.0
 30
0.0
  0
CIRCLE
  5
222
330
17
100
AcDbEntity
  8
0
 62
5
100
AcDbCircle
 10
-234.6133333333334
 20
-64.0
 30
0.0
 40
0.5
  0
POINT
  5
223
330
17
100
AcDbEntity
  8
0
 62
2
100
AcDbPoint
 10
-234.6133333333334
 20
-63.0
 30
0.0
  0
CIRCLE
  5
224
330
17
100
AcDbEntity
  8
0
 62
5
100
AcDbCircle
 10
-234.6133333333334
 20
-63.0
 30
0.0
 40
0.5
  0
POINT
  5
225
330
17
100
AcDbEntity
  8
0
 62
2
100
AcDbPoint
 10
-235.6133333333334
 20
-62.0
 30
0.0
  0
CIRCLE
  5
226
330
17
100
AcDbEntity
  8
0
 62
5
100
AcDbCircle
 10
-235.6133333333334
 20
-62.0
 30
0.0
 40
0.5
  0
POINT
  5
227
330
17
100
AcDbEntity
  8
0
 62
2
100
AcDbPoint
 10
-235.6133333333334
 20
-61.0
 30
0.0
  0
CIRCLE
  5
228
330
17
100
AcDbEntity
  8
0
 62
5
100
AcDbCircle
 10
-235.6133333333334
 20
-61.0
 30
0.0
 40
0.5
  0
POINT
  5
229
330
17
100
AcDbEntity
  8
0
 62
2
100
AcDbPoint
 10
-237.6133333333334
 20
-59.0
 30
0.0
  0
CIRCLE
  5
22A
330
17
100
AcDbEntity
  8
0
 62
5
100
AcDbCircle
 10
-237.6133333333334
 20
-59.0
 30
0.0
 40
0.5
  0
POINT
  5
22B
330
17
100
AcDbEntity
  8
0
 62
2
100
AcDbPoint
 10
-237.6133333333334
 20
-57.0
 30
0.0
  0
CIRCLE
  5
22C
330
17
100
AcDbEntity
  8
0
 62
5
100
AcDbCircle
 10
-237.6133333333334
 20
-57.0
 30
0.0
 40
0.5
  0
POINT
  5
22D
330
17
100
AcDbEntity
  8
0
 62
2
100
AcDbPoint
 10
-238.6133333333334
 20
-57.0
 30
0.0
  0
CIRCLE
  5
22E
330
17
100
AcDbEntity
  8
0
 62
5
100
AcDbCircle
 10
-238.6133333333334
 20
-57.0
 30
0.0
 40
0.5
  0
POINT
  5
22F
330
17
100
AcDbEntity
  8
0
 62
2
100
AcDbPoint
 10
-239.6133333333334
 20
-56.0
 30
0.0
  0
CIRCLE
  5
230
330
17
100
AcDbEntity
  8
0
 62
5
100
AcDbCircle
 10
-239.6133333333334
 20
-56.0
 30
0.0
 40
0.5
  0
POINT
  5
231
330
17
100
AcDbEntity
  8
0
 62
2
100
AcDbPoint
 10
-239.6133333333334
 20
-55.0
 30
0.0
  0
CIRCLE
  5
232
330
17
100
AcDbEntity
  8
0
 62
5
100
AcDbCircle
 10
-239.6133333333334
 20
-55.0
 30
0.0
 40
0.5
  0
POINT
  5
233
330
17
100
AcDbEntity
  8
0
 62
2
100
AcDbPoint
 10
-240.6133333333334
 20
-54.0
 30
0.0
  0
CIRCLE
  5
234
330
17
100
AcDbEntity
  8
0
 62
5
100
AcDbCircle
 10
-240.6133333333334
 20
-54.0
 30
0.0
 40
0.5
  0
POINT
  5
235
330
17
100
AcDbEntity
  8
0
 62
2
100
AcDbPoint
 10
-240.6133333333334
 20
-53.0
 30
0.0
  0
CIRCLE
  5
236
330
17
100
AcDbEntity
  8
0
 62
5
100
AcDbCircle
 10
-240.6133333333334
 20
-53.0
 30
0.0
 40
0.5
  0
POINT
  5
237
330
17
100
AcDbEntity
  8
0
 62
2
100
AcDbPoint
 10
-242.6133333333334
 20
-51.0
 30
0.0
  0
CIRCLE
  5
238
330
17
100
AcDbEntity
  8
0
 62
5
100
AcDbCircle
 10
-242.6133333333334
 20
-51.0
 30
0.0
 40
0.5
  0
POINT
  5
239
330
17
100
AcDbEntity
  8
0
 62
2
100
AcDbPoint
 10
-242.6133333333334
 20
-50.0
 30
0.0
  0
CIRCLE
  5
23A
330
17
100
AcDbEntity
  8
0
 62
5
100
AcDbCircle
 10
-242.6133333333334
 20
-50.0
 30
0.0
 40
0.5
  0
POINT
  5
23B
330
17
100
AcDbEntity
  8
0
 62
2
100
AcDbPoint
 10
-243.6133333333334
 20
-49.0
 30
0.0
  0
CIRCLE
  5
23C
330
17
100
AcDbEntity
  8
0
 62
5
100
AcDbCircle
 10
-243.6133333333334
 20
-49.0
 30
0.0
 40
0.5
  0
POINT
  5
23D
330
17
100
AcDbEntity
  8
0
 62
2
100
AcDbPoint
 10
-243.6133333333334
 20
-48.0
 30
0.0
  0
CIRCLE
  5
23E
330
17
100
AcDbEntity
  8
0
 62
5
100
AcDbCircle
 10
-243.6133333333334
 20
-48.0
 30
0.0
 40
0.5
  0
POINT
  5
23F
330
17
100
AcDbEntity
  8
0
 62
2
100
AcDbPoint
 10
-245.6133333333334
 20
-46.0
 30
0.0
  0
CIRCLE
  5
240
330
17
100
AcDbEntity
  8
0
 62
5
100
AcDbCircle
 10
-245.6133333333334
 20
-46.0
 30
0.0
 40
0.5
  0
POINT
  5
241
330
17
100
AcDbEntity
  8
0
 62
2
100
AcDbPoint
 10
-245.6133333333334
 20
-45.0
 30
0.0
  0
CIRCLE
  5
242
330
17
100
AcDbEntity
  8
0
 62
5
100
AcDbCircle
 10
-245.6133333333334
 20
-45.0
 30
0.0
 40
0.5
  0
POINT
  5
243
330
17
100
AcDbEntity
  8
0
 62
2
100
AcDbPoint
 10
-246.6133333333334
 20
-44.0
 30
0.0
  0
CIRCLE
  5
244
330
17
100
AcDbEntity
  8
0
 62
5
100
AcDbCircle
 10
-246.6133333333334
 20
-44.0
 30
0.0
 40
0.5
  0
POINT
  5
245
330
17
100
AcDbEntity
  8
0
 62
2
100
AcDbPoint
 10
-246.6133333333334
 20
-43.0
 30
0.0
  0
CIRCLE
  5
246
330
17
100
AcDbEntity
  8
0
 62
5
100
AcDbCircle
 10
-246.6133333333334
 20
-43.0
 30
0.0
 40
0.5
  0
POINT
  5
247
330
17
100
AcDbEntity
  8
0
 62
2
100
AcDbPoint
 10
-248.6133333333334
 20
-41.0
 30
0.0
  0
CIRCLE
  5
248
330
17
100
AcDbEntity
  8
0
 62
5
100
AcDbCircle
 10
-248.6133333333334
 20
-41.0
 30
0.0
 40
0.5
  0
POINT
  5
249
330
17
100
AcDbEntity
  8
0
 62
2
100
AcDbPoint
 10
-248.6133333333334
 20
-40.0
 30
0.0
  0
CIRCLE
  5
24A
330
17
100
AcDbEntity
  8
0
 62
5
100
AcDbCircle
 10
-248.6133333333334
 20
-40.0
 30
0.0
 40
0.5
  0
POINT
  5
24B
330
17
100
AcDbEntity
  8
0
 62
2
100
AcDbPoint
 10
-249.6133333333334
 20
-39.0
 30
0.0
  0
CIRCLE
  5
24C
330
17
100
AcDbEntity
  8
0
 62
5
100
AcDbCircle
 10
-249.6133333333334
 20
-39.0
 30
0.0
 40
0.5
  0
POINT
  5
24D
330
17
100
AcDbEntity
  8
0
 62
2
100
AcDbPoint
 10
-249.6133333333334
 20
-37.0
 30
0.0
  0
CIRCLE
  5
24E
330
17
100
AcDbEntity
  8
0
 62
5
100
AcDbCircle
 10
-249.6133333333334
 20
-37.0
 30
0.0
 40
0.5
  0
POINT
  5
24F
330
17
100
AcDbEntity
  8
0
 62
2
100
AcDbPoint
 10
-251.6133333333334
 20
-35.0
 30
0.0
  0
CIRCLE
  5
250
330
17
100
AcDbEntity
  8
0
 62
5
100
AcDbCircle
 10
-251.6133333333334
 20
-35.0
 30
0.0
 40
0.5
  0
POINT
  5
251
330
17
100
AcDbEntity
  8
0
 62
2
100
AcDbPoint
 10
-251.6133333333334
 20
-34.0
 30
0.0
  0
CIRCLE
  5
252
330
17
100
AcDbEntity
  8
0
 62
5
100
AcDbCircle
 10
-251.6133333333334
 20
-34.0
 30
0.0
 40
0.5
  0
POINT
  5
253
330
17
100
AcDbEntity
  8
0
 62
2
100
AcDbPoint
 10
-252.6133333333334
 20
-33.0
 30
0.0
  0
CIRCLE
  5
254
330
17
100
AcDbEntity
  8
0
 62
5
100
AcDbCircle
 10
-252.6133333333334
 20
-33.0
 30
0.0
 40
0.5
  0
POINT
  5
255
330
17
100
AcDbEntity
  8
0
 62
2
100
AcDbPoint
 10
-253.6133333333334
 20
-33.0
 30
0.0
  0
CIRCLE
  5
256
330
17
100
AcDbEntity
  8
0
 62
5
100
AcDbCircle
 10
-253.6133333333334
 20
-33.0
 30
0.0
 40
0.5
  0
POINT
  5
257
330
17
100
AcDbEntity
  8
0
 62
2
100
AcDbPoint
 10
-253.6133333333334
 20
-39.0
 30
0.0
  0
CIRCLE
  5
258
330
17
100
AcDbEntity
  8
0
 62
5
100
AcDbCircle
 10
-253.6133333333334
 20
-39.0
 30
0.0
 40
0.5
  0
POINT
  5
259
330
17
100
AcDbEntity
  8
0
 62
2
100
AcDbPoint
 10
-254.6133333333334
 20
-40.0
 30
0.0
  0
CIRCLE
  5
25A
330
17
100
AcDbEntity
  8
0
 62
5
100
AcDbCircle
 10
-254.6133333333334
 20
-40.0
 30
0.0
 40
0.5
  0
POINT
  5
25B
330
17
100
AcDbEntity
  8
0
 62
2
100
AcDbPoint
 10
-254.6133333333334
 20
-45.0
 30
0.0
  0
CIRCLE
  5
25C
330
17
100
AcDbEntity
  8
0
 62
5
100
AcDbCircle
 10
-254.6133333333334
 20
-45.0
 30
0.0
 40
0.5
  0
POINT
  5
25D
330
17
100
AcDbEntity
  8
0
 62
2
100
AcDbPoint
 10
-255.6133333333334
 20
-46.0
 30
0.0
  0
CIRCLE
  5
25E
330
17
100
AcDbEntity
  8
0
 62
5
100
AcDbCircle
 10
-255.6133333333334
 20
-46.0
 30
0.0
 40
0.5
  0
POINT
  5
25F
330
17
100
AcDbEntity
  8
0
 62
2
100
AcDbPoint
 10
-255.6133333333334
 20
-49.0
 30
0.0
  0
CIRCLE
  5
260
330
17
100
AcDbEntity
  8
0
 62
5
100
AcDbCircle
 10
-255.6133333333334
 20
-49.0
 30
0.0
 40
0.5
  0
POINT
  5
261
330
17
100
AcDbEntity
  8
0
 62
2
100
AcDbPoint
 10
-256.6133333333334
 20
-50.0
 30
0.0
  0
CIRCLE
  5
262
330
17
100
AcDbEntity
  8
0
 62
5
100
AcDbCircle
 10
-256.6133333333334
 20
-50.0
 30
0.0
 40
0.5
  0
POINT
  5
263
330
17
100
AcDbEntity
  8
0
 62
2
100
AcDbPoint
 10
-256.6133333333334
 20
-55.0
 30
0.0
  0
CIRCLE
  5
264
330
17
100
AcDbEntity
  8
0
 62
5
100
AcDbCircle
 10
-256.6133333333334
 20
-55.0
 30
0.0
 40
0.5
  0
POINT
  5
265
330
17
100
AcDbEntity
  8
0
 62
2
100
AcDbPoint
 10
-257.6133333333334
 20
-56.0
 30
0.0
  0
CIRCLE
  5
266
330
17
100
AcDbEntity
  8
0
 62
5
100
AcDbCircle
 10
-257.6133333333334
 20
-56.0
 30
0.0
 40
0.5
  0
POINT
  5
267
330
17
100
AcDbEntity
  8
0
 62
2
100
AcDbPoint
 10
-257.6133333333334
 20
-61.0
 30
0.0
  0
CIRCLE
  5
268
330
17
100
AcDbEntity
  8
0
 62
5
100
AcDbCircle
 10
-257.6133333333334
 20
-61.0
 30
0.0
 40
0.5
  0
POINT
  5
269
330
17
100
AcDbEntity
  8
0
 62
2
100
AcDbPoint
 10
-258.6133333333334
 20
-62.0
 30
0.0
  0
CIRCLE
  5
26A
330
17
100
AcDbEntity
  8
0
 62
5
100
AcDbCircle
 10
-258.6133333333334
 20
-62.0
 30
0.0
 40
0.5
  0
POINT
  5
26B
330
17
100
AcDbEntity
  8
0
 62
2
100
AcDbPoint
 10
-258.6133333333334
 20
-63.0
 30
0.0
  0
CIRCLE
  5
26C
330
17
100
AcDbEntity
  8
0
 62
5
100
AcDbCircle
 10
-258.6133333333334
 20
-63.0
 30
0.0
 40
0.5
  0
POINT
  5
26D
330
17
100
AcDbEntity
  8
0
 62
2
100
AcDbPoint
 10
-259.6133333333334
 20
-64.0
 30
0.0
  0
CIRCLE
  5
26E
330
17
100
AcDbEntity
  8
0
 62
5
100
AcDbCircle
 10
-259.6133333333334
 20
-64.0
 30
0.0
 40
0.5
  0
POINT
  5
26F
330
17
100
AcDbEntity
  8
0
 62
2
100
AcDbPoint
 10
-259.6133333333334
 20
-69.0
 30
0.0
  0
CIRCLE
  5
270
330
17
100
AcDbEntity
  8
0
 62
5
100
AcDbCircle
 10
-259.6133333333334
 20
-69.0
 30
0.0
 40
0.5
  0
POINT
  5
271
330
17
100
AcDbEntity
  8
0
 62
2
100
AcDbPoint
 10
-260.6133333333334
 20
-70.0
 30
0.0
  0
CIRCLE
  5
272
330
17
100
AcDbEntity
  8
0
 62
5
100
AcDbCircle
 10
-260.6133333333334
 20
-70.0
 30
0.0
 40
0.5
  0
POINT
  5
273
330
17
100
AcDbEntity
  8
0
 62
2
100
AcDbPoint
 10
-260.6133333333334
 20
-74.0
 30
0.0
  0
CIRCLE
  5
274
330
17
100
AcDbEntity
  8
0
 62
5
100
AcDbCircle
 10
-260.6133333333334
 20
-74.0
 30
0.0
 40
0.5
  0
POINT
  5
275
330
17
100
AcDbEntity
  8
0
 62
2
100
AcDbPoint
 10
-261.6133333333334
 20
-75.0
 30
0.0
  0
CIRCLE
  5
276
330
17
100
AcDbEntity
  8
0
 62
5
100
AcDbCircle
 10
-261.6133333333334
 20
-75.0
 30
0.0
 40
0.5
  0
POINT
  5
277
330
17
100
AcDbEntity
  8
0
 62
2
100
AcDbPoint
 10
-261.6133333333334
 20
-76.0
 30
0.0
  0
CIRCLE
  5
278
330
17
100
AcDbEntity
  8
0
 62
5
100
AcDbCircle
 10
-261.6133333333334
 20
-76.0
 30
0.0
 40
0.5
  0
POINT
  5
279
330
17
100
AcDbEntity
  8
0
 62
2
100
AcDbPoint
 10
-262.6133333333334
 20
-77.0
 30
0.0
  0
CIRCLE
  5
27A
330
17
100
AcDbEntity
  8
0
 62
5
100
AcDbCircle
 10
-262.6133333333334
 20
-77.0
 30
0.0
 40
0.5
  0
POINT
  5
27B
330
17
100
AcDbEntity
  8
0
 62
2
100
AcDbPoint
 10
-262.6133333333334
 20
-81.0
 30
0.0
  0
CIRCLE
  5
27C
330
17
100
AcDbEntity
  8
0
 62
5
100
AcDbCircle
 10
-262.6133333333334
 20
-81.0
 30
0.0
 40
0.5
  0
POINT
  5
27D
330
17
100
AcDbEntity
  8
0
 62
2
100
AcDbPoint
 10
-263.6133333333334
 20
-82.0
 30
0.0
  0
CIRCLE
  5
27E
330
17
100
AcDbEntity
  8
0
 62
5
100
AcDbCircle
 10
-263.6133333333334
 20
-82.0
 30
0.0
 40
0.5
  0
POINT
  5
27F
330
17
100
AcDbEntity
  8
0
 62
2
100
AcDbPoint
 10
-263.6133333333334
 20
-90.0
 30
0.0
  0
CIRCLE
  5
280
330
17
100
AcDbEntity
  8
0
 62
5
100
AcDbCircle
 10
-263.6133333333334
 20
-90.0
 30
0.0
 40
0.5
  0
POINT
  5
281
330
17
100
AcDbEntity
  8
0
 62
2
100
AcDbPoint
 10
-265.6133333333334
 20
-92.0
 30
0.0
  0
CIRCLE
  5
282
330
17
100
AcDbEntity
  8
0
 62
5
100
AcDbCircle
 10
-265.6133333333334
 20
-92.0
 30
0.0
 40
0.5
  0
POINT
  5
283
330
17
100
AcDbEntity
  8
0
 62
2
100
AcDbPoint
 10
-265.6133333333334
 20
-96.0
 30
0.0
  0
CIRCLE
  5
284
330
17
100
AcDbEntity
  8
0
 62
5
100
AcDbCircle
 10
-265.6133333333334
 20
-96.0
 30
0.0
 40
0.5
  0
POINT
  5
285
330
17
100
AcDbEntity
  8
0
 62
2
100
AcDbPoint
 10
-264.6133333333334
 20
-97.0
 30
0.0
  0
CIRCLE
  5
286
330
17
100
AcDbEntity
  8
0
 62
5
100
AcDbCircle
 10
-264.6133333333334
 20
-97.0
 30
0.0
 40
0.5
  0
POINT
  5
287
330
17
100
AcDbEntity
  8
0
 62
2
100
AcDbPoint
 10
-264.6133333333334
 20
-100.0
 30
0.0
  0
CIRCLE
  5
288
330
17
100
AcDbEntity
  8
0
 62
5
100
AcDbCircle
 10
-264.6133333333334
 20
-100.0
 30
0.0
 40
0.5
  0
POINT
  5
289
330
17
100
AcDbEntity
  8
0
 62
2
100
AcDbPoint
 10
-265.6133333333334
 20
-101.0
 30
0.0
  0
CIRCLE
  5
28A
330
17
100
AcDbEntity
  8
0
 62
5
100
AcDbCircle
 10
-265.6133333333334
 20
-101.0
 30
0.0
 40
0.5
  0
POINT
  5
28B
330
17
100
AcDbEntity
  8
0
 62
2
100
AcDbPoint
 10
-266.6133333333334
 20
-101.0
 30
0.0
  0
CIRCLE
  5
28C
330
17
100
AcDbEntity
  8
0
 62
5
100
AcDbCircle
 10
-266.6133333333334
 20
-101.0
 30
0.0
 40
0.5
  0
POINT
  5
28D
330
17
100
AcDbEntity
  8
0
 62
2
100
AcDbPoint
 10
-266.6133333333334
 20
-103.0
 30
0.0
  0
CIRCLE
  5
28E
330
17
100
AcDbEntity
  8
0
 62
5
100
AcDbCircle
 10
-266.6133333333334
 20
-103.0
 30
0.0
 40
0.5
  0
POINT
  5
28F
330
17
100
AcDbEntity
  8
0
 62
2
100
AcDbPoint
 10
-267.6133333333334
 20
-104.0
 30
0.0
  0
CIRCLE
  5
290
330
17
100
AcDbEntity
  8
0
 62
5
100
AcDbCircle
 10
-267.6133333333334
 20
-104.0
 30
0.0
 40
0.5
  0
POINT
  5
291
330
17
100
AcDbEntity
  8
0
 62
2
100
AcDbPoint
 10
-267.6133333333334
 20
-106.0
 30
0.0
  0
CIRCLE
  5
292
330
17
100
AcDbEntity
  8
0
 62
5
100
AcDbCircle
 10
-267.6133333333334
 20
-106.0
 30
0.0
 40
0.5
  0
POINT
  5
293
330
17
100
AcDbEntity
  8
0
 62
2
100
AcDbPoint
 10
-268.6133333333334
 20
-107.0
 30
0.0
  0
CIRCLE
  5
294
330
17
100
AcDbEntity
  8
0
 62
5
100
AcDbCircle
 10
-268.6133333333334
 20
-107.0
 30
0.0
 40
0.5
  0
POINT
  5
295
330
17
100
AcDbEntity
  8
0
 62
2
100
AcDbPoint
 10
-268.6133333333334
 20
-110.0
 30
0.0
  0
CIRCLE
  5
296
330
17
100
AcDbEntity
  8
0
 62
5
100
AcDbCircle
 10
-268.6133333333334
 20
-110.0
 30
0.0
 40
0.5
  0
POINT
  5
297
330
17
100
AcDbEntity
  8
0
 62
2
100
AcDbPoint
 10
-267.6133333333334
 20
-110.0
 30
0.0
  0
CIRCLE
  5
298
330
17
100
AcDbEntity
  8
0
 62
5
100
AcDbCircle
 10
-267.6133333333334
 20
-110.0
 30
0.0
 40
0.5
  0
POINT
  5
299
330
17
100
AcDbEntity
  8
0
 62
2
100
AcDbPoint
 10
-266.6133333333334
 20
-111.0
 30
0.0
  0
CIRCLE
  5
29A
330
17
100
AcDbEntity
  8
0
 62
5
100
AcDbCircle
 10
-266.6133333333334
 20
-111.0
 30
0.0
 40
0.5
  0
POINT
  5
29B
330
17
100
AcDbEntity
  8
0
 62
2
100
AcDbPoint
 10
-266.6133333333334
 20
-113.0
 30
0.0
  0
CIRCLE
  5
29C
330
17
100
AcDbEntity
  8
0
 62
5
100
AcDbCircle
 10
-266.6133333333334
 20
-113.0
 30
0.0
 40
0.5
  0
POINT
  5
29D
330
17
100
AcDbEntity
  8
0
 62
2
100
AcDbPoint
 10
-268.6133333333334
 20
-115.0
 30
0.0
  0
CIRCLE
  5
29E
330
17
100
AcDbEntity
  8
0
 62
5
100
AcDbCircle
 10
-268.6133333333334
 20
-115.0
 30
0.0
 40
0.5
  0
POINT
  5
29F
330
17
100
AcDbEntity
  8
0
 62
2
100
AcDbPoint
 10
-269.6133333333334
 20
-115.0
 30
0.0
  0
CIRCLE
  5
2A0
330
17
100
AcDbEntity
  8
0
 62
5
100
AcDbCircle
 10
-269.6133333333334
 20
-115.0
 30
0.0
 40
0.5
  0
POINT
  5
2A1
330
17
100
AcDbEntity
  8
0
 62
2
100
AcDbPoint
 10
-269.6133333333334
 20
-119.0
 30
0.0
  0
CIRCLE
  5
2A2
330
17
100
AcDbEntity
  8
0
 62
5
100
AcDbCircle
 10
-269.6133333333334
 20
-119.0
 30
0.0
 40
0.5
  0
POINT
  5
2A3
330
17
100
AcDbEntity
  8
0
 62
2
100
AcDbPoint
 10
-270.6133333333334
 20
-120.0
 30
0.0
  0
CIRCLE
  5
2A4
330
17
100
AcDbEntity
  8
0
 62
5
100
AcDbCircle
 10
-270.6133333333334
 20
-120.0
 30
0.0
 40
0.5
  0
POINT
  5
2A5
330
17
100
AcDbEntity
  8
0
 62
2
100
AcDbPoint
 10
-270.6133333333334
 20
-122.0
 30
0.0
  0
CIRCLE
  5
2A6
330
17
100
AcDbEntity
  8
0
 62
5
100
AcDbCircle
 10
-270.6133333333334
 20
-122.0
 30
0.0
 40
0.5
  0
POINT
  5
2A7
330
17
100
AcDbEntity
  8
0
 62
2
100
AcDbPoint
 10
-271.6133333333334
 20
-123.0
 30
0.0
  0
CIRCLE
  5
2A8
330
17
100
AcDbEntity
  8
0
 62
5
100
AcDbCircle
 10
-271.6133333333334
 20
-123.0
 30
0.0
 40
0.5
  0
POINT
  5
2A9
330
17
100
AcDbEntity
  8
0
 62
2
100
AcDbPoint
 10
-270.6133333333334
 20
-123.0
 30
0.0
  0
CIRCLE
  5
2AA
330
17
100
AcDbEntity
  8
0
 62
5
100
AcDbCircle
 10
-270.6133333333334
 20
-123.0
 30
0.0
 40
0.5
  0
POINT
  5
2AB
330
17
100
AcDbEntity
  8
0
 62
2
100
AcDbPoint
 10
-269.6133333333334
 20
-124.0
 30
0.0
  0
CIRCLE
  5
2AC
330
17
100
AcDbEntity
  8
0
 62
5
100
AcDbCircle
 10
-269.6133333333334
 20
-124.0
 30
0.0
 40
0.5
  0
POINT
  5
2AD
330
17
100
AcDbEntity
  8
0
 62
2
100
AcDbPoint
 10
-269.6133333333334
 20
-130.0
 30
0.0
  0
CIRCLE
  5
2AE
330
17
100
AcDbEntity
  8
0
 62
5
100
AcDbCircle
 10
-269.6133333333334
 20
-130.0
 30
0.0
 40
0.5
  0
POINT
  5
2AF
330
17
100
AcDbEntity
  8
0
 62
2
100
AcDbPoint
 10
-271.6133333333334
 20
-132.0
 30
0.0
  0
CIRCLE
  5
2B0
330
17
100
AcDbEntity
  8
0
 62
5
100
AcDbCircle
 10
-271.6133333333334
 20
-132.0
 30
0.0
 40
0.5
  0
POINT
  5
2B1
330
17
100
AcDbEntity
  8
0
 62
2
100
AcDbPoint
 10
-272.6133333333334
 20
-132.0
 30
0.0
  0
CIRCLE
  5
2B2
330
17
100
AcDbEntity
  8
0
 62
5
100
AcDbCircle
 10
-272.6133333333334
 20
-132.0
 30
0.0
 40
0.5
  0
POINT
  5
2B3
330
17
100
AcDbEntity
  8
0
 62
2
100
AcDbPoint
 10
-271.6133333333334
 20
-133.0
 30
0.0
  0
CIRCLE
  5
2B4
330
17
100
AcDbEntity
  8
0
 62
5
100
AcDbCircle
 10
-271.6133333333334
 20
-133.0
 30
0.0
 40
0.5
  0
POINT
  5
2B5
330
17
100
AcDbEntity
  8
0
 62
2
100
AcDbPoint
 10
-271.6133333333334
 20
-135.0
 30
0.0
  0
CIRCLE
  5
2B6
330
17
100
AcDbEntity
  8
0
 62
5
100
AcDbCircle
 10
-271.6133333333334
 20
-135.0
 30
0.0
 40
0.5
  0
POINT
  5
2B7
330
17
100
AcDbEntity
  8
0
 62
2
100
AcDbPoint
 10
-272.6133333333334
 20
-136.0
 30
0.0
  0
CIRCLE
  5
2B8
330
17
100
AcDbEntity
  8
0
 62
5
100
AcDbCircle
 10
-272.6133333333334
 20
-136.0
 30
0.0
 40
0.5
  0
POINT
  5
2B9
330
17
100
AcDbEntity
  8
0
 62
2
100
AcDbPoint
 10
-273.6133333333334
 20
-136.0
 30
0.0
  0
CIRCLE
  5
2BA
330
17
100
AcDbEntity
  8
0
 62
5
100
AcDbCircle
 10
-273.6133333333334
 20
-136.0
 30
0.0
 40
0.5
  0
POINT
  5
2BB
330
17
100
AcDbEntity
  8
0
 62
2
100
AcDbPoint
 10
-273.6133333333334
 20
-139.0
 30
0.0
  0
CIRCLE
  5
2BC
330
17
100
AcDbEntity
  8
0
 62
5
100
AcDbCircle
 10
-273.6133333333334
 20
-139.0
 30
0.0
 40
0.5
  0
POINT
  5
2BD
330
17
100
AcDbEntity
  8
0
 62
2
100
AcDbPoint
 10
-274.6133333333334
 20
-140.0
 30
0.0
  0
CIRCLE
  5
2BE
330
17
100
AcDbEntity
  8
0
 62
5
100
AcDbCircle
 10
-274.6133333333334
 20
-140.0
 30
0.0
 40
0.5
  0
POINT
  5
2BF
330
17
100
AcDbEntity
  8
0
 62
2
100
AcDbPoint
 10
-274.6133333333334
 20
-142.0
 30
0.0
  0
CIRCLE
  5
2C0
330
17
100
AcDbEntity
  8
0
 62
5
100
AcDbCircle
 10
-274.6133333333334
 20
-142.0
 30
0.0
 40
0.5
  0
POINT
  5
2C1
330
17
100
AcDbEntity
  8
0
 62
2
100
AcDbPoint
 10
-273.6133333333334
 20
-142.0
 30
0.0
  0
CIRCLE
  5
2C2
330
17
100
AcDbEntity
  8
0
 62
5
100
AcDbCircle
 10
-273.6133333333334
 20
-142.0
 30
0.0
 40
0.5
  0
POINT
  5
2C3
330
17
100
AcDbEntity
  8
0
 62
2
100
AcDbPoint
 10
-272.6133333333334
 20
-143.0
 30
0.0
  0
CIRCLE
  5
2C4
330
17
100
AcDbEntity
  8
0
 62
5
100
AcDbCircle
 10
-272.6133333333334
 20
-143.0
 30
0.0
 40
0.5
  0
POINT
  5
2C5
330
17
100
AcDbEntity
  8
0
 62
2
100
AcDbPoint
 10
-272.6133333333334
 20
-146.0
 30
0.0
  0
CIRCLE
  5
2C6
330
17
100
AcDbEntity
  8
0
 62
5
100
AcDbCircle
 10
-272.6133333333334
 20
-146.0
 30
0.0
 40
0.5
  0
POINT
  5
2C7
330
17
100
AcDbEntity
  8
0
 62
2
100
AcDbPoint
 10
-273.6133333333334
 20
-147.0
 30
0.0
  0
CIRCLE
  5
2C8
330
17
100
AcDbEntity
  8
0
 62
5
100
AcDbCircle
 10
-273.6133333333334
 20
-147.0
 30
0.0
 40
0.5
  0
POINT
  5
2C9
330
17
100
AcDbEntity
  8
0
 62
2
100
AcDbPoint
 10
-273.6133333333334
 20
-148.0
 30
0.0
  0
CIRCLE
  5
2CA
330
17
100
AcDbEntity
  8
0
 62
5
100
AcDbCircle
 10
-273.6133333333334
 20
-148.0
 30
0.0
 40
0.5
  0
POINT
  5
2CB
330
17
100
AcDbEntity
  8
0
 62
2
100
AcDbPoint
 10
-274.6133333333334
 20
-149.0
 30
0.0
  0
CIRCLE
  5
2CC
330
17
100
AcDbEntity
  8
0
 62
5
100
AcDbCircle
 10
-274.6133333333334
 20
-149.0
 30
0.0
 40
0.5
  0
POINT
  5
2CD
330
17
100
AcDbEntity
  8
0
 62
2
100
AcDbPoint
 10
-274.6133333333334
 20
-150.0
 30
0.0
  0
CIRCLE
  5
2CE
330
17
100
AcDbEntity
  8
0
 62
5
100
AcDbCircle
 10
-274.6133333333334
 20
-150.0
 30
0.0
 40
0.5
  0
POINT
  5
2CF
330
17
100
AcDbEntity
  8
0
 62
2
100
AcDbPoint
 10
-275.6133333333334
 20
-151.0
 30
0.0
  0
CIRCLE
  5
2D0
330
17
100
AcDbEntity
  8
0
 62
5
100
AcDbCircle
 10
-275.6133333333334
 20
-151.0
 30
0.0
 40
0.5
  0
POINT
  5
2D1
330
17
100
AcDbEntity
  8
0
 62
2
100
AcDbPoint
 10
-275.6133333333334
 20
-156.0
 30
0.0
  0
CIRCLE
  5
2D2
330
17
100
AcDbEntity
  8
0
 62
5
100
AcDbCircle
 10
-275.6133333333334
 20
-156.0
 30
0.0
 40
0.5
  0
POINT
  5
2D3
330
17
100
AcDbEntity
  8
0
 62
2
100
AcDbPoint
 10
-277.6133333333334
 20
-158.0
 30
0.0
  0
CIRCLE
  5
2D4
330
17
100
AcDbEntity
  8
0
 62
5
100
AcDbCircle
 10
-277.6133333333334
 20
-158.0
 30
0.0
 40
0.5
  0
POINT
  5
2D5
330
17
100
AcDbEntity
  8
0
 62
2
100
AcDbPoint
 10
-276.6133333333334
 20
-158.0
 30
0.0
  0
CIRCLE
  5
2D6
330
17
100
AcDbEntity
  8
0
 62
5
100
AcDbCircle
 10
-276.6133333333334
 20
-158.0
 30
0.0
 40
0.5
  0
POINT
  5
2D7
330
17
100
AcDbEntity
  8
0
 62
2
100
AcDbPoint
 10
-275.6133333333334
 20
-159.0
 30
0.0
  0
CIRCLE
  5
2D8
330
17
100
AcDbEntity
  8
0
 62
5
100
AcDbCircle
 10
-275.6133333333334
 20
-159.0
 30
0.0
 40
0.5
  0
POINT
  5
2D9
330
17
100
AcDbEntity
  8
0
 62
2
100
AcDbPoint
 10
-274.6133333333334
 20
-158.0
 30
0.0
  0
CIRCLE
  5
2DA
330
17
100
AcDbEntity
  8
0
 62
5
100
AcDbCircle
 10
-274.6133333333334
 20
-158.0
 30
0.0
 40
0.5
  0
POINT
  5
2DB
330
17
100
AcDbEntity
  8
0
 62
2
100
AcDbPoint
 10
-258.6133333333334
 20
-158.0
 30
0.0
  0
CIRCLE
  5
2DC
330
17
100
AcDbEntity
  8
0
 62
5
100
AcDbCircle
 10
-258.6133333333334
 20
-158.0
 30
0.0
 40
0.5
  0
POINT
  5
2DD
330
17
100
AcDbEntity
  8
0
 62
2
100
AcDbPoint
 10
-257.6133333333334
 20
-157.0
 30
0.0
  0
CIRCLE
  5
2DE
330
17
100
AcDbEntity
  8
0
 62
5
100
AcDbCircle
 10
-257.6133333333334
 20
-157.0
 30
0.0
 40
0.5
  0
POINT
  5
2DF
330
17
100
AcDbEntity
  8
0
 62
2
100
AcDbPoint
 10
-256.6133333333334
 20
-157.0
 30
0.0
  0
CIRCLE
  5
2E0
330
17
100
AcDbEntity
  8
0
 62
5
100
AcDbCircle
 10
-256.6133333333334
 20
-157.0
 30
0.0
 40
0.5
  0
POINT
  5
2E1
330
17
100
AcDbEntity
  8
0
 62
2
100
AcDbPoint
 10
-255.6133333333334
 20
-156.0
 30
0.0
  0
CIRCLE
  5
2E2
330
17
100
AcDbEntity
  8
0
 62
5
100
AcDbCircle
 10
-255.6133333333334
 20
-156.0
 30
0.0
 40
0.5
  0
POINT
  5
2E3
330
17
100
AcDbEntity
  8
0
 62
2
100
AcDbPoint
 10
-252.6133333333334
 20
-156.0
 30
0.0
  0
CIRCLE
  5
2E4
330
17
100
AcDbEntity
  8
0
 62
5
100
AcDbCircle
 10
-252.6133333333334
 20
-156.0
 30
0.0
 40
0.5
  0
POINT
  5
2E5
330
17
100
AcDbEntity
  8
0
 62
2
100
AcDbPoint
 10
-251.6133333333334
 20
-155.0
 30
0.0
  0
CIRCLE
  5
2E6
330
17
100
AcDbEntity
  8
0
 62
5
100
AcDbCircle
 10
-251.6133333333334
 20
-155.0
 30
0.0
 40
0.5
  0
POINT
  5
2E7
330
17
100
AcDbEntity
  8
0
 62
2
100
AcDbPoint
 10
-245.6133333333334
 20
-155.0
 30
0.0
  0
CIRCLE
  5
2E8
330
17
100
AcDbEntity
  8
0
 62
5
100
AcDbCircle
 10
-245.6133333333334
 20
-155.0
 30
0.0
 40
0.5
  0
POINT
  5
2E9
330
17
100
AcDbEntity
  8
0
 62
2
100
AcDbPoint
 10
-244.6133333333334
 20
-154.0
 30
0.0
  0
CIRCLE
  5
2EA
330
17
100
AcDbEntity
  8
0
 62
5
100
AcDbCircle
 10
-244.6133333333334
 20
-154.0
 30
0.0
 40
0.5
  0
POINT
  5
2EB
330
17
100
AcDbEntity
  8
0
 62
2
100
AcDbPoint
 10
-241.6133333333334
 20
-154.0
 30
0.0
  0
CIRCLE
  5
2EC
330
17
100
AcDbEntity
  8
0
 62
5
100
AcDbCircle
 10
-241.6133333333334
 20
-154.0
 30
0.0
 40
0.5
  0
POINT
  5
2ED
330
17
100
AcDbEntity
  8
0
 62
2
100
AcDbPoint
 10
-240.6133333333334
 20
-153.0
 30
0.0
  0
CIRCLE
  5
2EE
330
17
100
AcDbEntity
  8
0
 62
5
100
AcDbCircle
 10
-240.6133333333334
 20
-153.0
 30
0.0
 40
0.5
  0
POINT
  5
2EF
330
17
100
AcDbEntity
  8
0
 62
2
100
AcDbPoint
 10
-233.6133333333334
 20
-153.0
 30
0.0
  0
CIRCLE
  5
2F0
330
17
100
AcDbEntity
  8
0
 62
5
100
AcDbCircle
 10
-233.6133333333334
 20
-153.0
 30
0.0
 40
0.5
  0
POINT
  5
2F1
330
17
100
AcDbEntity
  8
0
 62
2
100
AcDbPoint
 10
-232.6133333333334
 20
-152.0
 30
0.0
  0
CIRCLE
  5
2F2
330
17
100
AcDbEntity
  8
0
 62
5
100
AcDbCircle
 10
-232.6133333333334
 20
-152.0
 30
0.0
 40
0.5
  0
POINT
  5
2F3
330
17
100
AcDbEntity
  8
0
 62
2
100
AcDbPoint
 10
-231.6133333333334
 20
-153.0
 30
0.0
  0
CIRCLE
  5
2F4
330
17
100
AcDbEntity
  8
0
 62
5
100
AcDbCircle
 10
-231.6133333333334
 20
-153.0
 30
0.0
 40
0.5
  0
POINT
  5
2F5
330
17
100
AcDbEntity
  8
0
 62
2
100
AcDbPoint
 10
-229.6133333333334
 20
-153.0
 30
0.0
  0
CIRCLE
  5
2F6
330
17
100
AcDbEntity
  8
0
 62
5
100
AcDbCircle
 10
-229.6133333333334
 20
-153.0
 30
0.0
 40
0.5
  0
POINT
  5
2F7
330
17
100
AcDbEntity
  8
0
 62
2
100
AcDbPoint
 10
-228.6133333333334
 20
-152.0
 30
0.0
  0
CIRCLE
  5
2F8
330
17
100
AcDbEntity
  8
0
 62
5
100
AcDbCircle
 10
-228.6133333333334
 20
-152.0
 30
0.0
 40
0.5
  0
POINT
  5
2F9
330
17
100
AcDbEntity
  8
0
 62
2
100
AcDbPoint
 10
-228.6133333333334
 20
-147.0
 30
0.0
  0
CIRCLE
  5
2FA
330
17
100
AcDbEntity
  8
0
 62
5
100
AcDbCircle
 10
-228.6133333333334
 20
-147.0
 30
0.0
 40
0.5
  0
POINT
  5
2FB
330
17
100
AcDbEntity
  8
0
 62
2
100
AcDbPoint
 10
-227.6133333333334
 20
-146.0
 30
0.0
  0
CIRCLE
  5
2FC
330
17
100
AcDbEntity
  8
0
 62
5
100
AcDbCircle
 10
-227.6133333333334
 20
-146.0
 30
0.0
 40
0.5
  0
POINT
  5
2FD
330
17
100
AcDbEntity
  8
0
 62
2
100
AcDbPoint
 10
-227.6133333333334
 20
-133.0
 30
0.0
  0
CIRCLE
  5
2FE
330
17
100
AcDbEntity
  8
0
 62
5
100
AcDbCircle
 10
-227.6133333333334
 20
-133.0
 30
0.0
 40
0.5
  0
POINT
  5
2FF
330
17
100
AcDbEntity
  8
0
 62
2
100
AcDbPoint
 10
-226.6133333333334
 20
-132.0
 30
0.0
  0
CIRCLE
  5
300
330
17
100
AcDbEntity
  8
0
 62
5
100
AcDbCircle
 10
-226.6133333333334
 20
-132.0
 30
0.0
 40
0.5
  0
POINT
  5
301
330
17
100
AcDbEntity
  8
0
 62
2
100
AcDbPoint
 10
-225.6133333333334
 20
-132.0
 30
0.0
  0
CIRCLE
  5
302
330
17
100
AcDbEntity
  8
0
 62
5
100
AcDbCircle
 10
-225.6133333333334
 20
-132.0
 30
0.0
 40
0.5
  0
POINT
  5
303
330
17
100
AcDbEntity
  8
0
 62
2
100
AcDbPoint
 10
-224.6133333333334
 20
-131.0
 30
0.0
  0
CIRCLE
  5
304
330
17
100
AcDbEntity
  8
0
 62
5
100
AcDbCircle
 10
-224.6133333333334
 20
-131.0
 30
0.0
 40
0.5
  0
POINT
  5
305
330
17
100
AcDbEntity
  8
0
 62
2
100
AcDbPoint
 10
-213.6133333333334
 20
-131.0
 30
0.0
  0
CIRCLE
  5
306
330
17
100
AcDbEntity
  8
0
 62
5
100
AcDbCircle
 10
-213.6133333333334
 20
-131.0
 30
0.0
 40
0.5
  0
POINT
  5
307
330
17
100
AcDbEntity
  8
0
 62
2
100
AcDbPoint
 10
-212.6133333333334
 20
-130.0
 30
0.0
  0
CIRCLE
  5
308
330
17
100
AcDbEntity
  8
0
 62
5
100
AcDbCircle
 10
-212.6133333333334
 20
-130.0
 30
0.0
 40
0.5
  0
POINT
  5
309
330
17
100
AcDbEntity
  8
0
 62
2
100
AcDbPoint
 10
-206.6133333333334
 20
-130.0
 30
0.0
  0
CIRCLE
  5
30A
330
17
100
AcDbEntity
  8
0
 62
5
100
AcDbCircle
 10
-206.6133333333334
 20
-130.0
 30
0.0
 40
0.5
  0
POINT
  5
30B
330
17
100
AcDbEntity
  8
0
 62
2
100
AcDbPoint
 10
-205.6133333333334
 20
-129.0
 30
0.0
  0
CIRCLE
  5
30C
330
17
100
AcDbEntity
  8
0
 62
5
100
AcDbCircle
 10
-205.6133333333334
 20
-129.0
 30
0.0
 40
0.5
  0
POINT
  5
30D
330
17
100
AcDbEntity
  8
0
 62
2
100
AcDbPoint
 10
-194.6133333333334
 20
-129.0
 30
0.0
  0
CIRCLE
  5
30E
330
17
100
AcDbEntity
  8
0
 62
5
100
AcDbCircle
 10
-194.6133333333334
 20
-129.0
 30
0.0
 40
0.5
  0
POINT
  5
30F
330
17
100
AcDbEntity
  8
0
 62
2
100
AcDbPoint
 10
-193.6133333333334
 20
-130.0
 30
0.0
  0
CIRCLE
  5
310
330
17
100
AcDbEntity
  8
0
 62
5
100
AcDbCircle
 10
-193.6133333333334
 20
-130.0
 30
0.0
 40
0.5
  0
POINT
  5
311
330
17
100
AcDbEntity
  8
0
 62
2
100
AcDbPoint
 10
-183.6133333333334
 20
-130.0
 30
0.0
  0
CIRCLE
  5
312
330
17
100
AcDbEntity
  8
0
 62
5
100
AcDbCircle
 10
-183.6133333333334
 20
-130.0
 30
0.0
 40
0.5
  0
POINT
  5
313
330
17
100
AcDbEntity
  8
0
 62
2
100
AcDbPoint
 10
-182.6133333333334
 20
-129.0
 30
0.0
  0
CIRCLE
  5
314
330
17
100
AcDbEntity
  8
0
 62
5
100
AcDbCircle
 10
-182.6133333333334
 20
-129.0
 30
0.0
 40
0.5
  0
POINT
  5
315
330
17
100
AcDbEntity
  8
0
 62
2
100
AcDbPoint
 10
-181.6133333333334
 20
-129.0
 30
0.0
  0
CIRCLE
  5
316
330
17
100
AcDbEntity
  8
0
 62
5
100
AcDbCircle
 10
-181.6133333333334
 20
-129.0
 30
0.0
 40
0.5
  0
POINT
  5
317
330
17
100
AcDbEntity
  8
0
 62
2
100
AcDbPoint
 10
-180.6133333333334
 20
-130.0
 30
0.0
  0
CIRCLE
  5
318
330
17
100
AcDbEntity
  8
0
 62
5
100
AcDbCircle
 10
-180.6133333333334
 20
-130.0
 30
0.0
 40
0.5
  0
POINT
  5
319
330
17
100
AcDbEntity
  8
0
 62
2
100
AcDbPoint
 10
-179.6133333333334
 20
-130.0
 30
0.0
  0
CIRCLE
  5
31A
330
17
100
AcDbEntity
  8
0
 62
5
100
AcDbCircle
 10
-179.6133333333334
 20
-130.0
 30
0.0
 40
0.5
  0
POINT
  5
31B
330
17
100
AcDbEntity
  8
0
 62
2
100
AcDbPoint
 10
-178.6133333333334
 20
-131.0
 30
0.0
  0
CIRCLE
  5
31C
330
17
100
AcDbEntity
  8
0
 62
5
100
AcDbCircle
 10
-178.6133333333334
 20
-131.0
 30
0.0
 40
0.5
  0
POINT
  5
31D
330
17
100
AcDbEntity
  8
0
 62
2
100
AcDbPoint
 10
-178.6133333333334
 20
-134.0
 30
0.0
  0
CIRCLE
  5
31E
330
17
100
AcDbEntity
  8
0
 62
5
100
AcDbCircle
 10
-178.6133333333334
 20
-134.0
 30
0.0
 40
0.5
  0
POINT
  5
31F
330
17
100
AcDbEntity
  8
0
 62
2
100
AcDbPoint
 10
-177.6133333333334
 20
-135.0
 30
0.0
  0
CIRCLE
  5
320
330
17
100
AcDbEntity
  8
0
 62
5
100
AcDbCircle
 10
-177.6133333333334
 20
-135.0
 30
0.0
 40
0.5
  0
POINT
  5
321
330
17
100
AcDbEntity
  8
0
 62
2
100
AcDbPoint
 10
-177.6133333333334
 20
-141.0
 30
0.0
  0
CIRCLE
  5
322
330
17
100
AcDbEntity
  8
0
 62
5
100
AcDbCircle
 10
-177.6133333333334
 20
-141.0
 30
0.0
 40
0.5
  0
POINT
  5
323
330
17
100
AcDbEntity
  8
0
 62
2
100
AcDbPoint
 10
-176.6133333333334
 20
-142.0
 30
0.0
  0
CIRCLE
  5
324
330
17
100
AcDbEntity
  8
0
 62
5
100
AcDbCircle
 10
-176.6133333333334
 20
-142.0
 30
0.0
 40
0.5
  0
POINT
  5
325
330
17
100
AcDbEntity
  8
0
 62
2
100
AcDbPoint
 10
-176.6133333333334
 20
-143.0
 30
0.0
  0
CIRCLE
  5
326
330
17
100
AcDbEntity
  8
0
 62
5
100
AcDbCircle
 10
-176.6133333333334
 20
-143.0
 30
0.0
 40
0.5
  0
POINT
  5
327
330
17
100
AcDbEntity
  8
0
 62
2
100
AcDbPoint
 10
-171.6133333333334
 20
-143.0
 30
0.0
  0
CIRCLE
  5
328
330
17
100
AcDbEntity
  8
0
 62
5
100
AcDbCircle
 10
-171.6133333333334
 20
-143.0
 30
0.0
 40
0.5
  0
POINT
  5
329
330
17
100
AcDbEntity
  8
0
 62
2
100
AcDbPoint
 10
-170.6133333333334
 20
-142.0
 30
0.0
  0
CIRCLE
  5
32A
330
17
100
AcDbEntity
  8
0
 62
5
100
AcDbCircle
 10
-170.6133333333334
 20
-142.0
 30
0.0
 40
0.5
  0
POINT
  5
32B
330
17
100
AcDbEntity
  8
0
 62
2
100
AcDbPoint
 10
-165.6133333333334
 20
-142.0
 30
0.0
  0
CIRCLE
  5
32C
330
17
100
AcDbEntity
  8
0
 62
5
100
AcDbCircle
 10
-165.6133333333334
 20
-142.0
 30
0.0
 40
0.5
  0
POINT
  5
32D
330
17
100
AcDbEntity
  8
0
 62
2
100
AcDbPoint
 10
-164.6133333333334
 20
-141.0
 30
0.0
  0
CIRCLE
  5
32E
330
17
100
AcDbEntity
  8
0
 62
5
100
AcDbCircle
 10
-164.6133333333334
 20
-141.0
 30
0.0
 40
0.5
  0
POINT
  5
32F
330
17
100
AcDbEntity
  8
0
 62
2
100
AcDbPoint
 10
-144.6133333333334
 20
-141.0
 30
0.0
  0
CIRCLE
  5
330
330
17
100
AcDbEntity
  8
0
 62
5
100
AcDbCircle
 10
-144.6133333333334
 20
-141.0
 30
0.0
 40
0.5
  0
POINT
  5
331
330
17
100
AcDbEntity
  8
0
 62
2
100
AcDbPoint
 10
-143.6133333333334
 20
-142.0
 30
0.0
  0
CIRCLE
  5
332
330
17
100
AcDbEntity
  8
0
 62
5
100
AcDbCircle
 10
-143.6133333333334
 20
-142.0
 30
0.0
 40
0.5
  0
POINT
  5
333
330
17
100
AcDbEntity
  8
0
 62
2
100
AcDbPoint
 10
-135.6133333333334
 20
-142.0
 30
0.0
  0
CIRCLE
  5
334
330
17
100
AcDbEntity
  8
0
 62
5
100
AcDbCircle
 10
-135.6133333333334
 20
-142.0
 30
0.0
 40
0.5
  0
POINT
  5
335
330
17
100
AcDbEntity
  8
0
 62
2
100
AcDbPoint
 10
-134.6133333333334
 20
-141.0
 30
0.0
  0
CIRCLE
  5
336
330
17
100
AcDbEntity
  8
0
 62
5
100
AcDbCircle
 10
-134.6133333333334
 20
-141.0
 30
0.0
 40
0.5
  0
POINT
  5
337
330
17
100
AcDbEntity
  8
0
 62
2
100
AcDbPoint
 10
-135.6133333333334
 20
-140.0
 30
0.0
  0
CIRCLE
  5
338
330
17
100
AcDbEntity
  8
0
 62
5
100
AcDbCircle
 10
-135.6133333333334
 20
-140.0
 30
0.0
 40
0.5
  0
POINT
  5
339
330
17
100
AcDbEntity
  8
0
 62
2
100
AcDbPoint
 10
-135.6133333333334
 20
-136.0
 30
0.0
  0
CIRCLE
  5
33A
330
17
100
AcDbEntity
  8
0
 62
5
100
AcDbCircle
 10
-135.6133333333334
 20
-136.0
 30
0.0
 40
0.5
  0
POINT
  5
33B
330
17
100
AcDbEntity
  8
0
 62
2
100
AcDbPoint
 10
-136.6133333333334
 20
-135.0
 30
0.0
  0
CIRCLE
  5
33C
330
17
100
AcDbEntity
  8
0
 62
5
100
AcDbCircle
 10
-136.6133333333334
 20
-135.0
 30
0.0
 40
0.5
  0
POINT
  5
33D
330
17
100
AcDbEntity
  8
0
 62
2
100
AcDbPoint
 10
-136.6133333333334
 20
-133.0
 30
0.0
  0
CIRCLE
  5
33E
330
17
100
AcDbEntity
  8
0
 62
5
100
AcDbCircle
 10
-136.6133333333334
 20
-133.0
 30
0.0
 40
0.5
  0
POINT
  5
33F
330
17
100
AcDbEntity
  8
0
 62
2
100
AcDbPoint
 10
-137.6133333333334
 20
-132.0
 30
0.0
  0
CIRCLE
  5
340
330
17
100
AcDbEntity
  8
0
 62
5
100
AcDbCircle
 10
-137.6133333333334
 20
-132.0
 30
0.0
 40
0.5
  0
POINT
  5
341
330
17
100
AcDbEntity
  8
0
 62
2
100
AcDbPoint
 10
-137.6133333333334
 20
-126.0
 30
0.0
  0
CIRCLE
  5
342
330
17
100
AcDbEntity
  8
0
 62
5
100
AcDbCircle
 10
-137.6133333333334
 20
-126.0
 30
0.0
 40
0.5
  0
POINT
  5
343
330
17
100
AcDbEntity
  8
0
 62
2
100
AcDbPoint
 10
-138.6133333333334
 20
-125.0
 30
0.0
  0
CIRCLE
  5
344
330
17
100
AcDbEntity
  8
0
 62
5
100
AcDbCircle
 10
-138.6133333333334
 20
-125.0
 30
0.0
 40
0.5
  0
POINT
  5
345
330
17
100
AcDbEntity
  8
0
 62
2
100
AcDbPoint
 10
-138.6133333333334
 20
-120.0
 30
0.0
  0
CIRCLE
  5
346
330
17
100
AcDbEntity
  8
0
 62
5
100
AcDbCircle
 10
-138.6133333333334
 20
-120.0
 30
0.0
 40
0.5
  0
POINT
  5
347
330
17
100
AcDbEntity
  8
0
 62
2
100
AcDbPoint
 10
-139.6133333333334
 20
-119.0
 30
0.0
  0
CIRCLE
  5
348
330
17
100
AcDbEntity
  8
0
 62
5
100
AcDbCircle
 10
-139.6133333333334
 20
-119.0
 30
0.0
 40
0.5
  0
POINT
  5
349
330
17
100
AcDbEntity
  8
0
 62
2
100
AcDbPoint
 10
-139.6133333333334
 20
-117.0
 30
0.0
  0
CIRCLE
  5
34A
330
17
100
AcDbEntity
  8
0
 62
5
100
AcDbCircle
 10
-139.6133333333334
 20
-117.0
 30
0.0
 40
0.5
  0
POINT
  5
34B
330
17
100
AcDbEntity
  8
0
 62
2
100
AcDbPoint
 10
-140.6133333333334
 20
-116.0
 30
0.0
  0
CIRCLE
  5
34C
330
17
100
AcDbEntity
  8
0
 62
5
100
AcDbCircle
 10
-140.6133333333334
 20
-116.0
 30
0.0
 40
0.5
  0
POINT
  5
34D
330
17
100
AcDbEntity
  8
0
 62
2
100
AcDbPoint
 10
-140.6133333333334
 20
-111.0
 30
0.0
  0
CIRCLE
  5
34E
330
17
100
AcDbEntity
  8
0
 62
5
100
AcDbCircle
 10
-140.6133333333334
 20
-111.0
 30
0.0
 40
0.5
  0
POINT
  5
34F
330
17
100
AcDbEntity
  8
0
 62
2
100
AcDbPoint
 10
-141.6133333333334
 20
-110.0
 30
0.0
  0
CIRCLE
  5
350
330
17
100
AcDbEntity
  8
0
 62
5
100
AcDbCircle
 10
-141.6133333333334
 20
-110.0
 30
0.0
 40
0.5
  0
POINT
  5
351
330
17
100
AcDbEntity
  8
0
 62
2
100
AcDbPoint
 10
-141.6133333333334
 20
-107.0
 30
0.0
  0
CIRCLE
  5
352
330
17
100
AcDbEntity
  8
0
 62
5
100
AcDbCircle
 10
-141.6133333333334
 20
-107.0
 30
0.0
 40
0.5
  0
POINT
  5
353
330
17
100
AcDbEntity
  8
0
 62
2
100
AcDbPoint
 10
-142.6133333333334
 20
-106.0
 30
0.0
  0
CIRCLE
  5
354
330
17
100
AcDbEntity
  8
0
 62
5
100
AcDbCircle
 10
-142.6133333333334
 20
-106.0
 30
0.0
 40
0.5
  0
POINT
  5
355
330
17
100
AcDbEntity
  8
0
 62
2
100
AcDbPoint
 10
-142.6133333333334
 20
-105.0
 30
0.0
  0
CIRCLE
  5
356
330
17
100
AcDbEntity
  8
0
 62
5
100
AcDbCircle
 10
-142.6133333333334
 20
-105.0
 30
0.0
 40
0.5
  0
POINT
  5
357
330
17
100
AcDbEntity
  8
0
 62
2
100
AcDbPoint
 10
-143.6133333333334
 20
-104.0
 30
0.0
  0
CIRCLE
  5
358
330
17
100
AcDbEntity
  8
0
 62
5
100
AcDbCircle
 10
-143.6133333333334
 20
-104.0
 30
0.0
 40
0.5
  0
POINT
  5
359
330
17
100
AcDbEntity
  8
0
 62
2
100
AcDbPoint
 10
-143.6133333333334
 20
-102.0
 30
0.0
  0
CIRCLE
  5
35A
330
17
100
AcDbEntity
  8
0
 62
5
100
AcDbCircle
 10
-143.6133333333334
 20
-102.0
 30
0.0
 40
0.5
  0
POINT
  5
35B
330
17
100
AcDbEntity
  8
0
 62
2
100
AcDbPoint
 10
-144.6133333333334
 20
-101.0
 30
0.0
  0
CIRCLE
  5
35C
330
17
100
AcDbEntity
  8
0
 62
5
100
AcDbCircle
 10
-144.6133333333334
 20
-101.0
 30
0.0
 40
0.5
  0
POINT
  5
35D
330
17
100
AcDbEntity
  8
0
 62
2
100
AcDbPoint
 10
-144.6133333333334
 20
-98.0
 30
0.0
  0
CIRCLE
  5
35E
330
17
100
AcDbEntity
  8
0
 62
5
100
AcDbCircle
 10
-144.6133333333334
 20
-98.0
 30
0.0
 40
0.5
  0
POINT
  5
35F
330
17
100
AcDbEntity
  8
0
 62
2
100
AcDbPoint
 10
-145.6133333333334
 20
-97.0
 30
0.0
  0
CIRCLE
  5
360
330
17
100
AcDbEntity
  8
0
 62
5
100
AcDbCircle
 10
-145.6133333333334
 20
-97.0
 30
0.0
 40
0.5
  0
POINT
  5
361
330
17
100
AcDbEntity
  8
0
 62
2
100
AcDbPoint
 10
-145.6133333333334
 20
-96.0
 30
0.0
  0
CIRCLE
  5
362
330
17
100
AcDbEntity
  8
0
 62
5
100
AcDbCircle
 10
-145.6133333333334
 20
-96.0
 30
0.0
 40
0.5
  0
POINT
  5
363
330
17
100
AcDbEntity
  8
0
 62
2
100
AcDbPoint
 10
-146.6133333333334
 20
-95.0
 30
0.0
  0
CIRCLE
  5
364
330
17
100
AcDbEntity
  8
0
 62
5
100
AcDbCircle
 10
-146.6133333333334
 20
-95.0
 30
0.0
 40
0.5
  0
POINT
  5
365
330
17
100
AcDbEntity
  8
0
 62
2
100
AcDbPoint
 10
-146.6133333333334
 20
-91.0
 30
0.0
  0
CIRCLE
  5
366
330
17
100
AcDbEntity
  8
0
 62
5
100
AcDbCircle
 10
-146.6133333333334
 20
-91.0
 30
0.0
 40
0.5
  0
POINT
  5
367
330
17
100
AcDbEntity
  8
0
 62
2
100
AcDbPoint
 10
-147.6133333333334
 20
-90.0
 30
0.0
  0
CIRCLE
  5
368
330
17
100
AcDbEntity
  8
0
 62
5
100
AcDbCircle
 10
-147.6133333333334
 20
-90.0
 30
0.0
 40
0.5
  0
POINT
  5
369
330
17
100
AcDbEntity
  8
0
 62
2
100
AcDbPoint
 10
-147.6133333333334
 20
-85.0
 30
0.0
  0
CIRCLE
  5
36A
330
17
100
AcDbEntity
  8
0
 62
5
100
AcDbCircle
 10
-147.6133333333334
 20
-85.0
 30
0.0
 40
0.5
  0
POINT
  5
36B
330
17
100
AcDbEntity
  8
0
 62
2
100
AcDbPoint
 10
-148.6133333333334
 20
-84.0
 30
0.0
  0
CIRCLE
  5
36C
330
17
100
AcDbEntity
  8
0
 62
5
100
AcDbCircle
 10
-148.6133333333334
 20
-84.0
 30
0.0
 40
0.5
  0
POINT
  5
36D
330
17
100
AcDbEntity
  8
0
 62
2
100
AcDbPoint
 10
-148.6133333333334
 20
-82.0
 30
0.0
  0
CIRCLE
  5
36E
330
17
100
AcDbEntity
  8
0
 62
5
100
AcDbCircle
 10
-148.6133333333334
 20
-82.0
 30
0.0
 40
0.5
  0
POINT
  5
36F
330
17
100
AcDbEntity
  8
0
 62
2
100
AcDbPoint
 10
-149.6133333333334
 20
-81.0
 30
0.0
  0
CIRCLE
  5
370
330
17
100
AcDbEntity
  8
0
 62
5
100
AcDbCircle
 10
-149.6133333333334
 20
-81.0
 30
0.0
 40
0.5
  0
POINT
  5
371
330
17
100
AcDbEntity
  8
0
 62
2
100
AcDbPoint
 10
-149.6133333333334
 20
-78.0
 30
0.0
  0
CIRCLE
  5
372
330
17
100
AcDbEntity
  8
0
 62
5
100
AcDbCircle
 10
-149.6133333333334
 20
-78.0
 30
0.0
 40
0.5
  0
POINT
  5
373
330
17
100
AcDbEntity
  8
0
 62
2
100
AcDbPoint
 10
-150.6133333333334
 20
-77.0
 30
0.0
  0
CIRCLE
  5
374
330
17
100
AcDbEntity
  8
0
 62
5
100
AcDbCircle
 10
-150.6133333333334
 20
-77.0
 30
0.0
 40
0.5
  0
POINT
  5
375
330
17
100
AcDbEntity
  8
0
 62
2
100
AcDbPoint
 10
-150.6133333333334
 20
-75.0
 30
0.0
  0
CIRCLE
  5
376
330
17
100
AcDbEntity
  8
0
 62
5
100
AcDbCircle
 10
-150.6133333333334
 20
-75.0
 30
0.0
 40
0.5
  0
POINT
  5
377
330
17
100
AcDbEntity
  8
0
 62
2
100
AcDbPoint
 10
-152.6133333333334
 20
-73.0
 30
0.0
  0
CIRCLE
  5
378
330
17
100
AcDbEntity
  8
0
 62
5
100
AcDbCircle
 10
-152.6133333333334
 20
-73.0
 30
0.0
 40
0.5
  0
POINT
  5
379
330
17
100
AcDbEntity
  8
0
 62
2
100
AcDbPoint
 10
-152.6133333333334
 20
-70.0
 30
0.0
  0
CIRCLE
  5
37A
330
17
100
AcDbEntity
  8
0
 62
5
100
AcDbCircle
 10
-152.6133333333334
 20
-70.0
 30
0.0
 40
0.5
  0
POINT
  5
37B
330
17
100
AcDbEntity
  8
0
 62
2
100
AcDbPoint
 10
-153.6133333333334
 20
-69.0
 30
0.0
  0
CIRCLE
  5
37C
330
17
100
AcDbEntity
  8
0
 62
5
100
AcDbCircle
 10
-153.6133333333334
 20
-69.0
 30
0.0
 40
0.5
  0
POINT
  5
37D
330
17
100
AcDbEntity
  8
0
 62
2
100
AcDbPoint
 10
-153.6133333333334
 20
-67.0
 30
0.0
  0
CIRCLE
  5
37E
330
17
100
AcDbEntity
  8
0
 62
5
100
AcDbCircle
 10
-153.6133333333334
 20
-67.0
 30
0.0
 40
0.5
  0
POINT
  5
37F
330
17
100
AcDbEntity
  8
0
 62
2
100
AcDbPoint
 10
-155.6133333333334
 20
-65.0
 30
0.0
  0
CIRCLE
  5
380
330
17
100
AcDbEntity
  8
0
 62
5
100
AcDbCircle
 10
-155.6133333333334
 20
-65.0
 30
0.0
 40
0.5
  0
POINT
  5
381
330
17
100
AcDbEntity
  8
0
 62
2
100
AcDbPoint
 10
-155.6133333333334
 20
-63.0
 30
0.0
  0
CIRCLE
  5
382
330
17
100
AcDbEntity
  8
0
 62
5
100
AcDbCircle
 10
-155.6133333333334
 20
-63.0
 30
0.0
 40
0.5
  0
POINT
  5
383
330
17
100
AcDbEntity
  8
0
 62
2
100
AcDbPoint
 10
-156.6133333333334
 20
-62.0
 30
0.0
  0
CIRCLE
  5
384
330
17
100
AcDbEntity
  8
0
 62
5
100
AcDbCircle
 10
-156.6133333333334
 20
-62.0
 30
0.0
 40
0.5
  0
POINT
  5
385
330
17
100
AcDbEntity
  8
0
 62
2
100
AcDbPoint
 10
-156.6133333333334
 20
-61.0
 30
0.0
  0
CIRCLE
  5
386
330
17
100
AcDbEntity
  8
0
 62
5
100
AcDbCircle
 10
-156.6133333333334
 20
-61.0
 30
0.0
 40
0.5
  0
POINT
  5
387
330
17
100
AcDbEntity
  8
0
 62
2
100
AcDbPoint
 10
-157.6133333333334
 20
-60.0
 30
0.0
  0
CIRCLE
  5
388
330
17
100
AcDbEntity
  8
0
 62
5
100
AcDbCircle
 10
-157.6133333333334
 20
-60.0
 30
0.0
 40
0.5
  0
POINT
  5
389
330
17
100
AcDbEntity
  8
0
 62
2
100
AcDbPoint
 10
-157.6133333333334
 20
-59.0
 30
0.0
  0
CIRCLE
  5
38A
330
17
100
AcDbEntity
  8
0
 62
5
100
AcDbCircle
 10
-157.6133333333334
 20
-59.0
 30
0.0
 40
0.5
  0
POINT
  5
38B
330
17
100
AcDbEntity
  8
0
 62
2
100
AcDbPoint
 10
-158.6133333333334
 20
-58.0
 30
0.0
  0
CIRCLE
  5
38C
330
17
100
AcDbEntity
  8
0
 62
5
100
AcDbCircle
 10
-158.6133333333334
 20
-58.0
 30
0.0
 40
0.5
  0
POINT
  5
38D
330
17
100
AcDbEntity
  8
0
 62
2
100
AcDbPoint
 10
-158.6133333333334
 20
-57.0
 30
0.0
  0
CIRCLE
  5
38E
330
17
100
AcDbEntity
  8
0
 62
5
100
AcDbCircle
 10
-158.6133333333334
 20
-57.0
 30
0.0
 40
0.5
  0
POINT
  5
38F
330
17
100
AcDbEntity
  8
0
 62
2
100
AcDbPoint
 10
-159.6133333333334
 20
-56.0
 30
0.0
  0
CIRCLE
  5
390
330
17
100
AcDbEntity
  8
0
 62
5
100
AcDbCircle
 10
-159.6133333333334
 20
-56.0
 30
0.0
 40
0.5
  0
POINT
  5
391
330
17
100
AcDbEntity
  8
0
 62
2
100
AcDbPoint
 10
-159.6133333333334
 20
-54.0
 30
0.0
  0
CIRCLE
  5
392
330
17
100
AcDbEntity
  8
0
 62
5
100
AcDbCircle
 10
-159.6133333333334
 20
-54.0
 30
0.0
 40
0.5
  0
POINT
  5
393
330
17
100
AcDbEntity
  8
0
 62
2
100
AcDbPoint
 10
-161.6133333333334
 20
-52.0
 30
0.0
  0
CIRCLE
  5
394
330
17
100
AcDbEntity
  8
0
 62
5
100
AcDbCircle
 10
-161.6133333333334
 20
-52.0
 30
0.0
 40
0.5
  0
POINT
  5
395
330
17
100
AcDbEntity
  8
0
 62
2
100
AcDbPoint
 10
-161.6133333333334
 20
-51.0
 30
0.0
  0
CIRCLE
  5
396
330
17
100
AcDbEntity
  8
0
 62
5
100
AcDbCircle
 10
-161.6133333333334
 20
-51.0
 30
0.0
 40
0.5
  0
POINT
  5
397
330
17
100
AcDbEntity
  8
0
 62
2
100
AcDbPoint
 10
-162.6133333333334
 20
-50.0
 30
0.0
  0
CIRCLE
  5
398
330
17
100
AcDbEntity
  8
0
 62
5
100
AcDbCircle
 10
-162.6133333333334
 20
-50.0
 30
0.0
 40
0.5
  0
POINT
  5
399
330
17
100
AcDbEntity
  8
0
 62
2
100
AcDbPoint
 10
-162.6133333333334
 20
-48.0
 30
0.0
  0
CIRCLE
  5
39A
330
17
100
AcDbEntity
  8
0
 62
5
100
AcDbCircle
 10
-162.6133333333334
 20
-48.0
 30
0.0
 40
0.5
  0
POINT
  5
39B
330
17
100
AcDbEntity
  8
0
 62
2
100
AcDbPoint
 10
-163.6133333333334
 20
-47.0
 30
0.0
  0
CIRCLE
  5
39C
330
17
100
AcDbEntity
  8
0
 62
5
100
AcDbCircle
 10
-163.6133333333334
 20
-47.0
 30
0.0
 40
0.5
  0
POINT
  5
39D
330
17
100
AcDbEntity
  8
0
 62
2
100
AcDbPoint
 10
-163.6133333333334
 20
-46.0
 30
0.0
  0
CIRCLE
  5
39E
330
17
100
AcDbEntity
  8
0
 62
5
100
AcDbCircle
 10
-163.6133333333334
 20
-46.0
 30
0.0
 40
0.5
  0
POINT
  5
39F
330
17
100
AcDbEntity
  8
0
 62
2
100
AcDbPoint
 10
-164.6133333333334
 20
-45.0
 30
0.0
  0
CIRCLE
  5
3A0
330
17
100
AcDbEntity
  8
0
 62
5
100
AcDbCircle
 10
-164.6133333333334
 20
-45.0
 30
0.0
 40
0.5
  0
POINT
  5
3A1
330
17
100
AcDbEntity
  8
0
 62
2
100
AcDbPoint
 10
-164.6133333333334
 20
-43.0
 30
0.0
  0
CIRCLE
  5
3A2
330
17
100
AcDbEntity
  8
0
 62
5
100
AcDbCircle
 10
-164.6133333333334
 20
-43.0
 30
0.0
 40
0.5
  0
POINT
  5
3A3
330
17
100
AcDbEntity
  8
0
 62
2
100
AcDbPoint
 10
-165.6133333333334
 20
-42.0
 30
0.0
  0
CIRCLE
  5
3A4
330
17
100
AcDbEntity
  8
0
 62
5
100
AcDbCircle
 10
-165.6133333333334
 20
-42.0
 30
0.0
 40
0.5
  0
POINT
  5
3A5
330
17
100
AcDbEntity
  8
0
 62
2
100
AcDbPoint
 10
-165.6133333333334
 20
-40.0
 30
0.0
  0
CIRCLE
  5
3A6
330
17
100
AcDbEntity
  8
0
 62
5
100
AcDbCircle
 10
-165.6133333333334
 20
-40.0
 30
0.0
 40
0.5
  0
POINT
  5
3A7
330
17
100
AcDbEntity
  8
0
 62
2
100
AcDbPoint
 10
-167.6133333333334
 20
-38.0
 30
0.0
  0
CIRCLE
  5
3A8
330
17
100
AcDbEntity
  8
0
 62
5
100
AcDbCircle
 10
-167.6133333333334
 20
-38.0
 30
0.0
 40
0.5
  0
POINT
  5
3A9
330
17
100
AcDbEntity
  8
0
 62
2
100
AcDbPoint
 10
-167.6133333333334
 20
-36.0
 30
0.0
  0
CIRCLE
  5
3AA
330
17
100
AcDbEntity
  8
0
 62
5
100
AcDbCircle
 10
-167.6133333333334
 20
-36.0
 30
0.0
 40
0.5
  0
POINT
  5
3AB
330
17
100
AcDbEntity
  8
0
 62
2
100
AcDbPoint
 10
-168.6133333333334
 20
-35.0
 30
0.0
  0
CIRCLE
  5
3AC
330
17
100
AcDbEntity
  8
0
 62
5
100
AcDbCircle
 10
-168.6133333333334
 20
-35.0
 30
0.0
 40
0.5
  0
POINT
  5
3AD
330
17
100
AcDbEntity
  8
0
 62
2
100
AcDbPoint
 10
-168.6133333333334
 20
-33.0
 30
0.0
  0
CIRCLE
  5
3AE
330
17
100
AcDbEntity
  8
0
 62
5
100
AcDbCircle
 10
-168.6133333333334
 20
-33.0
 30
0.0
 40
0.5
  0
POINT
  5
3AF
330
17
100
AcDbEntity
  8
0
 62
2
100
AcDbPoint
 10
-170.6133333333334
 20
-31.0
 30
0.0
  0
CIRCLE
  5
3B0
330
17
100
AcDbEntity
  8
0
 62
5
100
AcDbCircle
 10
-170.6133333333334
 20
-31.0
 30
0.0
 40
0.5
  0
POINT
  5
3B1
330
17
100
AcDbEntity
  8
0
 62
2
100
AcDbPoint
 10
-170.6133333333334
 20
-30.0
 30
0.0
  0
CIRCLE
  5
3B2
330
17
100
AcDbEntity
  8
0
 62
5
100
AcDbCircle
 10
-170.6133333333334
 20
-30.0
 30
0.0
 40
0.5
  0
POINT
  5
3B3
330
17
100
AcDbEntity
  8
0
 62
2
100
AcDbPoint
 10
-171.6133333333334
 20
-29.0
 30
0.0
  0
CIRCLE
  5
3B4
330
17
100
AcDbEntity
  8
0
 62
5
100
AcDbCircle
 10
-171.6133333333334
 20
-29.0
 30
0.0
 40
0.5
  0
POINT
  5
3B5
330
17
100
AcDbEntity
  8
0
 62
2
100
AcDbPoint
 10
-171.6133333333334
 20
-25.0
 30
0.0
  0
CIRCLE
  5
3B6
330
17
100
AcDbEntity
  8
0
 62
5
100
AcDbCircle
 10
-171.6133333333334
 20
-25.0
 30
0.0
 40
0.5
  0
POINT
  5
3B7
330
17
100
AcDbEntity
  8
0
 62
2
100
AcDbPoint
 10
-172.6133333333334
 20
-24.0
 30
0.0
  0
CIRCLE
  5
3B8
330
17
100
AcDbEntity
  8
0
 62
5
100
AcDbCircle
 10
-172.6133333333334
 20
-24.0
 30
0.0
 40
0.5
  0
POINT
  5
3B9
330
17
100
AcDbEntity
  8
0
 62
2
100
AcDbPoint
 10
-172.6133333333334
 20
-23.0
 30
0.0
  0
CIRCLE
  5
3BA
330
17
100
AcDbEntity
  8
0
 62
5
100
AcDbCircle
 10
-172.6133333333334
 20
-23.0
 30
0.0
 40
0.5
  0
POINT
  5
3BB
330
17
100
AcDbEntity
  8
0
 62
2
100
AcDbPoint
 10
-173.6133333333334
 20
-22.0
 30
0.0
  0
CIRCLE
  5
3BC
330
17
100
AcDbEntity
  8
0
 62
5
100
AcDbCircle
 10
-173.6133333333334
 20
-22.0
 30
0.0
 40
0.5
  0
POINT
  5
3BD
330
17
100
AcDbEntity
  8
0
 62
2
100
AcDbPoint
 10
-173.6133333333334
 20
-21.0
 30
0.0
  0
CIRCLE
  5
3BE
330
17
100
AcDbEntity
  8
0
 62
5
100
AcDbCircle
 10
-173.6133333333334
 20
-21.0
 30
0.0
 40
0.5
  0
POINT
  5
3BF
330
17
100
AcDbEntity
  8
0
 62
2
100
AcDbPoint
 10
-174.6133333333334
 20
-20.0
 30
0.0
  0
CIRCLE
  5
3C0
330
17
100
AcDbEntity
  8
0
 62
5
100
AcDbCircle
 10
-174.6133333333334
 20
-20.0
 30
0.0
 40
0.5
  0
POINT
  5
3C1
330
17
100
AcDbEntity
  8
0
 62
2
100
AcDbPoint
 10
-174.6133333333334
 20
-18.0
 30
0.0
  0
CIRCLE
  5
3C2
330
17
100
AcDbEntity
  8
0
 62
5
100
AcDbCircle
 10
-174.6133333333334
 20
-18.0
 30
0.0
 40
0.5
  0
POINT
  5
3C3
330
17
100
AcDbEntity
  8
0
 62
6
100
AcDbPoint
 10
-62.09238095238099
 20
-92.71428571428571
 30
0.0
  0
CIRCLE
  5
3C4
330
17
100
AcDbEntity
  8
0
 62
6
100
AcDbCircle
 10
-62.09238095238099
 20
-92.71428571428571
 30
0.0
 40
0.5
  0
POINT
  5
3C5
330
17
100
AcDbEntity
  8
0
 62
6
100
AcDbPoint
 10
-63.8066666666667
 20
-89.85714285714286
 30
0.0
  0
CIRCLE
  5
3C6
330
17
100
AcDbEntity
  8
0
 62
6
100
AcDbCircle
 10
-63.8066666666667
 20
-89.85714285714286
 30
0.0
 40
0.5
  0
POINT
  5
3C7
330
17
100
AcDbEntity
  8
0
 62
6
100
AcDbPoint
 10
-65.52095238095241
 20
-87.0
 30
0.0
  0
CIRCLE
  5
3C8
330
17
100
AcDbEntity
  8
0
 62
6
100
AcDbCircle
 10
-65.52095238095241
 20
-87.0
 30
0.0
 40
0.5
  0
POINT
  5
3C9
330
17
100
AcDbEntity
  8
0
 62
6
100
AcDbPoint
 10
-67.02095238095241
 20
-84.28571428571428
 30
0.0
  0
CIRCLE
  5
3CA
330
17
100
AcDbEntity
  8
0
 62
6
100
AcDbCircle
 10
-67.02095238095241
 20
-84.28571428571428
 30
0.0
 40
0.5
  0
POINT
  5
3CB
330
17
100
AcDbEntity
  8
0
 62
6
100
AcDbPoint
 10
-68.52095238095241
 20
-81.57142857142857
 30
0.0
  0
CIRCLE
  5
3CC
330
17
100
AcDbEntity
  8
0
 62
6
100
AcDbCircle
 10
-68.52095238095241
 20
-81.57142857142857
 30
0.0
 40
0.5
  0
POINT
  5
3CD
330
17
100
AcDbEntity
  8
0
 62
6
100
AcDbPoint
 10
-70.16380952380956
 20
-78.73015873015873
 30
0.0
  0
CIRCLE
  5
3CE
330
17
100
AcDbEntity
  8
0
 62
6
100
AcDbCircle
 10
-70.16380952380956
 20
-78.73015873015873
 30
0.0
 40
0.5
  0
POINT
  5
3CF
330
17
100
AcDbEntity
  8
0
 62
6
100
AcDbPoint
 10
-71.8066666666667
 20
-75.88888888888889
 30
0.0
  0
CIRCLE
  5
3D0
330
17
100
AcDbEntity
  8
0
 62
6
100
AcDbCircle
 10
-71.8066666666667
 20
-75.88888888888889
 30
0.0
 40
0.5
  0
POINT
  5
3D1
330
17
100
AcDbEntity
  8
0
 62
6
100
AcDbPoint
 10
-73.1816666666667
 20
-73.56944444444444
 30
0.0
  0
CIRCLE
  5
3D2
330
17
100
AcDbEntity
  8
0
 62
6
100
AcDbCircle
 10
-73.1816666666667
 20
-73.56944444444444
 30
0.0
 40
0.5
  0
POINT
  5
3D3
330
17
100
AcDbEntity
  8
0
 62
6
100
AcDbPoint
 10
-74.5566666666667
 20
-71.25
 30
0.0
  0
CIRCLE
  5
3D4
330
17
100
AcDbEntity
  8
0
 62
6
100
AcDbCircle
 10
-74.5566666666667
 20
-71.25
 30
0.0
 40
0.5
  0
POINT
  5
3D5
330
17
100
AcDbEntity
  8
0
 62
6
100
AcDbPoint
 10
-76.84833333333336
 20
-67.70833333333334
 30
0.0
  0
CIRCLE
  5
3D6
330
17
100
AcDbEntity
  8
0
 62
6
100
AcDbCircle
 10
-76.84833333333336
 20
-67.70833333333334
 30
0.0
 40
0.5
  0
POINT
  5
3D7
330
17
100
AcDbEntity
  8
0
 62
6
100
AcDbPoint
 10
-79.14000000000003
 20
-64.16666666666667
 30
0.0
  0
CIRCLE
  5
3D8
330
17
100
AcDbEntity
  8
0
 62
6
100
AcDbCircle
 10
-79.14000000000003
 20
-64.16666666666667
 30
0.0
 40
0.5
  0
POINT
  5
3D9
330
17
100
AcDbEntity
  8
0
 62
6
100
AcDbPoint
 10
-80.84833333333336
 20
-61.458333333333336
 30
0.0
  0
CIRCLE
  5
3DA
330
17
100
AcDbEntity
  8
0
 62
6
100
AcDbCircle
 10
-80.84833333333336
 20
-61.458333333333336
 30
0.0
 40
0.5
  0
POINT
  5
3DB
330
17
100
AcDbEntity
  8
0
 62
6
100
AcDbPoint
 10
-82.5566666666667
 20
-58.75
 30
0.0
  0
CIRCLE
  5
3DC
330
17
100
AcDbEntity
  8
0
 62
6
100
AcDbCircle
 10
-82.5566666666667
 20
-58.75
 30
0.0
 40
0.5
  0
POINT
  5
3DD
330
17
100
AcDbEntity
  8
0
 62
6
100
AcDbPoint
 10
-83.9941666666667
 20
-56.4375
 30
0.0
  0
CIRCLE
  5
3DE
330
17
100
AcDbEntity
  8
0
 62
6
100
AcDbCircle
 10
-83.9941666666667
 20
-56.4375
 30
0.0
 40
0.5
  0
POINT
  5
3DF
330
17
100
AcDbEntity
  8
0
 62
6
100
AcDbPoint
 10
-85.4316666666667
 20
-54.125
 30
0.0
  0
CIRCLE
  5
3E0
330
17
100
AcDbEntity
  8
0
 62
6
100
AcDbCircle
 10
-85.4316666666667
 20
-54.125
 30
0.0
 40
0.5
  0
POINT
  5
3E1
330
17
100
AcDbEntity
  8
0
 62
6
100
AcDbPoint
 10
-87.04773809523813
 20
-51.49107142857143
 30
0.0
  0
CIRCLE
  5
3E2
330
17
100
AcDbEntity
  8
0
 62
6
100
AcDbCircle
 10
-87.04773809523813
 20
-51.49107142857143
 30
0.0
 40
0.5
  0
POINT
  5
3E3
330
17
100
AcDbEntity
  8
0
 62
6
100
AcDbPoint
 10
-88.66380952380956
 20
-48.857142857142854
 30
0.0
  0
CIRCLE
  5
3E4
330
17
100
AcDbEntity
  8
0
 62
6
100
AcDbCircle
 10
-88.66380952380956
 20
-48.857142857142854
 30
0.0
 40
0.5
  0
POINT
  5
3E5
330
17
100
AcDbEntity
  8
0
 62
6
100
AcDbPoint
 10
-90.16380952380956
 20
-46.357142857142854
 30
0.0
  0
CIRCLE
  5
3E6
330
17
100
AcDbEntity
  8
0
 62
6
100
AcDbCircle
 10
-90.16380952380956
 20
-46.357142857142854
 30
0.0
 40
0.5
  0
POINT
  5
3E7
330
17
100
AcDbEntity
  8
0
 62
6
100
AcDbPoint
 10
-91.66380952380956
 20
-43.857142857142854
 30
0.0
  0
CIRCLE
  5
3E8
330
17
100
AcDbEntity
  8
0
 62
6
100
AcDbCircle
 10
-91.66380952380956
 20
-43.857142857142854
 30
0.0
 40
0.5
  0
POINT
  5
3E9
330
17
100
AcDbEntity
  8
0
 62
6
100
AcDbPoint
 10
-93.3066666666667
 20
-41.5
 30
0.0
  0
CIRCLE
  5
3EA
330
17
100
AcDbEntity
  8
0
 62
6
100
AcDbCircle
 10
-93.3066666666667
 20
-41.5
 30
0.0
 40
0.5
  0
POINT
  5
3EB
330
17
100
AcDbEntity
  8
0
 62
6
100
AcDbPoint
 10
-94.94952380952384
 20
-39.142857142857146
 30
0.0
  0
CIRCLE
  5
3EC
330
17
100
AcDbEntity
  8
0
 62
6
100
AcDbCircle
 10
-94.94952380952384
 20
-39.142857142857146
 30
0.0
 40
0.5
  0
POINT
  5
3ED
330
17
100
AcDbEntity
  8
0
 62
6
100
AcDbPoint
 10
-97.2114285714286
 20
-40.23809523809524
 30
0.0
  0
CIRCLE
  5
3EE
330
17
100
AcDbEntity
  8
0
 62
6
100
AcDbCircle
 10
-97.2114285714286
 20
-40.23809523809524
 30
0.0
 40
0.5
  0
POINT
  5
3EF
330
17
100
AcDbEntity
  8
0
 62
6
100
AcDbPoint
 10
-99.47333333333336
 20
-41.333333333333336
 30
0.0
  0
CIRCLE
  5
3F0
330
17
100
AcDbEntity
  8
0
 62
6
100
AcDbCircle
 10
-99.47333333333336
 20
-41.333333333333336
 30
0.0
 40
0.5
  0
POINT
  5
3F1
330
17
100
AcDbEntity
  8
0
 62
6
100
AcDbPoint
 10
-100.14000000000003
 20
-44.41666666666667
 30
0.0
  0
CIRCLE
  5
3F2
330
17
100
AcDbEntity
  8
0
 62
6
100
AcDbCircle
 10
-100.14000000000003
 20
-44.41666666666667
 30
0.0
 40
0.5
  0
POINT
  5
3F3
330
17
100
AcDbEntity
  8
0
 62
6
100
AcDbPoint
 10
-100.8066666666667
 20
-47.5
 30
0.0
  0
CIRCLE
  5
3F4
330
17
100
AcDbEntity
  8
0
 62
6
100
AcDbCircle
 10
-100.8066666666667
 20
-47.5
 30
0.0
 40
0.5
  0
POINT
  5
3F5
330
17
100
AcDbEntity
  8
0
 62
6
100
AcDbPoint
 10
-101.47333333333337
 20
-50.58333333333333
 30
0.0
  0
CIRCLE
  5
3F6
330
17
100
AcDbEntity
  8
0
 62
6
100
AcDbCircle
 10
-101.47333333333337
 20
-50.58333333333333
 30
0.0
 40
0.5
  0
POINT
  5
3F7
330
17
100
AcDbEntity
  8
0
 62
6
100
AcDbPoint
 10
-102.14000000000004
 20
-53.666666666666664
 30
0.0
  0
CIRCLE
  5
3F8
330
17
100
AcDbEntity
  8
0
 62
6
100
AcDbCircle
 10
-102.14000000000004
 20
-53.666666666666664
 30
0.0
 40
0.5
  0
POINT
  5
3F9
330
17
100
AcDbEntity
  8
0
 62
6
100
AcDbPoint
 10
-102.87333333333336
 20
-57.43333333333334
 30
0.0
  0
CIRCLE
  5
3FA
330
17
100
AcDbEntity
  8
0
 62
6
100
AcDbCircle
 10
-102.87333333333336
 20
-57.43333333333334
 30
0.0
 40
0.5
  0
POINT
  5
3FB
330
17
100
AcDbEntity
  8
0
 62
6
100
AcDbPoint
 10
-103.6066666666667
 20
-61.2
 30
0.0
  0
CIRCLE
  5
3FC
330
17
100
AcDbEntity
  8
0
 62
6
100
AcDbCircle
 10
-103.6066666666667
 20
-61.2
 30
0.0
 40
0.5
  0
POINT
  5
3FD
330
17
100
AcDbEntity
  8
0
 62
6
100
AcDbPoint
 10
-104.37333333333336
 20
-64.43333333333334
 30
0.0
  0
CIRCLE
  5
3FE
330
17
100
AcDbEntity
  8
0
 62
6
100
AcDbCircle
 10
-104.37333333333336
 20
-64.43333333333334
 30
0.0
 40
0.5
  0
POINT
  5
3FF
330
17
100
AcDbEntity
  8
0
 62
6
100
AcDbPoint
 10
-105.14000000000004
 20
-67.66666666666667
 30
0.0
  0
CIRCLE
  5
400
330
17
100
AcDbEntity
  8
0
 62
6
100
AcDbCircle
 10
-105.14000000000004
 20
-67.66666666666667
 30
0.0
 40
0.5
  0
POINT
  5
401
330
17
100
AcDbEntity
  8
0
 62
6
100
AcDbPoint
 10
-105.87333333333336
 20
-71.03333333333333
 30
0.0
  0
CIRCLE
  5
402
330
17
100
AcDbEntity
  8
0
 62
6
100
AcDbCircle
 10
-105.87333333333336
 20
-71.03333333333333
 30
0.0
 40
0.5
  0
POINT
  5
403
330
17
100
AcDbEntity
  8
0
 62
6
100
AcDbPoint
 10
-106.6066666666667
 20
-74.4
 30
0.0
  0
CIRCLE
  5
404
330
17
100
AcDbEntity
  8
0
 62
6
100
AcDbCircle
 10
-106.6066666666667
 20
-74.4
 30
0.0
 40
0.5
  0
POINT
  5
405
330
17
100
AcDbEntity
  8
0
 62
6
100
AcDbPoint
 10
-107.37333333333336
 20
-77.2
 30
0.0
  0
CIRCLE
  5
406
330
17
100
AcDbEntity
  8
0
 62
6
100
AcDbCircle
 10
-107.37333333333336
 20
-77.2
 30
0.0
 40
0.5
  0
POINT
  5
407
330
17
100
AcDbEntity
  8
0
 62
6
100
AcDbPoint
 10
-108.14000000000004
 20
-80.0
 30
0.0
  0
CIRCLE
  5
408
330
17
100
AcDbEntity
  8
0
 62
6
100
AcDbCircle
 10
-108.14000000000004
 20
-80.0
 30
0.0
 40
0.5
  0
POINT
  5
409
330
17
100
AcDbEntity
  8
0
 62
6
100
AcDbPoint
 10
-108.97333333333337
 20
-85.5
 30
0.0
  0
CIRCLE
  5
40A
330
17
100
AcDbEntity
  8
0
 62
6
100
AcDbCircle
 10
-108.97333333333337
 20
-85.5
 30
0.0
 40
0.5
  0
POINT
  5
40B
330
17
100
AcDbEntity
  8
0
 62
6
100
AcDbPoint
 10
-109.8066666666667
 20
-91.0
 30
0.0
  0
CIRCLE
  5
40C
330
17
100
AcDbEntity
  8
0
 62
6
100
AcDbCircle
 10
-109.8066666666667
 20
-91.0
 30
0.0
 40
0.5
  0
POINT
  5
40D
330
17
100
AcDbEntity
  8
0
 62
6
100
AcDbPoint
 10
-110.1066666666667
 20
-94.1
 30
0.0
  0
CIRCLE
  5
40E
330
17
100
AcDbEntity
  8
0
 62
6
100
AcDbCircle
 10
-110.1066666666667
 20
-94.1
 30
0.0
 40
0.5
  0
POINT
  5
40F
330
17
100
AcDbEntity
  8
0
 62
6
100
AcDbPoint
 10
-110.4066666666667
 20
-97.2
 30
0.0
  0
CIRCLE
  5
410
330
17
100
AcDbEntity
  8
0
 62
6
100
AcDbCircle
 10
-110.4066666666667
 20
-97.2
 30
0.0
 40
0.5
  0
POINT
  5
411
330
17
100
AcDbEntity
  8
0
 62
6
100
AcDbPoint
 10
-110.77333333333337
 20
-99.1
 30
0.0
  0
CIRCLE
  5
412
330
17
100
AcDbEntity
  8
0
 62
6
100
AcDbCircle
 10
-110.77333333333337
 20
-99.1
 30
0.0
 40
0.5
  0
POINT
  5
413
330
17
100
AcDbEntity
  8
0
 62
6
100
AcDbPoint
 10
-111.14000000000004
 20
-101.0
 30
0.0
  0
CIRCLE
  5
414
330
17
100
AcDbEntity
  8
0
 62
6
100
AcDbCircle
 10
-111.14000000000004
 20
-101.0
 30
0.0
 40
0.5
  0
POINT
  5
415
330
17
100
AcDbEntity
  8
0
 62
6
100
AcDbPoint
 10
-112.0566666666667
 20
-103.83333333333334
 30
0.0
  0
CIRCLE
  5
416
330
17
100
AcDbEntity
  8
0
 62
6
100
AcDbCircle
 10
-112.0566666666667
 20
-103.83333333333334
 30
0.0
 40
0.5
  0
POINT
  5
417
330
17
100
AcDbEntity
  8
0
 62
6
100
AcDbPoint
 10
-112.97333333333336
 20
-106.66666666666667
 30
0.0
  0
CIRCLE
  5
418
330
17
100
AcDbEntity
  8
0
 62
6
100
AcDbCircle
 10
-112.97333333333336
 20
-106.66666666666667
 30
0.0
 40
0.5
  0
POINT
  5
419
330
17
100
AcDbEntity
  8
0
 62
6
100
AcDbPoint
 10
-113.10428571428575
 20
-109.11904761904762
 30
0.0
  0
CIRCLE
  5
41A
330
17
100
AcDbEntity
  8
0
 62
6
100
AcDbCircle
 10
-113.10428571428575
 20
-109.11904761904762
 30
0.0
 40
0.5
  0
POINT
  5
41B
330
17
100
AcDbEntity
  8
0
 62
6
100
AcDbPoint
 10
-113.23523809523813
 20
-111.57142857142857
 30
0.0
  0
CIRCLE
  5
41C
330
17
100
AcDbEntity
  8
0
 62
6
100
AcDbCircle
 10
-113.23523809523813
 20
-111.57142857142857
 30
0.0
 40
0.5
  0
POINT
  5
41D
330
17
100
AcDbEntity
  8
0
 62
6
100
AcDbPoint
 10
-114.27095238095242
 20
-115.84821428571428
 30
0.0
  0
CIRCLE
  5
41E
330
17
100
AcDbEntity
  8
0
 62
6
100
AcDbCircle
 10
-114.27095238095242
 20
-115.84821428571428
 30
0.0
 40
0.5
  0
POINT
  5
41F
330
17
100
AcDbEntity
  8
0
 62
6
100
AcDbPoint
 10
-115.3066666666667
 20
-120.125
 30
0.0
  0
CIRCLE
  5
420
330
17
100
AcDbEntity
  8
0
 62
6
100
AcDbCircle
 10
-115.3066666666667
 20
-120.125
 30
0.0
 40
0.5
  0
POINT
  5
421
330
17
100
AcDbEntity
  8
0
 62
6
100
AcDbPoint
 10
-115.9316666666667
 20
-125.9375
 30
0.0
  0
CIRCLE
  5
422
330
17
100
AcDbEntity
  8
0
 62
6
100
AcDbCircle
 10
-115.9316666666667
 20
-125.9375
 30
0.0
 40
0.5
  0
POINT
  5
423
330
17
100
AcDbEntity
  8
0
 62
6
100
AcDbPoint
 10
-116.5566666666667
 20
-131.75
 30
0.0
  0
CIRCLE
  5
424
330
17
100
AcDbEntity
  8
0
 62
6
100
AcDbCircle
 10
-116.5566666666667
 20
-131.75
 30
0.0
 40
0.5
  0
POINT
  5
425
330
17
100
AcDbEntity
  8
0
 62
6
100
AcDbPoint
 10
-117.11023809523813
 20
-133.23214285714286
 30
0.0
  0
CIRCLE
  5
426
330
17
100
AcDbEntity
  8
0
 62
6
100
AcDbCircle
 10
-117.11023809523813
 20
-133.23214285714286
 30
0.0
 40
0.5
  0
POINT
  5
427
330
17
100
AcDbEntity
  8
0
 62
6
100
AcDbPoint
 10
-117.66380952380956
 20
-134.71428571428572
 30
0.0
  0
CIRCLE
  5
428
330
17
100
AcDbEntity
  8
0
 62
6
100
AcDbCircle
 10
-117.66380952380956
 20
-134.71428571428572
 30
0.0
 40
0.5
  0
POINT
  5
429
330
17
100
AcDbEntity
  8
0
 62
6
100
AcDbPoint
 10
-118.23523809523813
 20
-137.21428571428572
 30
0.0
  0
CIRCLE
  5
42A
330
17
100
AcDbEntity
  8
0
 62
6
100
AcDbCircle
 10
-118.23523809523813
 20
-137.21428571428572
 30
0.0
 40
0.5
  0
POINT
  5
42B
330
17
100
AcDbEntity
  8
0
 62
6
100
AcDbPoint
 10
-118.8066666666667
 20
-139.71428571428572
 30
0.0
  0
CIRCLE
  5
42C
330
17
100
AcDbEntity
  8
0
 62
6
100
AcDbCircle
 10
-118.8066666666667
 20
-139.71428571428572
 30
0.0
 40
0.5
  0
POINT
  5
42D
330
17
100
AcDbEntity
  8
0
 62
6
100
AcDbPoint
 10
-118.8691666666667
 20
-142.79464285714286
 30
0.0
  0
CIRCLE
  5
42E
330
17
100
AcDbEntity
  8
0
 62
6
100
AcDbCircle
 10
-118.8691666666667
 20
-142.79464285714286
 30
0.0
 40
0.5
  0
POINT
  5
42F
330
17
100
AcDbEntity
  8
0
 62
6
100
AcDbPoint
 10
-118.9316666666667
 20
-145.875
 30
0.0
  0
CIRCLE
  5
430
330
17
100
AcDbEntity
  8
0
 62
6
100
AcDbCircle
 10
-118.9316666666667
 20
-145.875
 30
0.0
 40
0.5
  0
POINT
  5
431
330
17
100
AcDbEntity
  8
0
 62
6
100
AcDbPoint
 10
-119.3691666666667
 20
-148.02083333333331
 30
0.0
  0
CIRCLE
  5
432
330
17
100
AcDbEntity
  8
0
 62
6
100
AcDbCircle
 10
-119.3691666666667
 20
-148.02083333333331
 30
0.0
 40
0.5
  0
POINT
  5
433
330
17
100
AcDbEntity
  8
0
 62
6
100
AcDbPoint
 10
-119.8066666666667
 20
-150.16666666666666
 30
0.0
  0
CIRCLE
  5
434
330
17
100
AcDbEntity
  8
0
 62
6
100
AcDbCircle
 10
-119.8066666666667
 20
-150.16666666666666
 30
0.0
 40
0.5
  0
POINT
  5
435
330
17
100
AcDbEntity
  8
0
 62
6
100
AcDbPoint
 10
-120.5066666666667
 20
-153.98333333333335
 30
0.0
  0
CIRCLE
  5
436
330
17
100
AcDbEntity
  8
0
 62
6
100
AcDbCircle
 10
-120.5066666666667
 20
-153.98333333333335
 30
0.0
 40
0.5
  0
POINT
  5
437
330
17
100
AcDbEntity
  8
0
 62
6
100
AcDbPoint
 10
-121.2066666666667
 20
-157.8
 30
0.0
  0
CIRCLE
  5
438
330
17
100
AcDbEntity
  8
0
 62
6
100
AcDbCircle
 10
-121.2066666666667
 20
-157.8
 30
0.0
 40
0.5
  0
POINT
  5
439
330
17
100
AcDbEntity
  8
0
 62
6
100
AcDbPoint
 10
-111.7566666666667
 20
-157.4
 30
0.0
  0
CIRCLE
  5
43A
330
17
100
AcDbEntity
  8
0
 62
6
100
AcDbCircle
 10
-111.7566666666667
 20
-157.4
 30
0.0
 40
0.5
  0
POINT
  5
43B
330
17
100
AcDbEntity
  8
0
 62
6
100
AcDbPoint
 10
-102.3066666666667
 20
-157.0
 30
0.0
  0
CIRCLE
  5
43C
330
17
100
AcDbEntity
  8
0
 62
6
100
AcDbCircle
 10
-102.3066666666667
 20
-157.0
 30
0.0
 40
0.5
  0
POINT
  5
43D
330
17
100
AcDbEntity
  8
0
 62
6
100
AcDbPoint
 10
-100.8066666666667
 20
-156.5
 30
0.0
  0
CIRCLE
  5
43E
330
17
100
AcDbEntity
  8
0
 62
6
100
AcDbCircle
 10
-100.8066666666667
 20
-156.5
 30
0.0
 40
0.5
  0
POINT
  5
43F
330
17
100
AcDbEntity
  8
0
 62
6
100
AcDbPoint
 10
-99.3066666666667
 20
-156.0
 30
0.0
  0
CIRCLE
  5
440
330
17
100
AcDbEntity
  8
0
 62
6
100
AcDbCircle
 10
-99.3066666666667
 20
-156.0
 30
0.0
 40
0.5
  0
POINT
  5
441
330
17
100
AcDbEntity
  8
0
 62
6
100
AcDbPoint
 10
-94.22333333333336
 20
-155.16666666666669
 30
0.0
  0
CIRCLE
  5
442
330
17
100
AcDbEntity
  8
0
 62
6
100
AcDbCircle
 10
-94.22333333333336
 20
-155.16666666666669
 30
0.0
 40
0.5
  0
POINT
  5
443
330
17
100
AcDbEntity
  8
0
 62
6
100
AcDbPoint
 10
-89.14000000000003
 20
-154.33333333333334
 30
0.0
  0
CIRCLE
  5
444
330
17
100
AcDbEntity
  8
0
 62
6
100
AcDbCircle
 10
-89.14000000000003
 20
-154.33333333333334
 30
0.0
 40
0.5
  0
POINT
  5
445
330
17
100
AcDbEntity
  8
0
 62
6
100
AcDbPoint
 10
-88.3066666666667
 20
-154.0
 30
0.0
  0
CIRCLE
  5
446
330
17
100
AcDbEntity
  8
0
 62
6
100
AcDbCircle
 10
-88.3066666666667
 20
-154.0
 30
0.0
 40
0.5
  0
POINT
  5
447
330
17
100
AcDbEntity
  8
0
 62
6
100
AcDbPoint
 10
-87.47333333333337
 20
-153.66666666666666
 30
0.0
  0
CIRCLE
  5
448
330
17
100
AcDbEntity
  8
0
 62
6
100
AcDbCircle
 10
-87.47333333333337
 20
-153.66666666666666
 30
0.0
 40
0.5
  0
POINT
  5
449
330
17
100
AcDbEntity
  8
0
 62
6
100
AcDbPoint
 10
-82.26500000000004
 20
-153.20833333333331
 30
0.0
  0
CIRCLE
  5
44A
330
17
100
AcDbEntity
  8
0
 62
6
100
AcDbCircle
 10
-82.26500000000004
 20
-153.20833333333331
 30
0.0
 40
0.5
  0
POINT
  5
44B
330
17
100
AcDbEntity
  8
0
 62
6
100
AcDbPoint
 10
-77.0566666666667
 20
-152.75
 30
0.0
  0
CIRCLE
  5
44C
330
17
100
AcDbEntity
  8
0
 62
6
100
AcDbCircle
 10
-77.0566666666667
 20
-152.75
 30
0.0
 40
0.5
  0
POINT
  5
44D
330
17
100
AcDbEntity
  8
0
 62
6
100
AcDbPoint
 10
-76.2316666666667
 20
-152.075
 30
0.0
  0
CIRCLE
  5
44E
330
17
100
AcDbEntity
  8
0
 62
6
100
AcDbCircle
 10
-76.2316666666667
 20
-152.075
 30
0.0
 40
0.5
  0
POINT
  5
44F
330
17
100
AcDbEntity
  8
0
 62
6
100
AcDbPoint
 10
-75.4066666666667
 20
-151.4
 30
0.0
  0
CIRCLE
  5
450
330
17
100
AcDbEntity
  8
0
 62
6
100
AcDbCircle
 10
-75.4066666666667
 20
-151.4
 30
0.0
 40
0.5
  0
POINT
  5
451
330
17
100
AcDbEntity
  8
0
 62
6
100
AcDbPoint
 10
-74.3566666666667
 20
-148.95
 30
0.0
  0
CIRCLE
  5
452
330
17
100
AcDbEntity
  8
0
 62
6
100
AcDbCircle
 10
-74.3566666666667
 20
-148.95
 30
0.0
 40
0.5
  0
POINT
  5
453
330
17
100
AcDbEntity
  8
0
 62
6
100
AcDbPoint
 10
-73.3066666666667
 20
-146.5
 30
0.0
  0
CIRCLE
  5
454
330
17
100
AcDbEntity
  8
0
 62
6
100
AcDbCircle
 10
-73.3066666666667
 20
-146.5
 30
0.0
 40
0.5
  0
POINT
  5
455
330
17
100
AcDbEntity
  8
0
 62
6
100
AcDbPoint
 10
-72.3066666666667
 20
-139.25
 30
0.0
  0
CIRCLE
  5
456
330
17
100
AcDbEntity
  8
0
 62
6
100
AcDbCircle
 10
-72.3066666666667
 20
-139.25
 30
0.0
 40
0.5
  0
POINT
  5
457
330
17
100
AcDbEntity
  8
0
 62
6
100
AcDbPoint
 10
-71.3066666666667
 20
-132.0
 30
0.0
  0
CIRCLE
  5
458
330
17
100
AcDbEntity
  8
0
 62
6
100
AcDbCircle
 10
-71.3066666666667
 20
-132.0
 30
0.0
 40
0.5
  0
POINT
  5
459
330
17
100
AcDbEntity
  8
0
 62
6
100
AcDbPoint
 10
-64.8066666666667
 20
-131.25
 30
0.0
  0
CIRCLE
  5
45A
330
17
100
AcDbEntity
  8
0
 62
6
100
AcDbCircle
 10
-64.8066666666667
 20
-131.25
 30
0.0
 40
0.5
  0
POINT
  5
45B
330
17
100
AcDbEntity
  8
0
 62
6
100
AcDbPoint
 10
-58.3066666666667
 20
-130.5
 30
0.0
  0
CIRCLE
  5
45C
330
17
100
AcDbEntity
  8
0
 62
6
100
AcDbCircle
 10
-58.3066666666667
 20
-130.5
 30
0.0
 40
0.5
  0
POINT
  5
45D
330
17
100
AcDbEntity
  8
0
 62
6
100
AcDbPoint
 10
-54.8066666666667
 20
-130.0
 30
0.0
  0
CIRCLE
  5
45E
330
17
100
AcDbEntity
  8
0
 62
6
100
AcDbCircle
 10
-54.8066666666667
 20
-130.0
 30
0.0
 40
0.5
  0
POINT
  5
45F
330
17
100
AcDbEntity
  8
0
 62
6
100
AcDbPoint
 10
-51.3066666666667
 20
-129.5
 30
0.0
  0
CIRCLE
  5
460
330
17
100
AcDbEntity
  8
0
 62
6
100
AcDbCircle
 10
-51.3066666666667
 20
-129.5
 30
0.0
 40
0.5
  0
POINT
  5
461
330
17
100
AcDbEntity
  8
0
 62
6
100
AcDbPoint
 10
-45.3066666666667
 20
-129.5
 30
0.0
  0
CIRCLE
  5
462
330
17
100
AcDbEntity
  8
0
 62
6
100
AcDbCircle
 10
-45.3066666666667
 20
-129.5
 30
0.0
 40
0.5
  0
POINT
  5
463
330
17
100
AcDbEntity
  8
0
 62
6
100
AcDbPoint
 10
-39.3066666666667
 20
-129.5
 30
0.0
  0
CIRCLE
  5
464
330
17
100
AcDbEntity
  8
0
 62
6
100
AcDbCircle
 10
-39.3066666666667
 20
-129.5
 30
0.0
 40
0.5
  0
POINT
  5
465
330
17
100
AcDbEntity
  8
0
 62
6
100
AcDbPoint
 10
-33.0566666666667
 20
-129.55
 30
0.0
  0
CIRCLE
  5
466
330
17
100
AcDbEntity
  8
0
 62
6
100
AcDbCircle
 10
-33.0566666666667
 20
-129.55
 30
0.0
 40
0.5
  0
POINT
  5
467
330
17
100
AcDbEntity
  8
0
 62
6
100
AcDbPoint
 10
-26.8066666666667
 20
-129.6
 30
0.0
  0
CIRCLE
  5
468
330
17
100
AcDbEntity
  8
0
 62
6
100
AcDbCircle
 10
-26.8066666666667
 20
-129.6
 30
0.0
 40
0.5
  0
POINT
  5
469
330
17
100
AcDbEntity
  8
0
 62
6
100
AcDbPoint
 10
-25.94952380952384
 20
-130.37142857142857
 30
0.0
  0
CIRCLE
  5
46A
330
17
100
AcDbEntity
  8
0
 62
6
100
AcDbCircle
 10
-25.94952380952384
 20
-130.37142857142857
 30
0.0
 40
0.5
  0
POINT
  5
46B
330
17
100
AcDbEntity
  8
0
 62
6
100
AcDbPoint
 10
-25.092380952380978
 20
-131.14285714285714
 30
0.0
  0
CIRCLE
  5
46C
330
17
100
AcDbEntity
  8
0
 62
6
100
AcDbCircle
 10
-25.092380952380978
 20
-131.14285714285714
 30
0.0
 40
0.5
  0
POINT
  5
46D
330
17
100
AcDbEntity
  8
0
 62
6
100
AcDbPoint
 10
-23.616190476190496
 20
-136.57142857142856
 30
0.0
  0
CIRCLE
  5
46E
330
17
100
AcDbEntity
  8
0
 62
6
100
AcDbCircle
 10
-23.616190476190496
 20
-136.57142857142856
 30
0.0
 40
0.5
  0
POINT
  5
46F
330
17
100
AcDbEntity
  8
0
 62
6
100
AcDbPoint
 10
-22.140000000000043
 20
-142.0
 30
0.0
  0
CIRCLE
  5
470
330
17
100
AcDbEntity
  8
0
 62
6
100
AcDbCircle
 10
-22.140000000000043
 20
-142.0
 30
0.0
 40
0.5
  0
POINT
  5
471
330
17
100
AcDbEntity
  8
0
 62
6
100
AcDbPoint
 10
-20.140000000000043
 20
-142.33333333333331
 30
0.0
  0
CIRCLE
  5
472
330
17
100
AcDbEntity
  8
0
 62
6
100
AcDbCircle
 10
-20.140000000000043
 20
-142.33333333333331
 30
0.0
 40
0.5
  0
POINT
  5
473
330
17
100
AcDbEntity
  8
0
 62
6
100
AcDbPoint
 10
-18.140000000000043
 20
-142.66666666666666
 30
0.0
  0
CIRCLE
  5
474
330
17
100
AcDbEntity
  8
0
 62
6
100
AcDbCircle
 10
-18.140000000000043
 20
-142.66666666666666
 30
0.0
 40
0.5
  0
POINT
  5
475
330
17
100
AcDbEntity
  8
0
 62
6
100
AcDbPoint
 10
-15.140000000000043
 20
-142.16666666666666
 30
0.0
  0
CIRCLE
  5
476
330
17
100
AcDbEntity
  8
0
 62
6
100
AcDbCircle
 10
-15.140000000000043
 20
-142.16666666666666
 30
0.0
 40
0.5
  0
POINT
  5
477
330
17
100
AcDbEntity
  8
0
 62
6
100
AcDbPoint
 10
-12.140000000000043
 20
-141.66666666666666
 30
0.0
  0
CIRCLE
  5
478
330
17
100
AcDbEntity
  8
0
 62
6
100
AcDbCircle
 10
-12.140000000000043
 20
-141.66666666666666
 30
0.0
 40
0.5
  0
POINT
  5
479
330
17
100
AcDbEntity
  8
0
 62
6
100
AcDbPoint
 10
-0.723333333333386
 20
-141.58333333333331
 30
0.0
  0
CIRCLE
  5
47A
330
17
100
AcDbEntity
  8
0
 62
6
100
AcDbCircle
 10
-0.723333333333386
 20
-141.58333333333331
 30
0.0
 40
0.5
  0
POINT
  5
47B
330
17
100
AcDbEntity
  8
0
 62
6
100
AcDbPoint
 10
10.6933333333333
 20
-141.5
 30
0.0
  0
CIRCLE
  5
47C
330
17
100
AcDbEntity
  8
0
 62
6
100
AcDbCircle
 10
10.6933333333333
 20
-141.5
 30
0.0
 40
0.5
  0
POINT
  5
47D
330
17
100
AcDbEntity
  8
0
 62
6
100
AcDbPoint
 10
15.109999999999985
 20
-141.25
 30
0.0
  0
CIRCLE
  5
47E
330
17
100
AcDbEntity
  8
0
 62
6
100
AcDbCircle
 10
15.109999999999985
 20
-141.25
 30
0.0
 40
0.5
  0
POINT
  5
47F
330
17
100
AcDbEntity
  8
0
 62
6
100
AcDbPoint
 10
19.526666666666642
 20
-141.0
 30
0.0
  0
CIRCLE
  5
480
330
17
100
AcDbEntity
  8
0
 62
6
100
AcDbCircle
 10
19.526666666666642
 20
-141.0
 30
0.0
 40
0.5
  0
POINT
  5
481
330
17
100
AcDbEntity
  8
0
 62
6
100
AcDbPoint
 10
18.95999999999995
 20
-138.1
 30
0.0
  0
CIRCLE
  5
482
330
17
100
AcDbEntity
  8
0
 62
6
100
AcDbCircle
 10
18.95999999999995
 20
-138.1
 30
0.0
 40
0.5
  0
POINT
  5
483
330
17
100
AcDbEntity
  8
0
 62
6
100
AcDbPoint
 10
18.39333333333329
 20
-135.2
 30
0.0
  0
CIRCLE
  5
484
330
17
100
AcDbEntity
  8
0
 62
6
100
AcDbCircle
 10
18.39333333333329
 20
-135.2
 30
0.0
 40
0.5
  0
POINT
  5
485
330
17
100
AcDbEntity
  8
0
 62
6
100
AcDbPoint
 10
17.543333333333294
 20
-130.35
 30
0.0
  0
CIRCLE
  5
486
330
17
100
AcDbEntity
  8
0
 62
6
100
AcDbCircle
 10
17.543333333333294
 20
-130.35
 30
0.0
 40
0.5
  0
POINT
  5
487
330
17
100
AcDbEntity
  8
0
 62
6
100
AcDbPoint
 10
16.6933333333333
 20
-125.5
 30
0.0
  0
CIRCLE
  5
488
330
17
100
AcDbEntity
  8
0
 62
6
100
AcDbCircle
 10
16.6933333333333
 20
-125.5
 30
0.0
 40
0.5
  0
POINT
  5
489
330
17
100
AcDbEntity
  8
0
 62
6
100
AcDbPoint
 10
16.043333333333294
 20
-122.45
 30
0.0
  0
CIRCLE
  5
48A
330
17
100
AcDbEntity
  8
0
 62
6
100
AcDbCircle
 10
16.043333333333294
 20
-122.45
 30
0.0
 40
0.5
  0
POINT
  5
48B
330
17
100
AcDbEntity
  8
0
 62
6
100
AcDbPoint
 10
15.393333333333288
 20
-119.4
 30
0.0
  0
CIRCLE
  5
48C
330
17
100
AcDbEntity
  8
0
 62
6
100
AcDbCircle
 10
15.393333333333288
 20
-119.4
 30
0.0
 40
0.5
  0
POINT
  5
48D
330
17
100
AcDbEntity
  8
0
 62
6
100
AcDbPoint
 10
14.543333333333294
 20
-115.2
 30
0.0
  0
CIRCLE
  5
48E
330
17
100
AcDbEntity
  8
0
 62
6
100
AcDbCircle
 10
14.543333333333294
 20
-115.2
 30
0.0
 40
0.5
  0
POINT
  5
48F
330
17
100
AcDbEntity
  8
0
 62
6
100
AcDbPoint
 10
13.6933333333333
 20
-111.0
 30
0.0
  0
CIRCLE
  5
490
330
17
100
AcDbEntity
  8
0
 62
6
100
AcDbCircle
 10
13.6933333333333
 20
-111.0
 30
0.0
 40
0.5
  0
POINT
  5
491
330
17
100
AcDbEntity
  8
0
 62
6
100
AcDbPoint
 10
12.9433333333333
 20
-108.33333333333334
 30
0.0
  0
CIRCLE
  5
492
330
17
100
AcDbEntity
  8
0
 62
6
100
AcDbCircle
 10
12.9433333333333
 20
-108.33333333333334
 30
0.0
 40
0.5
  0
POINT
  5
493
330
17
100
AcDbEntity
  8
0
 62
6
100
AcDbPoint
 10
12.1933333333333
 20
-105.66666666666667
 30
0.0
  0
CIRCLE
  5
494
330
17
100
AcDbEntity
  8
0
 62
6
100
AcDbCircle
 10
12.1933333333333
 20
-105.66666666666667
 30
0.0
 40
0.5
  0
POINT
  5
495
330
17
100
AcDbEntity
  8
0
 62
6
100
AcDbPoint
 10
11.4433333333333
 20
-103.41666666666667
 30
0.0
  0
CIRCLE
  5
496
330
17
100
AcDbEntity
  8
0
 62
6
100
AcDbCircle
 10
11.4433333333333
 20
-103.41666666666667
 30
0.0
 40
0.5
  0
POINT
  5
497
330
17
100
AcDbEntity
  8
0
 62
6
100
AcDbPoint
 10
10.6933333333333
 20
-101.16666666666667
 30
0.0
  0
CIRCLE
  5
498
330
17
100
AcDbEntity
  8
0
 62
6
100
AcDbCircle
 10
10.6933333333333
 20
-101.16666666666667
 30
0.0
 40
0.5
  0
POINT
  5
499
330
17
100
AcDbEntity
  8
0
 62
6
100
AcDbPoint
 10
9.9433333333333
 20
-98.83333333333334
 30
0.0
  0
CIRCLE
  5
49A
330
17
100
AcDbEntity
  8
0
 62
6
100
AcDbCircle
 10
9.9433333333333
 20
-98.83333333333334
 30
0.0
 40
0.5
  0
POINT
  5
49B
330
17
100
AcDbEntity
  8
0
 62
6
100
AcDbPoint
 10
9.1933333333333
 20
-96.5
 30
0.0
  0
CIRCLE
  5
49C
330
17
100
AcDbEntity
  8
0
 62
6
100
AcDbCircle
 10
9.1933333333333
 20
-96.5
 30
0.0
 40
0.5
  0
POINT
  5
49D
330
17
100
AcDbEntity
  8
0
 62
6
100
AcDbPoint
 10
8.526666666666614
 20
-94.25
 30
0.0
  0
CIRCLE
  5
49E
330
17
100
AcDbEntity
  8
0
 62
6
100
AcDbCircle
 10
8.526666666666614
 20
-94.25
 30
0.0
 40
0.5
  0
POINT
  5
49F
330
17
100
AcDbEntity
  8
0
 62
6
100
AcDbPoint
 10
7.859999999999957
 20
-92.0
 30
0.0
  0
CIRCLE
  5
4A0
330
17
100
AcDbEntity
  8
0
 62
6
100
AcDbCircle
 10
7.859999999999957
 20
-92.0
 30
0.0
 40
0.5
  0
POINT
  5
4A1
330
17
100
AcDbEntity
  8
0
 62
6
100
AcDbPoint
 10
7.126666666666637
 20
-88.2
 30
0.0
  0
CIRCLE
  5
4A2
330
17
100
AcDbEntity
  8
0
 62
6
100
AcDbCircle
 10
7.126666666666637
 20
-88.2
 30
0.0
 40
0.5
  0
POINT
  5
4A3
330
17
100
AcDbEntity
  8
0
 62
6
100
AcDbPoint
 10
6.393333333333288
 20
-84.4
 30
0.0
  0
CIRCLE
  5
4A4
330
17
100
AcDbEntity
  8
0
 62
6
100
AcDbCircle
 10
6.393333333333288
 20
-84.4
 30
0.0
 40
0.5
  0
POINT
  5
4A5
330
17
100
AcDbEntity
  8
0
 62
6
100
AcDbPoint
 10
5.6933333333333
 20
-81.5
 30
0.0
  0
CIRCLE
  5
4A6
330
17
100
AcDbEntity
  8
0
 62
6
100
AcDbCircle
 10
5.6933333333333
 20
-81.5
 30
0.0
 40
0.5
  0
POINT
  5
4A7
330
17
100
AcDbEntity
  8
0
 62
6
100
AcDbPoint
 10
4.993333333333311
 20
-78.6
 30
0.0
  0
CIRCLE
  5
4A8
330
17
100
AcDbEntity
  8
0
 62
6
100
AcDbCircle
 10
4.993333333333311
 20
-78.6
 30
0.0
 40
0.5
  0
POINT
  5
4A9
330
17
100
AcDbEntity
  8
0
 62
6
100
AcDbPoint
 10
3.8933333333332882
 20
-75.69999999999999
 30
0.0
  0
CIRCLE
  5
4AA
330
17
100
AcDbEntity
  8
0
 62
6
100
AcDbCircle
 10
3.8933333333332882
 20
-75.69999999999999
 30
0.0
 40
0.5
  0
POINT
  5
4AB
330
17
100
AcDbEntity
  8
0
 62
6
100
AcDbPoint
 10
2.793333333333294
 20
-72.8
 30
0.0
  0
CIRCLE
  5
4AC
330
17
100
AcDbEntity
  8
0
 62
6
100
AcDbCircle
 10
2.793333333333294
 20
-72.8
 30
0.0
 40
0.5
  0
POINT
  5
4AD
330
17
100
AcDbEntity
  8
0
 62
6
100
AcDbPoint
 10
1.6933333333332996
 20
-69.8
 30
0.0
  0
CIRCLE
  5
4AE
330
17
100
AcDbEntity
  8
0
 62
6
100
AcDbCircle
 10
1.6933333333332996
 20
-69.8
 30
0.0
 40
0.5
  0
POINT
  5
4AF
330
17
100
AcDbEntity
  8
0
 62
6
100
AcDbPoint
 10
0.5933333333333053
 20
-66.8
 30
0.0
  0
CIRCLE
  5
4B0
330
17
100
AcDbEntity
  8
0
 62
6
100
AcDbCircle
 10
0.5933333333333053
 20
-66.8
 30
0.0
 40
0.5
  0
POINT
  5
4B1
330
17
100
AcDbEntity
  8
0
 62
6
100
AcDbPoint
 10
-0.7495238095238221
 20
-63.971428571428575
 30
0.0
  0
CIRCLE
  5
4B2
330
17
100
AcDbEntity
  8
0
 62
6
100
AcDbCircle
 10
-0.7495238095238221
 20
-63.971428571428575
 30
0.0
 40
0.5
  0
POINT
  5
4B3
330
17
100
AcDbEntity
  8
0
 62
6
100
AcDbPoint
 10
-2.092380952380978
 20
-61.142857142857146
 30
0.0
  0
CIRCLE
  5
4B4
330
17
100
AcDbEntity
  8
0
 62
6
100
AcDbCircle
 10
-2.092380952380978
 20
-61.142857142857146
 30
0.0
 40
0.5
  0
POINT
  5
4B5
330
17
100
AcDbEntity
  8
0
 62
6
100
AcDbPoint
 10
-2.8066666666667004
 20
-59.5
 30
0.0
  0
CIRCLE
  5
4B6
330
17
100
AcDbEntity
  8
0
 62
6
100
AcDbCircle
 10
-2.8066666666667004
 20
-59.5
 30
0.0
 40
0.5
  0
POINT
  5
4B7
330
17
100
AcDbEntity
  8
0
 62
6
100
AcDbPoint
 10
-3.520952380952423
 20
-57.857142857142854
 30
0.0
  0
CIRCLE
  5
4B8
330
17
100
AcDbEntity
  8
0
 62
6
100
AcDbCircle
 10
-3.520952380952423
 20
-57.857142857142854
 30
0.0
 40
0.5
  0
POINT
  5
4B9
330
17
100
AcDbEntity
  8
0
 62
6
100
AcDbPoint
 10
-4.997142857142904
 20
-54.845238095238095
 30
0.0
  0
CIRCLE
  5
4BA
330
17
100
AcDbEntity
  8
0
 62
6
100
AcDbCircle
 10
-4.997142857142904
 20
-54.845238095238095
 30
0.0
 40
0.5
  0
POINT
  5
4BB
330
17
100
AcDbEntity
  8
0
 62
6
100
AcDbPoint
 10
-6.473333333333358
 20
-51.833333333333336
 30
0.0
  0
CIRCLE
  5
4BC
330
17
100
AcDbEntity
  8
0
 62
6
100
AcDbCircle
 10
-6.473333333333358
 20
-51.833333333333336
 30
0.0
 40
0.5
  0
POINT
  5
4BD
330
17
100
AcDbEntity
  8
0
 62
6
100
AcDbPoint
 10
-7.497142857142904
 20
-49.48809523809524
 30
0.0
  0
CIRCLE
  5
4BE
330
17
100
AcDbEntity
  8
0
 62
6
100
AcDbCircle
 10
-7.497142857142904
 20
-49.48809523809524
 30
0.0
 40
0.5
  0
POINT
  5
4BF
330
17
100
AcDbEntity
  8
0
 62
6
100
AcDbPoint
 10
-8.520952380952423
 20
-47.142857142857146
 30
0.0
  0
CIRCLE
  5
4C0
330
17
100
AcDbEntity
  8
0
 62
6
100
AcDbCircle
 10
-8.520952380952423
 20
-47.142857142857146
 30
0.0
 40
0.5
  0
POINT
  5
4C1
330
17
100
AcDbEntity
  8
0
 62
6
100
AcDbPoint
 10
-9.497142857142904
 20
-44.73809523809524
 30
0.0
  0
CIRCLE
  5
4C2
330
17
100
AcDbEntity
  8
0
 62
6
100
AcDbCircle
 10
-9.497142857142904
 20
-44.73809523809524
 30
0.0
 40
0.5
  0
POINT
  5
4C3
330
17
100
AcDbEntity
  8
0
 62
6
100
AcDbPoint
 10
-10.473333333333358
 20
-42.333333333333336
 30
0.0
  0
CIRCLE
  5
4C4
330
17
100
AcDbEntity
  8
0
 62
6
100
AcDbCircle
 10
-10.473333333333358
 20
-42.333333333333336
 30
0.0
 40
0.5
  0
POINT
  5
4C5
330
17
100
AcDbEntity
  8
0
 62
6
100
AcDbPoint
 10
-11.640000000000015
 20
-39.36666666666667
 30
0.0
  0
CIRCLE
  5
4C6
330
17
100
AcDbEntity
  8
0
 62
6
100
AcDbCircle
 10
-11.640000000000015
 20
-39.36666666666667
 30
0.0
 40
0.5
  0
POINT
  5
4C7
330
17
100
AcDbEntity
  8
0
 62
6
100
AcDbPoint
 10
-12.8066666666667
 20
-36.4
 30
0.0
  0
CIRCLE
  5
4C8
330
17
100
AcDbEntity
  8
0
 62
6
100
AcDbCircle
 10
-12.8066666666667
 20
-36.4
 30
0.0
 40
0.5
  0
POINT
  5
4C9
330
17
100
AcDbEntity
  8
0
 62
6
100
AcDbPoint
 10
-14.006666666666689
 20
-34.0
 30
0.0
  0
CIRCLE
  5
4CA
330
17
100
AcDbEntity
  8
0
 62
6
100
AcDbCircle
 10
-14.006666666666689
 20
-34.0
 30
0.0
 40
0.5
  0
POINT
  5
4CB
330
17
100
AcDbEntity
  8
0
 62
6
100
AcDbPoint
 10
-15.206666666666706
 20
-31.6
 30
0.0
  0
CIRCLE
  5
4CC
330
17
100
AcDbEntity
  8
0
 62
6
100
AcDbCircle
 10
-15.206666666666706
 20
-31.6
 30
0.0
 40
0.5
  0
POINT
  5
4CD
330
17
100
AcDbEntity
  8
0
 62
6
100
AcDbPoint
 10
-16.50666666666669
 20
-27.8
 30
0.0
  0
CIRCLE
  5
4CE
330
17
100
AcDbEntity
  8
0
 62
6
100
AcDbCircle
 10
-16.50666666666669
 20
-27.8
 30
0.0
 40
0.5
  0
POINT
  5
4CF
330
17
100
AcDbEntity
  8
0
 62
6
100
AcDbPoint
 10
-17.8066666666667
 20
-24.0
 30
0.0
  0
CIRCLE
  5
4D0
330
17
100
AcDbEntity
  8
0
 62
6
100
AcDbCircle
 10
-17.8066666666667
 20
-24.0
 30
0.0
 40
0.5
  0
POINT
  5
4D1
330
17
100
AcDbEntity
  8
0
 62
6
100
AcDbPoint
 10
-57.406666666666695
 20
-29.2
 30
0.0
  0
CIRCLE
  5
4D2
330
17
100
AcDbEntity
  8
0
 62
6
100
AcDbCircle
 10
-57.406666666666695
 20
-29.2
 30
0.0
 40
0.5
  0
POINT
  5
4D3
330
17
100
AcDbEntity
  8
0
 62
6
100
AcDbPoint
 10
-97.0066666666667
 20
-34.4
 30
0.0
  0
CIRCLE
  5
4D4
330
17
100
AcDbEntity
  8
0
 62
6
100
AcDbCircle
 10
-97.0066666666667
 20
-34.4
 30
0.0
 40
0.5
  0
POINT
  5
4D5
330
17
100
AcDbEntity
  8
0
 62
6
100
AcDbPoint
 10
-59.406666666666695
 20
-26.366666666666667
 30
0.0
  0
CIRCLE
  5
4D6
330
17
100
AcDbEntity
  8
0
 62
6
100
AcDbCircle
 10
-59.406666666666695
 20
-26.366666666666667
 30
0.0
 40
0.5
  0
POINT
  5
4D7
330
17
100
AcDbEntity
  8
0
 62
6
100
AcDbPoint
 10
-21.8066666666667
 20
-18.333333333333332
 30
0.0
  0
CIRCLE
  5
4D8
330
17
100
AcDbEntity
  8
0
 62
6
100
AcDbCircle
 10
-21.8066666666667
 20
-18.333333333333332
 30
0.0
 40
0.5
  0
POINT
  5
4D9
330
17
100
AcDbEntity
  8
0
 62
6
100
AcDbPoint
 10
-23.0566666666667
 20
-19.583333333333332
 30
0.0
  0
CIRCLE
  5
4DA
330
17
100
AcDbEntity
  8
0
 62
6
100
AcDbCircle
 10
-23.0566666666667
 20
-19.583333333333332
 30
0.0
 40
0.5
  0
POINT
  5
4DB
330
17
100
AcDbEntity
  8
0
 62
6
100
AcDbPoint
 10
-24.3066666666667
 20
-20.833333333333332
 30
0.0
  0
CIRCLE
  5
4DC
330
17
100
AcDbEntity
  8
0
 62
6
100
AcDbCircle
 10
-24.3066666666667
 20
-20.833333333333332
 30
0.0
 40
0.5
  0
POINT
  5
4DD
330
17
100
AcDbEntity
  8
0
 62
6
100
AcDbPoint
 10
-25.5566666666667
 20
-23.416666666666664
 30
0.0
  0
CIRCLE
  5
4DE
330
17
100
AcDbEntity
  8
0
 62
6
100
AcDbCircle
 10
-25.5566666666667
 20
-23.416666666666664
 30
0.0
 40
0.5
  0
POINT
  5
4DF
330
17
100
AcDbEntity
  8
0
 62
6
100
AcDbPoint
 10
-26.8066666666667
 20
-26.0
 30
0.0
  0
CIRCLE
  5
4E0
330
17
100
AcDbEntity
  8
0
 62
6
100
AcDbCircle
 10
-26.8066666666667
 20
-26.0
 30
0.0
 40
0.5
  0
POINT
  5
4E1
330
17
100
AcDbEntity
  8
0
 62
6
100
AcDbPoint
 10
-28.140000000000043
 20
-28.75
 30
0.0
  0
CIRCLE
  5
4E2
330
17
100
AcDbEntity
  8
0
 62
6
100
AcDbCircle
 10
-28.140000000000043
 20
-28.75
 30
0.0
 40
0.5
  0
POINT
  5
4E3
330
17
100
AcDbEntity
  8
0
 62
6
100
AcDbPoint
 10
-29.473333333333372
 20
-31.5
 30
0.0
  0
CIRCLE
  5
4E4
330
17
100
AcDbEntity
  8
0
 62
6
100
AcDbCircle
 10
-29.473333333333372
 20
-31.5
 30
0.0
 40
0.5
  0
POINT
  5
4E5
330
17
100
AcDbEntity
  8
0
 62
6
100
AcDbPoint
 10
-30.640000000000043
 20
-33.91666666666667
 30
0.0
  0
CIRCLE
  5
4E6
330
17
100
AcDbEntity
  8
0
 62
6
100
AcDbCircle
 10
-30.640000000000043
 20
-33.91666666666667
 30
0.0
 40
0.5
  0
POINT
  5
4E7
330
17
100
AcDbEntity
  8
0
 62
6
100
AcDbPoint
 10
-31.8066666666667
 20
-36.333333333333336
 30
0.0
  0
CIRCLE
  5
4E8
330
17
100
AcDbEntity
  8
0
 62
6
100
AcDbCircle
 10
-31.8066666666667
 20
-36.333333333333336
 30
0.0
 40
0.5
  0
POINT
  5
4E9
330
17
100
AcDbEntity
  8
0
 62
6
100
AcDbPoint
 10
-33.0566666666667
 20
-39.25
 30
0.0
  0
CIRCLE
  5
4EA
330
17
100
AcDbEntity
  8
0
 62
6
100
AcDbCircle
 10
-33.0566666666667
 20
-39.25
 30
0.0
 40
0.5
  0
POINT
  5
4EB
330
17
100
AcDbEntity
  8
0
 62
6
100
AcDbPoint
 10
-34.3066666666667
 20
-42.166666666666664
 30
0.0
  0
CIRCLE
  5
4EC
330
17
100
AcDbEntity
  8
0
 62
6
100
AcDbCircle
 10
-34.3066666666667
 20
-42.166666666666664
 30
0.0
 40
0.5
  0
POINT
  5
4ED
330
17
100
AcDbEntity
  8
0
 62
6
100
AcDbPoint
 10
-35.0566666666667
 20
-44.166666666666664
 30
0.0
  0
CIRCLE
  5
4EE
330
17
100
AcDbEntity
  8
0
 62
6
100
AcDbCircle
 10
-35.0566666666667
 20
-44.166666666666664
 30
0.0
 40
0.5
  0
POINT
  5
4EF
330
17
100
AcDbEntity
  8
0
 62
6
100
AcDbPoint
 10
-35.8066666666667
 20
-46.166666666666664
 30
0.0
  0
CIRCLE
  5
4F0
330
17
100
AcDbEntity
  8
0
 62
6
100
AcDbCircle
 10
-35.8066666666667
 20
-46.166666666666664
 30
0.0
 40
0.5
  0
POINT
  5
4F1
330
17
100
AcDbEntity
  8
0
 62
6
100
AcDbPoint
 10
-37.14000000000004
 20
-49.33333333333333
 30
0.0
  0
CIRCLE
  5
4F2
330
17
100
AcDbEntity
  8
0
 62
6
100
AcDbCircle
 10
-37.14000000000004
 20
-49.33333333333333
 30
0.0
 40
0.5
  0
POINT
  5
4F3
330
17
100
AcDbEntity
  8
0
 62
6
100
AcDbPoint
 10
-38.47333333333337
 20
-52.5
 30
0.0
  0
CIRCLE
  5
4F4
330
17
100
AcDbEntity
  8
0
 62
6
100
AcDbCircle
 10
-38.47333333333337
 20
-52.5
 30
0.0
 40
0.5
  0
POINT
  5
4F5
330
17
100
AcDbEntity
  8
0
 62
6
100
AcDbPoint
 10
-39.64000000000004
 20
-54.91666666666667
 30
0.0
  0
CIRCLE
  5
4F6
330
17
100
AcDbEntity
  8
0
 62
6
100
AcDbCircle
 10
-39.64000000000004
 20
-54.91666666666667
 30
0.0
 40
0.5
  0
POINT
  5
4F7
330
17
100
AcDbEntity
  8
0
 62
6
100
AcDbPoint
 10
-40.8066666666667
 20
-57.333333333333336
 30
0.0
  0
CIRCLE
  5
4F8
330
17
100
AcDbEntity
  8
0
 62
6
100
AcDbCircle
 10
-40.8066666666667
 20
-57.333333333333336
 30
0.0
 40
0.5
  0
POINT
  5
4F9
330
17
100
AcDbEntity
  8
0
 62
6
100
AcDbPoint
 10
-42.3066666666667
 20
-60.5
 30
0.0
  0
CIRCLE
  5
4FA
330
17
100
AcDbEntity
  8
0
 62
6
100
AcDbCircle
 10
-42.3066666666667
 20
-60.5
 30
0.0
 40
0.5
  0
POINT
  5
4FB
330
17
100
AcDbEntity
  8
0
 62
6
100
AcDbPoint
 10
-43.8066666666667
 20
-63.666666666666664
 30
0.0
  0
CIRCLE
  5
4FC
330
17
100
AcDbEntity
  8
0
 62
6
100
AcDbCircle
 10
-43.8066666666667
 20
-63.666666666666664
 30
0.0
 40
0.5
  0
POINT
  5
4FD
330
17
100
AcDbEntity
  8
0
 62
6
100
AcDbPoint
 10
-44.94952380952384
 20
-66.11904761904762
 30
0.0
  0
CIRCLE
  5
4FE
330
17
100
AcDbEntity
  8
0
 62
6
100
AcDbCircle
 10
-44.94952380952384
 20
-66.11904761904762
 30
0.0
 40
0.5
  0
POINT
  5
4FF
330
17
100
AcDbEntity
  8
0
 62
6
100
AcDbPoint
 10
-46.09238095238099
 20
-68.57142857142857
 30
0.0
  0
CIRCLE
  5
500
330
17
100
AcDbEntity
  8
0
 62
6
100
AcDbCircle
 10
-46.09238095238099
 20
-68.57142857142857
 30
0.0
 40
0.5
  0
POINT
  5
501
330
17
100
AcDbEntity
  8
0
 62
6
100
AcDbPoint
 10
-46.94952380952384
 20
-70.86904761904762
 30
0.0
  0
CIRCLE
  5
502
330
17
100
AcDbEntity
  8
0
 62
6
100
AcDbCircle
 10
-46.94952380952384
 20
-70.86904761904762
 30
0.0
 40
0.5
  0
POINT
  5
503
330
17
100
AcDbEntity
  8
0
 62
6
100
AcDbPoint
 10
-47.8066666666667
 20
-73.16666666666667
 30
0.0
  0
CIRCLE
  5
504
330
17
100
AcDbEntity
  8
0
 62
6
100
AcDbCircle
 10
-47.8066666666667
 20
-73.16666666666667
 30
0.0
 40
0.5
  0
POINT
  5
505
330
17
100
AcDbEntity
  8
0
 62
6
100
AcDbPoint
 10
-49.0066666666667
 20
-76.18333333333334
 30
0.0
  0
CIRCLE
  5
506
330
17
100
AcDbEntity
  8
0
 62
6
100
AcDbCircle
 10
-49.0066666666667
 20
-76.18333333333334
 30
0.0
 40
0.5
  0
POINT
  5
507
330
17
100
AcDbEntity
  8
0
 62
6
100
AcDbPoint
 10
-50.206666666666706
 20
-79.2
 30
0.0
  0
CIRCLE
  5
508
330
17
100
AcDbEntity
  8
0
 62
6
100
AcDbCircle
 10
-50.206666666666706
 20
-79.2
 30
0.0
 40
0.5
  0
POINT
  5
509
330
17
100
AcDbEntity
  8
0
 62
6
100
AcDbPoint
 10
-51.2566666666667
 20
-82.51666666666667
 30
0.0
  0
CIRCLE
  5
50A
330
17
100
AcDbEntity
  8
0
 62
6
100
AcDbCircle
 10
-51.2566666666667
 20
-82.51666666666667
 30
0.0
 40
0.5
  0
POINT
  5
50B
330
17
100
AcDbEntity
  8
0
 62
6
100
AcDbPoint
 10
-52.3066666666667
 20
-85.83333333333333
 30
0.0
  0
CIRCLE
  5
50C
330
17
100
AcDbEntity
  8
0
 62
6
100
AcDbCircle
 10
-52.3066666666667
 20
-85.83333333333333
 30
0.0
 40
0.5
  0
POINT
  5
50D
330
17
100
AcDbEntity
  8
0
 62
6
100
AcDbPoint
 10
-53.64000000000004
 20
-89.83333333333333
 30
0.0
  0
CIRCLE
  5
50E
330
17
100
AcDbEntity
  8
0
 62
6
100
AcDbCircle
 10
-53.64000000000004
 20
-89.83333333333333
 30
0.0
 40
0.5
  0
POINT
  5
50F
330
17
100
AcDbEntity
  8
0
 62
6
100
AcDbPoint
 10
-54.97333333333337
 20
-93.83333333333333
 30
0.0
  0
CIRCLE
  5
510
330
17
100
AcDbEntity
  8
0
 62
6
100
AcDbCircle
 10
-54.97333333333337
 20
-93.83333333333333
 30
0.0
 40
0.5
  0
POINT
  5
511
330
17
100
AcDbEntity
  8
0
 62
6
100
AcDbPoint
 10
-56.26500000000004
 20
-94.66666666666666
 30
0.0
  0
CIRCLE
  5
512
330
17
100
AcDbEntity
  8
0
 62
6
100
AcDbCircle
 10
-56.26500000000004
 20
-94.66666666666666
 30
0.0
 40
0.5
  0
POINT
  5
513
330
17
100
AcDbEntity
  8
0
 62
6
100
AcDbPoint
 10
-57.5566666666667
 20
-95.5
 30
0.0
  0
CIRCLE
  5
514
330
17
100
AcDbEntity
  8
0
 62
6
100
AcDbCircle
 10
-57.5566666666667
 20
-95.5
 30
0.0
 40
0.5
  0
POINT
  5
515
330
17
100
AcDbEntity
  8
0
 62
6
100
AcDbPoint
 10
-59.82452380952384
 20
-94.10714285714286
 30
0.0
  0
CIRCLE
  5
516
330
17
100
AcDbEntity
  8
0
 62
6
100
AcDbCircle
 10
-59.82452380952384
 20
-94.10714285714286
 30
0.0
 40
0.5
  0
ENDSEC
  0
SECTION
  2
OBJECTS
  0
DICTIONARY
  5
A
330
0
100
AcDbDictionary
280
0
281
1
  3
ACAD_COLOR
350
B
  3
ACAD_GROUP
350
C
  3
ACAD_LAYOUT
350
D
  3
ACAD_MATERIAL
350
E
  3
ACAD_MLEADERSTYLE
350
F
  3
ACAD_MLINESTYLE
350
10
  3
ACAD_PLOTSETTINGS
350
11
  3
ACAD_PLOTSTYLENAME
350
12
  3
ACAD_SCALELIST
350
14
  3
ACAD_TABLESTYLE
350
15
  3
ACAD_VISUALSTYLE
350
16
  3
EZDXF_META
350
2D
  0
DICTIONARY
  5
B
330
A
100
AcDbDictionary
280
0
281
1
  0
DICTIONARY
  5
C
330
A
100
AcDbDictionary
280
0
281
1
  0
DICTIONARY
  5
D
330
A
100
AcDbDictionary
280
0
281
1
  3
Model
350
1A
  3
Layout1
350
1E
  0
DICTIONARY
  5
E
330
A
100
AcDbDictionary
280
0
281
1
  3
ByBlock
350
1F
  3
ByLayer
350
20
  3
Global
350
21
  0
DICTIONARY
  5
F
330
A
100
AcDbDictionary
280
0
281
1
  3
Standard
350
2C
  0
DICTIONARY
  5
10
330
A
100
AcDbDictionary
280
0
281
1
  3
Standard
350
22
  0
DICTIONARY
  5
11
330
A
100
AcDbDictionary
280
0
281
1
  0
ACDBDICTIONARYWDFLT
  5
12
330
A
100
AcDbDictionary
280
0
281
1
  3
Normal
350
13
100
AcDbDictionaryWithDefault
340
13
  0
ACDBPLACEHOLDER
  5
13
330
12
  0
DICTIONARY
  5
14
330
A
100
AcDbDictionary
280
0
281
1
  0
DICTIONARY
  5
15
330
A
100
AcDbDictionary
280
0
281
1
  0
DICTIONARY
  5
16
330
A
100
AcDbDictionary
280
0
281
1
  0
LAYOUT
  5
1A
330
D
100
AcDbPlotSettings
  1

  4
A3
  6

 40
7.5
 41
20.0
 42
7.5
 43
20.0
 44
420.0
 45
297.0
 46
0.0
 47
0.0
 48
0.0
 49
0.0
140
0.0
141
0.0
142
1.0
143
1.0
 70
1024
 72
1
 73
0
 74
5
  7

 75
16
 76
0
 77
2
 78
300
147
1.0
148
0.0
149
0.0
100
AcDbLayout
  1
Model
 70
1
 71
0
 10
0.0
 20
0.0
 11
420.0
 21
297.0
 12
0.0
 22
0.0
 32
0.0
 14
1e+20
 24
1e+20
 34
1e+20
 15
-1e+20
 25
-1e+20
 35
-1e+20
146
0.0
 13
0.0
 23
0.0
 33
0.0
 16
1.0
 26
0.0
 36
0.0
 17
0.0
 27
1.0
 37
0.0
 76
1
330
17
  0
LAYOUT
  5
1E
330
D
100
AcDbPlotSettings
  1

  4
A3
  6

 40
7.5
 41
20.0
 42
7.5
 43
20.0
 44
420.0
 45
297.0
 46
0.0
 47
0.0
 48
0.0
 49
0.0
140
0.0
141
0.0
142
1.0
143
1.0
 70
0
 72
1
 73
0
 74
5
  7

 75
16
 76
0
 77
2
 78
300
147
1.0
148
0.0
149
0.0
100
AcDbLayout
  1
Layout1
 70
1
 71
1
 10
0.0
 20
0.0
 11
420.0
 21
297.0
 12
0.0
 22
0.0
 32
0.0
 14
1e+20
 24
1e+20
 34
1e+20
 15
-1e+20
 25
-1e+20
 35
-1e+20
146
0.0
 13
0.0
 23
0.0
 33
0.0
 16
1.0
 26
0.0
 36
0.0
 17
0.0
 27
1.0
 37
0.0
 76
1
330
1B
  0
MATERIAL
  5
1F
102
{ACAD_REACTORS
330
E
102
}
330
E
100
AcDbMaterial
  1
ByBlock
  2

 70
0
 40
1.0
 71
1
 41
1.0
 91
-1023410177
 42
1.0
 72
1
  3

 73
1
 74
1
 75
1
 44
0.5
 73
0
 45
1.0
 46
1.0
 77
1
  4

 78
1
 79
1
170
1
 48
1.0
171
1
  6

172
1
173
1
174
1
140
1.0
141
1.0
175
1
  7

176
1
177
1
178
1
143
1.0
179
1
  8

270
1
271
1
272
1
145
1.0
146
1.0
273
1
  9

274
1
275
1
276
1
 42
1.0
 72
1
  3

 73
1
 74
1
 75
1
 94
63
  0
MATERIAL
  5
20
102
{ACAD_REACTORS
330
E
102
}
330
E
100
AcDbMaterial
  1
ByLayer
  2

 70
0
 40
1.0
 71
1
 41
1.0
 91
-1023410177
 42
1.0
 72
1
  3

 73
1
 74
1
 75
1
 44
0.5
 73
0
 45
1.0
 46
1.0
 77
1
  4

 78
1
 79
1
170
1
 48
1.0
171
1
  6

172
1
173
1
174
1
140
1.0
141
1.0
175
1
  7

176
1
177
1
178
1
143
1.0
179
1
  8

270
1
271
1
272
1
145
1.0
146
1.0
273
1
  9

274
1
275
1
276
1
 42
1.0
 72
1
  3

 73
1
 74
1
 75
1
 94
63
  0
MATERIAL
  5
21
102
{ACAD_REACTORS
330
E
102
}
330
E
100
AcDbMaterial
  1
Global
  2

 70
0
 40
1.0
 71
1
 41
1.0
 91
-1023410177
 42
1.0
 72
1
  3

 73
1
 74
1
 75
1
 44
0.5
 73
0
 45
1.0
 46
1.0
 77
1
  4

 78
1
 79
1
170
1
 48
1.0
171
1
  6

172
1
173
1
174
1
140
1.0
141
1.0
175
1
  7

176
1
177
1
178
1
143
1.0
179
1
  8

270
1
271
1
272
1
145
1.0
146
1.0
273
1
  9

274
1
275
1
276
1
 42
1.0
 72
1
  3

 73
1
 74
1
 75
1
 94
63
  0
MLINESTYLE
  5
22
102
{ACAD_REACTORS
330
10
102
}
330
10
100
AcDbMlineStyle
  2
Standard
 70
0
  3

 62
256
 51
90.0
 52
90.0
 71
2
 49
0.5
 62
256
  6
BYLAYER
 49
-0.5
 62
256
  6
BYLAYER
  0
MLEADERSTYLE
  5
2C
102
{ACAD_REACTORS
330
F
102
}
330
F
100
AcDbMLeaderStyle
179
2
170
2
171
1
172
0
 90
2
 40
0.0
 41
0.0
173
1
 91
-1056964608
 92
-2
290
1
 42
2.0
291
1
 43
8.0
  3
Standard
 44
4.0
300

342
29
174
1
175
1
176
0
178
1
 93
-1056964608
 45
4.0
292
0
297
0
 46
4.0
 94
-1056964608
 47
1.0
 49
1.0
140
1.0
294
1
141
0.0
177
0
142
1.0
295
0
296
0
143
3.75
271
0
272
9
273
9
  0
DICTIONARY
  5
2D
330
A
100
AcDbDictionary
280
1
281
1
  3
CREATED_BY_EZDXF
350
2E
  3
WRITTEN_BY_EZDXF
350
519
  0
DICTIONARYVAR
  5
2E
330
2D
100
DictionaryVariables
280
0
  1
1.3.5 @ 2025-03-04T12:56:49.669758+00:00
  0
DICTIONARYVAR
  5
519
330
2D
100
DictionaryVariables
280
0
  1
1.3.5 @ 2025-03-04T12:56:49.734988+00:00
  0
ENDSEC
  0
EOF
